<?xml version="1.0" encoding="iso-8859-1"?>
<!-- Generator: Adobe Illustrator 19.0.0, SVG Export Plug-In . SVG Version: 6.00 Build 0)  -->
<svg version="1.1" id="Layer_1" xmlns="http://www.w3.org/2000/svg" xmlns:xlink="http://www.w3.org/1999/xlink" x="0px" y="0px"
	 viewBox="0 0 511 511" style="enable-background:new 0 0 511 511;" xml:space="preserve">
<g>
	<rect x="215.5" y="368.063" width="16" height="15"/>
	<rect x="247.5" y="368.063" width="16" height="15"/>
	<rect x="279.5" y="368.063" width="16" height="15"/>
	<path d="M435.5,272.063h-5.299c0.528-6,0.799-11.203,0.799-16.75c0-92.36-75.14-167.375-167.5-167.375
		c-84.384,0-154.382,62.125-165.844,144.125H95.5c-52.659,0-95.5,42.841-95.5,95.5s42.841,95.5,95.5,95.5h340
		c41.631,0,75.5-33.869,75.5-75.5S477.131,272.063,435.5,272.063z M435.5,408.063h-340c-44.388,0-80.5-36.112-80.5-80.5
		s36.112-80.5,80.5-80.5h0.714c-0.141,2-0.214,5.4-0.214,8.25c0,11.272,1.127,22.416,3.351,33.368l14.7-3.047
		c-2.024-9.971-3.051-20.267-3.051-30.54c0-84.089,68.411-152.516,152.5-152.516S416,170.981,416,255.07
		c0,33.313-10.545,64.952-30.496,91.506l11.992,9.258c15.516-20.651,25.846-44.772,30.562-68.772h7.442
		c33.36,0,60.5,27.14,60.5,60.5S468.86,408.063,435.5,408.063z"/>
	<path d="M152,255.063h15c0-53.21,43.29-96.5,96.5-96.5v-15C202.019,143.563,152,193.581,152,255.063z"/>
</g>
<g>
</g>
<g>
</g>
<g>
</g>
<g>
</g>
<g>
</g>
<g>
</g>
<g>
</g>
<g>
</g>
<g>
</g>
<g>
</g>
<g>
</g>
<g>
</g>
<g>
</g>
<g>
</g>
<g>
</g>
</svg>
