<?xml version="1.0" encoding="iso-8859-1"?>
<!-- Generator: Adobe Illustrator 19.0.0, SVG Export Plug-In . SVG Version: 6.00 Build 0)  -->
<svg version="1.1" id="Layer_1" xmlns="http://www.w3.org/2000/svg" xmlns:xlink="http://www.w3.org/1999/xlink" x="0px" y="0px"
	 viewBox="0 0 511 511" style="enable-background:new 0 0 511 511;" xml:space="preserve">
<g>
	<path d="M435.5,192.313h-5.299c0.528-6,0.799-11.203,0.799-16.75c0-92.36-75.141-167.375-167.5-167.375
		c-84.384,0-154.382,62.125-165.844,144.125H95.5c-52.659,0-95.5,42.841-95.5,95.5s42.841,95.5,95.5,95.5h8v-15h-8
		c-44.388,0-80.5-36.112-80.5-80.5s36.112-80.5,80.5-80.5h0.714c-0.142,2-0.214,5.4-0.214,8.25c0,11.273,1.128,22.417,3.352,33.368
		l14.699-3.048c-2.024-9.97-3.051-20.266-3.051-30.539c0-84.089,68.411-152.516,152.5-152.516S416,91.231,416,175.32
		c0,33.312-10.546,64.952-30.496,91.506l11.992,9.258c15.516-20.651,25.846-44.772,30.562-68.772h7.442
		c33.359,0,60.5,27.14,60.5,60.5s-27.141,60.5-60.5,60.5h-28v15h28c41.631,0,75.5-33.869,75.5-75.5S477.131,192.313,435.5,192.313z"
		/>
	<path d="M263.5,63.813c-61.481,0-111.5,50.019-111.5,111.5h15c0-53.21,43.29-96.5,96.5-96.5V63.813z"/>
	<path d="M380.804,316.866l-10.607-10.481l-21.803,21.928h-26.786l35.197-35.447l-10.607-10.731l-44.069,44.007l-37.393-37.424
		l44.07-44.085l-10.857-10.614L262.5,269.206v-26.786l22.054-21.804l-10.732-10.606L262.5,221.206v-21.893h-15v21.893
		l-10.946-11.196l-10.732,10.606l21.679,21.804v26.786l-34.946-35.196l-10.482,10.606l44.132,44.07l-37.362,37.393l-44.053-44.069
		l-10.6,10.856l35.205,35.447h-26.786l-21.803-22.053l-10.607,10.731l11.197,11.322H119.5v15h21.893l-11.197,10.947l10.607,10.731
		l21.803-21.678h26.786l-35.197,34.947l10.607,10.481l44.069-44.132l37.393,37.362l-44.07,44.054l10.357,10.599l34.946-35.204
		v26.786l-21.554,21.804l10.482,10.606l11.071-11.196v21.893h15v-21.893l11.446,11.196l10.482-10.606L262.5,428.206v-26.786
		l35.446,35.196l10.732-10.606l-44.007-44.07l37.424-37.393l44.085,44.069l10.615-10.356l-35.189-34.947h26.786l21.803,21.553
		l10.607-10.481l-11.197-11.072H391.5v-15h-21.893L380.804,316.866z M255.5,369.961l-34.648-34.648l34.648-34.648l34.648,34.648
		L255.5,369.961z"/>
	<path d="M111.5,383.813c-12.958,0-23.5,10.542-23.5,23.5s10.542,23.5,23.5,23.5s23.5-10.542,23.5-23.5
		S124.458,383.813,111.5,383.813z M111.5,415.813c-4.687,0-8.5-3.813-8.5-8.5s3.813-8.5,8.5-8.5s8.5,3.813,8.5,8.5
		S116.187,415.813,111.5,415.813z"/>
	<path d="M431.5,359.813c-12.958,0-23.5,10.542-23.5,23.5s10.542,23.5,23.5,23.5s23.5-10.542,23.5-23.5
		S444.458,359.813,431.5,359.813z M431.5,391.813c-4.686,0-8.5-3.813-8.5-8.5s3.814-8.5,8.5-8.5s8.5,3.813,8.5,8.5
		S436.186,391.813,431.5,391.813z"/>
	<path d="M367.5,407.813c-12.958,0-23.5,10.542-23.5,23.5s10.542,23.5,23.5,23.5s23.5-10.542,23.5-23.5
		S380.458,407.813,367.5,407.813z M367.5,439.813c-4.686,0-8.5-3.813-8.5-8.5s3.814-8.5,8.5-8.5s8.5,3.813,8.5,8.5
		S372.186,439.813,367.5,439.813z"/>
	<path d="M175.5,455.813c-12.958,0-23.5,10.542-23.5,23.5s10.542,23.5,23.5,23.5s23.5-10.542,23.5-23.5
		S188.458,455.813,175.5,455.813z M175.5,487.813c-4.686,0-8.5-3.813-8.5-8.5s3.814-8.5,8.5-8.5s8.5,3.813,8.5,8.5
		S180.186,487.813,175.5,487.813z"/>
	<rect x="215.5" y="160.313" width="16" height="15"/>
	<rect x="247.5" y="160.313" width="16" height="15"/>
	<rect x="279.5" y="160.313" width="16" height="15"/>
</g>
<g>
</g>
<g>
</g>
<g>
</g>
<g>
</g>
<g>
</g>
<g>
</g>
<g>
</g>
<g>
</g>
<g>
</g>
<g>
</g>
<g>
</g>
<g>
</g>
<g>
</g>
<g>
</g>
<g>
</g>
</svg>
