<?xml version="1.0" encoding="iso-8859-1"?>
<!-- Generator: Adobe Illustrator 19.0.0, SVG Export Plug-In . SVG Version: 6.00 Build 0)  -->
<svg version="1.1" id="Layer_1" xmlns="http://www.w3.org/2000/svg" xmlns:xlink="http://www.w3.org/1999/xlink" x="0px" y="0px"
	 viewBox="0 0 511 511" style="enable-background:new 0 0 511 511;" xml:space="preserve">
<g>
	<polygon points="299.542,296 226.982,296 259.208,247.41 246.728,239.215 198.955,311 270.394,311 230.394,367 292.956,367 
		204.576,473.056 241.103,400 169.103,400 201.103,336 144.046,336 202.046,191 260.968,191 260.968,176 191.89,176 121.89,351 
		176.833,351 144.833,415 216.833,415 168.833,511 192.481,511 324.981,352 259.542,352 	"/>
	<path d="M296.833,151l-40.001,80h23.406l117.929-127h-61.064l24.001-48h-72.771l-47.5,95H296.833z M297.603,71h39.23l-24.001,48
		h50.936l-74.025,79.72l31.36-62.72h-56.001L297.603,71z"/>
	<path d="M128.833,175h23.406L270.167,48h-61.064l24.001-48h-72.771l-47.5,95h56.001L128.833,175z M137.103,80l32.5-65h39.23
		l-24.001,48h50.936l-74.025,79.72L193.104,80H137.103z"/>
</g>
<g>
</g>
<g>
</g>
<g>
</g>
<g>
</g>
<g>
</g>
<g>
</g>
<g>
</g>
<g>
</g>
<g>
</g>
<g>
</g>
<g>
</g>
<g>
</g>
<g>
</g>
<g>
</g>
<g>
</g>
</svg>
