<?xml version="1.0" encoding="iso-8859-1"?>
<!-- Generator: Adobe Illustrator 19.0.0, SVG Export Plug-In . SVG Version: 6.00 Build 0)  -->
<svg version="1.1" id="Layer_1" xmlns="http://www.w3.org/2000/svg" xmlns:xlink="http://www.w3.org/1999/xlink" x="0px" y="0px"
	 viewBox="0 0 511 511" style="enable-background:new 0 0 511 511;" xml:space="preserve">
<g>
	<path d="M135.5,298.734v-15c-31.154,0-56.5-25.346-56.5-56.5c0-28.693,21.505-52.442,49.24-56.018
		c0.511,8.762,1.855,17.439,4.028,25.887l14.527-3.738c-2.519-9.787-3.796-19.925-3.796-30.131c0-66.444,54.056-120.5,120.5-120.5
		S384,96.791,384,163.234c0,27.702-9.138,53.743-26.426,75.31l11.703,9.382c10.767-13.431,18.816-28.809,23.804-45.151
		c21.601,0.835,38.919,18.909,38.919,40.71c0,22.332-18.168,40.75-40.5,40.75h-72v15h72c30.603,0,55.5-25.147,55.5-55.75
		c0-28.849-22.128-52.743-50.301-55.373c1.517-8.131,2.301-16.48,2.301-24.814c0-74.715-60.785-135.531-135.5-135.531
		c-72.324,0-131.593,56.942-135.313,128.356C92.184,159.796,64,190.285,64,227.242C64,266.667,96.075,298.734,135.5,298.734z"/>
	<path d="M263.5,75.734c-48.248,0-87.5,39.252-87.5,87.5h15c0-39.977,32.523-72.5,72.5-72.5V75.734z"/>
	<rect x="215.5" y="244.234" width="16" height="15"/>
	<rect x="247.5" y="244.234" width="16" height="15"/>
	<rect x="279.5" y="244.234" width="16" height="15"/>
	<path d="M263,371.734c0-12.958-10.542-23.5-23.5-23.5h-176c-4.687,0-8.5-3.813-8.5-8.5c0-4.687,3.813-8.5,8.5-8.5h216
		c12.958,0,23.5-10.542,23.5-23.5s-10.542-23.5-23.5-23.5h-104c-4.686,0-8.5-4.063-8.5-8.75c0-4.687,3.814-8.75,8.5-8.75v-15
		c-12.958,0-23.5,10.792-23.5,23.75s10.542,23.75,23.5,23.75h64c4.686,0,8.5,3.813,8.5,8.5c0,4.687-3.814,8.5-8.5,8.5h-216
		c-12.958,0-23.5,10.542-23.5,23.5s10.542,23.5,23.5,23.5h176c4.686,0,8.5,3.813,8.5,8.5c0,4.687-3.814,8.5-8.5,8.5h-56
		c-12.958,0-24,10.042-24,23v8h15v-8c0-4.687,4.314-8,9-8h96C252.458,395.234,263,384.692,263,371.734z M261.403,299.234H279.5
		c4.686,0,8.5,3.813,8.5,8.5c0,4.687-3.814,8.5-8.5,8.5h-18.097c1.027-3,1.597-5.503,1.597-8.5S262.43,301.234,261.403,299.234z
		 M41.597,348.234H23.5c-4.687,0-8.5-3.813-8.5-8.5c0-4.687,3.813-8.5,8.5-8.5h18.097c-1.027,2-1.597,5.503-1.597,8.5
		S40.57,345.234,41.597,348.234z M221.403,363.234H239.5c4.686,0,8.5,3.813,8.5,8.5c0,4.687-3.814,8.5-8.5,8.5h-18.097
		c1.027-3,1.597-5.503,1.597-8.5S222.43,365.234,221.403,363.234z"/>
	<path d="M487.5,388.234h-120c-4.686,0-8.5-3.813-8.5-8.5c0-4.687,3.814-8.5,8.5-8.5h56c12.958,0,23.5-10.792,23.5-23.75
		s-10.542-23.75-23.5-23.75v15c4.686,0,8.5,4.063,8.5,8.75c0,4.687-3.814,8.75-8.5,8.75h-96c-12.958,0-23.5,10.542-23.5,23.5
		s10.542,23.5,23.5,23.5h120c4.686,0,8.5,3.813,8.5,8.5c0,4.687-3.814,8.5-8.5,8.5h-208c-12.958,0-23.5,10.542-23.5,23.5
		s10.542,23.5,23.5,23.5h48c4.686,0,8,3.313,8,8v8h15v-8c0-12.958-10.042-23-23-23h-8c-4.686,0-8.5-3.813-8.5-8.5
		c0-4.687,3.814-8.5,8.5-8.5h208c12.958,0,23.5-10.542,23.5-23.5S500.458,388.234,487.5,388.234z M345.597,388.234H327.5
		c-4.686,0-8.5-3.813-8.5-8.5c0-4.687,3.814-8.5,8.5-8.5h18.097c-1.027,2-1.597,5.503-1.597,8.5S344.57,385.234,345.597,388.234z
		 M257.597,452.234H239.5c-4.686,0-8.5-3.813-8.5-8.5c0-4.687,3.814-8.5,8.5-8.5h18.097c-1.027,2-1.597,5.503-1.597,8.5
		S256.57,449.234,257.597,452.234z M487.5,420.234h-18.097c1.027-3,1.597-5.503,1.597-8.5s-0.57-6.5-1.597-8.5H487.5
		c4.686,0,8.5,3.813,8.5,8.5C496,416.421,492.186,420.234,487.5,420.234z"/>
</g>
<g>
</g>
<g>
</g>
<g>
</g>
<g>
</g>
<g>
</g>
<g>
</g>
<g>
</g>
<g>
</g>
<g>
</g>
<g>
</g>
<g>
</g>
<g>
</g>
<g>
</g>
<g>
</g>
<g>
</g>
</svg>
