<?xml version="1.0" encoding="iso-8859-1"?>
<!-- Generator: Adobe Illustrator 19.0.0, SVG Export Plug-In . SVG Version: 6.00 Build 0)  -->
<svg version="1.1" id="Layer_1" xmlns="http://www.w3.org/2000/svg" xmlns:xlink="http://www.w3.org/1999/xlink" x="0px" y="0px"
	 viewBox="0 0 511 511" style="enable-background:new 0 0 511 511;" xml:space="preserve">
<g>
	<path d="M143,279.75c0-2.364,0.147-4.868,0.438-7.197l-14.885-1.918c-0.367,2.942-0.553,6.164-0.553,9.147
		c0,39.425,32.075,71.719,71.5,71.719h40v-15h-40C168.346,336.5,143,310.904,143,279.75z"/>
	<path d="M460.699,240.251c1.517-8.131,2.301-16.417,2.301-24.751C463,140.785,402.215,80,327.5,80
		c-58.695,0-110.436,37.437-128.751,93.158l14.25,4.684C229.286,128.292,275.3,95,327.5,95C393.944,95,448,149.056,448,215.5
		c0,27.702-9.138,53.743-26.426,75.31l11.704,9.382c10.767-13.431,18.816-28.809,23.803-45.151
		C478.682,255.875,496,273.949,496,295.75c0,22.332-18.169,40.75-40.5,40.75h-40v15h40c30.603,0,55.5-25.147,55.5-55.75
		C511,266.901,488.873,242.882,460.699,240.251z"/>
	<rect x="279.5" y="256.5" width="16" height="15"/>
	<rect x="311.5" y="256.5" width="16" height="15"/>
	<rect x="343.5" y="256.5" width="16" height="15"/>
	<path d="M363.635,288.5h-72.771l-47.5,95h56l-40,80h23.406l117.929-127h-61.064L363.635,288.5z M366.301,351.5l-74.025,79.72
		l31.36-62.72h-56l32.5-65h39.229l-24,48H366.301z"/>
	<path d="M213.243,212.324l4.421-5.263l-17.454-17.469l-5.207,3.912C182.38,202.987,167.337,208,151.5,208
		c-39.977,0-72.5-32.523-72.5-72.5S111.523,63,151.5,63c15.838,0,30.881,5.013,43.504,14.498l5.209,3.914l17.45-17.474l-4.42-5.262
		C190.794,31.954,155.75,16,119.5,16C53.607,16,0,69.607,0,135.5S53.607,255,119.5,255C155.749,255,190.793,239.046,213.243,212.324
		z M119.5,240C61.878,240,15,193.122,15,135.5S61.878,31,119.5,31c26.02,0,52.126,9.824,71.313,26.292
		C178.708,51.181,165.354,48,151.5,48C103.252,48,64,87.252,64,135.5s39.252,87.5,87.5,87.5c13.854,0,27.207-3.181,39.311-9.292
		C171.624,230.177,145.52,240,119.5,240z"/>
	<path d="M431.5,367.079l-6.672,12.995C420.88,387.763,408,413.619,408,423.5c0,12.958,10.542,23.5,23.5,23.5s23.5-10.542,23.5-23.5
		c0-9.881-12.88-35.737-16.828-43.426L431.5,367.079z M431.5,432c-4.687,0-8.5-3.813-8.5-8.5c0.015-2.931,3.769-12.487,8.5-22.814
		c4.731,10.324,8.484,19.88,8.5,22.814C440,428.187,436.187,432,431.5,432z"/>
	<path d="M367.5,415.079l-6.672,12.995C356.88,435.763,344,461.619,344,471.5c0,12.958,10.542,23.5,23.5,23.5s23.5-10.542,23.5-23.5
		c0-9.881-12.88-35.737-16.828-43.426L367.5,415.079z M367.5,480c-4.687,0-8.5-3.813-8.5-8.5c0.015-2.931,3.769-12.487,8.5-22.814
		c4.731,10.324,8.484,19.88,8.5,22.814C376,476.187,372.187,480,367.5,480z"/>
	<path d="M143.5,367.079l-6.672,12.995C132.88,387.763,120,413.619,120,423.5c0,12.958,10.542,23.5,23.5,23.5s23.5-10.542,23.5-23.5
		c0-9.881-12.88-35.737-16.828-43.426L143.5,367.079z M143.5,432c-4.687,0-8.5-3.813-8.5-8.5c0.015-2.931,3.769-12.487,8.501-22.814
		c4.731,10.324,8.484,19.88,8.499,22.814C152,428.187,148.187,432,143.5,432z"/>
	<path d="M207.5,415.079l-6.672,12.995C196.88,435.763,184,461.619,184,471.5c0,12.958,10.542,23.5,23.5,23.5s23.5-10.542,23.5-23.5
		c0-9.881-12.88-35.737-16.828-43.426L207.5,415.079z M207.5,480c-4.687,0-8.5-3.813-8.5-8.5c0.015-2.931,3.769-12.487,8.5-22.814
		c4.731,10.324,8.484,19.88,8.5,22.814C216,476.187,212.187,480,207.5,480z"/>
</g>
<g>
</g>
<g>
</g>
<g>
</g>
<g>
</g>
<g>
</g>
<g>
</g>
<g>
</g>
<g>
</g>
<g>
</g>
<g>
</g>
<g>
</g>
<g>
</g>
<g>
</g>
<g>
</g>
<g>
</g>
</svg>
