<?xml version="1.0" encoding="iso-8859-1"?>
<!-- Generator: Adobe Illustrator 19.0.0, SVG Export Plug-In . SVG Version: 6.00 Build 0)  -->
<svg version="1.1" id="Layer_1" xmlns="http://www.w3.org/2000/svg" xmlns:xlink="http://www.w3.org/1999/xlink" x="0px" y="0px"
	 viewBox="0 0 512 512" style="enable-background:new 0 0 512 512;" xml:space="preserve">
<g>
	<path d="M184.25,127.5v-15c-39.425,0-71.5,32.075-71.5,71.5h15C127.75,152.846,153.096,127.5,184.25,127.5z"/>
	<path d="M79.75,184c0-57.622,46.878-104.5,104.5-104.5c24.552,0,48.409,8.683,67.176,24.449l9.648-11.485
		C239.61,74.431,212.326,64.5,184.25,64.5c-65.893,0-119.5,53.607-119.5,119.5c0,36.837,16.61,71.061,45.571,93.893l9.287-11.779
		C94.278,246.144,79.75,216.214,79.75,184z"/>
	<path d="M461.449,256.751c1.517-8.131,2.301-16.417,2.301-24.751c0-74.715-60.785-135.5-135.5-135.5
		c-72.324,0-131.593,56.957-135.313,128.372c-36.003,3.674-64.187,34.422-64.187,71.378c0,39.425,32.075,71.75,71.5,71.75h256
		c30.603,0,55.5-25.147,55.5-55.75C511.75,283.401,489.623,259.382,461.449,256.751z M456.25,353h-256
		c-31.154,0-56.5-25.596-56.5-56.75c0-28.693,21.505-52.567,49.24-56.143c0.511,8.763,1.855,17.378,4.029,25.825l14.526-3.771
		c-2.519-9.785-3.796-19.937-3.796-30.146c0-66.444,54.056-120.508,120.5-120.508s120.5,54.052,120.5,120.496
		c0,27.702-9.138,53.741-26.426,75.308l11.704,9.381c10.767-13.431,18.816-28.81,23.803-45.152
		c21.6,0.835,38.919,18.909,38.919,40.71C496.75,334.582,478.582,353,456.25,353z"/>
	<path d="M240.75,232h15c0-39.977,32.523-72.5,72.5-72.5v-15C280.002,144.5,240.75,183.752,240.75,232z"/>
	<rect x="280.25" y="313" width="16" height="15"/>
	<rect x="312.25" y="313" width="16" height="15"/>
	<rect x="344.25" y="313" width="16" height="15"/>
	<rect x="0.25" y="177" width="48" height="15"/>
	<rect x="176.25" width="15" height="48"/>
	<rect x="292.75" y="39.716" transform="matrix(0.7071 0.7071 -0.7071 0.7071 136.0244 -192.3921)" width="15" height="56.569"/>
	<rect x="39.966" y="292.5" transform="matrix(0.7071 -0.7071 0.7071 0.7071 -192.1421 136.128)" width="56.569" height="15"/>
	<rect x="39.966" y="60.5" transform="matrix(0.7071 0.7071 -0.7071 0.7071 68.0732 -28.3433)" width="56.569" height="15"/>
	<rect x="88.25" y="320" width="15" height="128"/>
	<rect x="128.25" y="368" width="15" height="112"/>
	<rect x="168.25" y="496" width="15" height="16"/>
	<rect x="168.25" y="384" width="15" height="96"/>
	<rect x="208.25" y="384" width="15" height="128"/>
	<rect x="248.25" y="384" width="15" height="80"/>
	<rect x="288.25" y="384" width="15" height="128"/>
	<rect x="328.25" y="384" width="15" height="112"/>
	<rect x="368.25" y="464" width="15" height="16"/>
	<rect x="368.25" y="384" width="15" height="64"/>
	<rect x="408.25" y="384" width="15" height="128"/>
</g>
<g>
</g>
<g>
</g>
<g>
</g>
<g>
</g>
<g>
</g>
<g>
</g>
<g>
</g>
<g>
</g>
<g>
</g>
<g>
</g>
<g>
</g>
<g>
</g>
<g>
</g>
<g>
</g>
<g>
</g>
</svg>
