<?xml version="1.0" encoding="iso-8859-1"?>
<!-- Generator: Adobe Illustrator 19.0.0, SVG Export Plug-In . SVG Version: 6.00 Build 0)  -->
<svg version="1.1" id="Layer_1" xmlns="http://www.w3.org/2000/svg" xmlns:xlink="http://www.w3.org/1999/xlink" x="0px" y="0px"
	 viewBox="0 0 511.5 511.5" style="enable-background:new 0 0 511.5 511.5;" xml:space="preserve">
<g>
	<rect x="87.75" y="287.5" width="15" height="160"/>
	<rect x="127.75" y="335.5" width="15" height="144"/>
	<rect x="167.75" y="495.5" width="15" height="16"/>
	<rect x="167.75" y="351.5" width="15" height="128"/>
	<rect x="207.75" y="351.5" width="15" height="160"/>
	<rect x="247.75" y="351.5" width="15" height="112"/>
	<rect x="287.75" y="351.5" width="15" height="160"/>
	<rect x="327.75" y="351.5" width="15" height="144"/>
	<rect x="367.75" y="463.5" width="15" height="16"/>
	<rect x="367.75" y="351.5" width="15" height="96"/>
	<rect x="407.75" y="351.5" width="15" height="160"/>
	<path d="M460.949,224.251c1.517-8.131,2.301-16.417,2.301-24.751c0-74.715-60.785-135.5-135.5-135.5
		c-58.695,0-110.436,37.437-128.751,93.158l14.25,4.684C229.535,112.291,275.55,79,327.75,79c66.444,0,120.5,54.056,120.5,120.5
		c0,27.702-9.138,53.743-26.426,75.31l11.703,9.382c10.767-13.431,18.816-28.809,23.804-45.151
		c21.601,0.835,38.919,18.909,38.919,40.71c0,22.332-18.168,40.75-40.5,40.75h-256c-31.154,0-56.5-25.596-56.5-56.75
		c0-2.367,0.148-4.871,0.438-7.196l-14.885-1.921c-0.367,2.939-0.553,6.162-0.553,9.148c0,39.425,32.075,71.719,71.5,71.719h256
		c30.603,0,55.5-25.147,55.5-55.75C511.25,250.901,489.122,226.882,460.949,224.251z"/>
	<rect x="279.75" y="208.5" width="16" height="15"/>
	<rect x="311.75" y="208.5" width="16" height="15"/>
	<rect x="343.75" y="208.5" width="16" height="15"/>
	<path d="M213.492,196.324l4.422-5.263l-17.454-17.47l-5.207,3.913C182.63,186.987,167.587,192,151.75,192
		c-39.977,0-72.5-32.523-72.5-72.5S111.773,47,151.75,47c15.838,0,30.882,5.013,43.505,14.498l5.208,3.914l17.449-17.474
		l-4.42-5.262C191.044,15.954,156,0,119.75,0C53.857,0,0.25,53.607,0.25,119.5S53.857,239,119.75,239
		C155.999,239,191.043,223.046,213.492,196.324z M119.75,224c-57.621,0-104.5-46.878-104.5-104.5S62.129,15,119.75,15
		c26.02,0,52.126,9.824,71.313,26.292C178.958,35.181,165.605,32,151.75,32c-48.248,0-87.5,39.252-87.5,87.5s39.252,87.5,87.5,87.5
		c13.855,0,27.207-3.18,39.311-9.292C171.874,214.177,145.77,224,119.75,224z"/>
</g>
<g>
</g>
<g>
</g>
<g>
</g>
<g>
</g>
<g>
</g>
<g>
</g>
<g>
</g>
<g>
</g>
<g>
</g>
<g>
</g>
<g>
</g>
<g>
</g>
<g>
</g>
<g>
</g>
<g>
</g>
</svg>
