<?xml version="1.0" encoding="iso-8859-1"?>
<!-- Generator: Adobe Illustrator 19.0.0, SVG Export Plug-In . SVG Version: 6.00 Build 0)  -->
<svg version="1.1" id="Layer_1" xmlns="http://www.w3.org/2000/svg" xmlns:xlink="http://www.w3.org/1999/xlink" x="0px" y="0px"
	 viewBox="0 0 511 511" style="enable-background:new 0 0 511 511;" xml:space="preserve">
<g>
	<path d="M424,203.5h15c0-13.509,10.991-24.5,24.5-24.5v-15c-13.509,0-24.5-10.991-24.5-24.5h-15c0,13.509-10.991,24.5-24.5,24.5v15
		C413.009,179,424,189.991,424,203.5z M431.5,162.616c2.471,3.412,5.472,6.413,8.884,8.884c-3.412,2.471-6.413,5.472-8.884,8.884
		c-2.471-3.412-5.472-6.413-8.884-8.884C426.028,169.029,429.029,166.028,431.5,162.616z"/>
	<path d="M352,139.5h15c0-13.509,10.991-24.5,24.5-24.5v-15c-13.509,0-24.5-10.991-24.5-24.5h-15c0,13.509-10.991,24.5-24.5,24.5v15
		C341.009,115,352,125.991,352,139.5z M359.5,98.616c2.471,3.412,5.472,6.413,8.884,8.884c-3.412,2.471-6.413,5.472-8.884,8.884
		c-2.471-3.412-5.472-6.413-8.884-8.884C354.028,105.029,357.029,102.028,359.5,98.616z"/>
	<path d="M104,227.5h15c0-13.509,10.991-24.5,24.5-24.5v-15c-13.509,0-24.5-10.991-24.5-24.5h-15c0,13.509-10.991,24.5-24.5,24.5v15
		C93.009,203,104,213.991,104,227.5z M111.5,186.616c2.471,3.412,5.472,6.413,8.884,8.884c-3.412,2.471-6.413,5.472-8.884,8.884
		c-2.471-3.412-5.472-6.413-8.884-8.884C106.028,193.029,109.029,190.028,111.5,186.616z"/>
	<rect x="79.5" y="380.5" width="16" height="15"/>
	<rect x="111.5" y="380.5" width="16" height="15"/>
	<rect x="143.5" y="380.5" width="16" height="15"/>
	<path d="M80,347.5h15c0-17.92,14.58-32.5,32.5-32.5v-15C101.309,300,80,321.309,80,347.5z"/>
	<path d="M383.5,315v-15c-26.191,0-47.5,21.309-47.5,47.5h15C351,329.58,365.58,315,383.5,315z"/>
	<path d="M468.193,325.481c-6.65-25.559-24.594-46.607-48.16-57.48c-7.007-36.756-26.29-70.304-54.773-95.032
		C334.827,146.55,295.848,132,255.5,132c-39.924,0-78.591,14.28-108.877,40.21l9.755,11.395C183.949,159.999,219.151,147,255.5,147
		c36.734,0,72.222,13.245,99.925,37.296c23.718,20.591,40.427,47.891,47.991,77.992c-5.882-1.374-11.991-2.15-18.258-2.267
		C367.915,203.197,315.413,164,255.5,164c-59.913,0-112.416,39.197-129.658,96.021c-6.268,0.117-12.376,0.893-18.259,2.268
		c1.374-5.48,3.043-10.885,5.016-16.164l-14.051-5.25c-3.284,8.788-5.814,17.887-7.574,27.124
		c-23.57,10.872-41.517,31.921-48.167,57.483C18.303,331.239,0,353.515,0,379.75c0,30.603,24.897,55.75,55.5,55.75h152
		c17.369,0,31.5-14.381,31.5-31.75c0-16.027-12.035-29.413-27.54-31.367c2.336-7.95,3.54-16.321,3.54-24.82
		c0-18.707-5.904-36.09-15.942-50.329c1.211-30.092,26.058-54.218,56.442-54.218c30.384,0,55.231,24.103,56.442,54.195
		C301.904,311.449,296,328.797,296,347.504c0,8.499,1.204,16.806,3.54,24.756c-15.506,1.955-27.54,15.464-27.54,31.491
		c0,17.369,14.131,31.749,31.5,31.749h152c30.603,0,55.5-25.147,55.5-55.75C511,353.515,492.697,331.239,468.193,325.481z
		 M255.5,179c52.113,0,97.899,33.35,114.23,82.087c-5.694,0.904-11.207,2.357-16.482,4.307C338.899,224.134,299.86,196,255.5,196
		c-44.361,0-83.4,28.134-97.748,69.393c-5.275-1.95-10.789-3.403-16.483-4.306C157.6,212.35,203.387,179,255.5,179z M200,347.502
		c0,15.837-5.013,30.878-14.496,43.5l11.992,9.261c3.106-4.134,5.8-8.763,8.099-12.763h1.905c9.098,0,16.5,7.402,16.5,16.5
		s-7.402,16.5-16.5,16.5h-152c-22.332,0-40.5-18.418-40.5-40.75c0-16.91,10.422-31.551,25.177-37.605
		c-0.113,1.813-0.177,3.577-0.177,5.418c0,5.886,0.589,11.74,1.75,17.461l14.7-3c-0.962-4.74-1.45-9.629-1.45-14.516
		c0-39.977,32.523-72.504,72.5-72.504S200,307.525,200,347.502z M255.5,228c-33.58,0-61.811,23.274-69.449,54.535
		c-4.482-4.043-9.383-7.63-14.629-10.687C183.25,235.75,217.026,211,255.5,211c38.473,0,72.249,24.75,84.079,60.847
		c-5.246,3.058-10.147,6.644-14.629,10.687C317.311,251.274,289.08,228,255.5,228z M455.5,420.5h-152c-9.098,0-16.5-7.402-16.5-16.5
		s7.402-16.5,16.5-16.5h1.905c2.298,4,4.993,8.629,8.099,12.763l11.992-9.136C316.013,378.505,311,363.4,311,347.563
		c0-39.977,32.523-72.531,72.5-72.531c39.977,0,72.5,32.508,72.5,72.484c0,4.886-0.488,9.76-1.45,14.5l14.7,2.98
		c1.161-5.721,1.75-11.608,1.75-17.494c0-1.841-0.064-3.668-0.177-5.482C485.578,348.075,496,362.84,496,379.75
		C496,402.082,477.832,420.5,455.5,420.5z"/>
	<rect x="351.5" y="380.5" width="16" height="15"/>
	<rect x="383.5" y="380.5" width="16" height="15"/>
	<rect x="415.5" y="380.5" width="16" height="15"/>
</g>
<g>
</g>
<g>
</g>
<g>
</g>
<g>
</g>
<g>
</g>
<g>
</g>
<g>
</g>
<g>
</g>
<g>
</g>
<g>
</g>
<g>
</g>
<g>
</g>
<g>
</g>
<g>
</g>
<g>
</g>
</svg>
