<?xml version="1.0" encoding="iso-8859-1"?>
<!-- Generator: Adobe Illustrator 19.0.0, SVG Export Plug-In . SVG Version: 6.00 Build 0)  -->
<svg version="1.1" id="Layer_1" xmlns="http://www.w3.org/2000/svg" xmlns:xlink="http://www.w3.org/1999/xlink" x="0px" y="0px"
	 viewBox="0 0 511 511" style="enable-background:new 0 0 511 511;" xml:space="preserve">
<g>
	<path d="M183.5,428C90.589,428,15,352.411,15,259.5S90.589,91,183.5,91c39.074,0,77.155,13.678,107.227,38.515l9.553-11.565
		C267.525,90.898,226.052,76,183.5,76C82.318,76,0,158.318,0,259.5S82.318,443,183.5,443c38.044,0,74.538-11.539,105.537-33.368
		l-8.637-12.265C251.943,417.408,218.436,428,183.5,428z"/>
	<rect x="143.5" y="340.5" width="16" height="15"/>
	<rect x="175.5" y="340.5" width="16" height="15"/>
	<rect x="207.5" y="340.5" width="16" height="15"/>
	<path d="M272,259.75c0,17.399-4.987,33.75-14.459,48.75H183.5v15h81.827l2.244-3.37C280.282,302.462,287,281.458,287,259.625
		c0-11.833-1.982-23.504-5.893-34.566l-14.143,5.093C270.306,239.604,272,249.625,272,259.75z"/>
	<path d="M95,259.75c0-48.799,39.701-88.625,88.5-88.625c10.124,0,20.049,1.631,29.499,4.971l4.998-14.174
		c-11.06-3.909-22.666-5.906-34.497-5.906c-57.07,0-103.5,46.422-103.5,103.492c0,21.833,6.718,42.958,19.429,60.626l2.245,3.366
		H119.5v-15h-10.041C99.987,293.5,95,277.149,95,259.75z"/>
	<path d="M183.5,116C104.374,116,40,180.374,40,259.5S104.374,403,183.5,403S327,338.626,327,259.5S262.626,116,183.5,116z
		 M183.5,388C112.645,388,55,330.355,55,259.5S112.645,131,183.5,131S312,188.645,312,259.5S254.355,388,183.5,388z"/>
	<path d="M183.5,220c-21.78,0-39.5,17.72-39.5,39.5c0,1.981,0.151,3.928,0.434,5.832l-28.108,28.108l33.234,33.234l28.109-28.108
		c1.904,0.283,3.851,0.434,5.832,0.434c21.78,0,39.5-17.72,39.5-39.5c0-1.981,0.001-3.928-0.282-5.833l47.782-47.629V172.5h-33.538
		l-47.63,47.781C187.428,219.999,185.482,220,183.5,220z M149.559,305.462l-12.021-12.021l12.691-12.691
		c3.091,4.823,7.198,8.93,12.021,12.021L149.559,305.462z M243.175,187.5H255.5v12.325l-38.577,38.425
		c-3.091-4.823-7.274-9.082-12.097-12.173L243.175,187.5z M208,259.5c0,13.509-10.991,24.5-24.5,24.5S159,273.009,159,259.5
		c0-13.509,10.991-24.5,24.5-24.5S208,245.991,208,259.5z"/>
	<path d="M351.5,428c-22.332,0-40.5-18.168-40.5-40.5c0-17.318,25.135-67.771,40.486-96.366
		c5.685,10.603,14.206,26.938,21.958,43.54l13.592-6.347c-13.315-28.515-28.841-56.222-28.996-56.499l-6.54-11.647l-6.54,11.647
		c-5.011,8.925-48.96,88-48.96,115.672c0,30.603,24.897,55.5,55.5,55.5c3.099,0,6.208-0.258,9.241-0.767l-2.482-14.793
		C356.044,427.811,353.77,428,351.5,428z"/>
	<rect x="327.5" y="388.5" width="16" height="15"/>
	<path d="M414.172,320.074l-6.672-12.995l-6.672,12.995c-0.081,0.158-8.182,15.96-16.168,33.723C368,390.846,368,400.37,368,403.5
		c0,21.78,17.72,39.5,39.5,39.5s39.5-17.72,39.5-39.5c0-3.13,0-12.654-16.66-49.703
		C422.353,336.034,414.253,320.232,414.172,320.074z M407.5,428c-13.51,0-24.5-10.991-24.5-24.5c0-9.573,13.14-39.764,24.5-63.185
		c11.36,23.421,24.5,53.612,24.5,63.185C432,417.009,421.01,428,407.5,428z"/>
	<path d="M487.5,164.5h-120c-4.686,0-8.5-3.813-8.5-8.5s3.814-8.5,8.5-8.5h72c12.958,0,23.5-10.542,23.5-23.5
		s-10.542-23.5-23.5-23.5h-80c-4.686,0-8.5-4.063-8.5-8.75s3.814-8.75,8.5-8.75V68C346.542,68,336,78.792,336,91.75
		s10.542,23.75,23.5,23.75h40c4.686,0,8.5,3.813,8.5,8.5s-3.814,8.5-8.5,8.5h-72c-12.958,0-23.5,10.542-23.5,23.5
		s10.542,23.5,23.5,23.5h4.062c11.031,20,17.674,41.873,19.751,64.922l14.94-1.221c-2.02-22.41-8.014-43.701-17.818-63.701H447.5
		c4.686,0,8.5,3.813,8.5,8.5s-3.814,8.5-8.5,8.5h-40c-12.958,0-24,10.042-24,23v8h15v-8c0-4.687,4.314-8,9-8h80
		c12.958,0,23.5-10.542,23.5-23.5S500.458,164.5,487.5,164.5z M421.403,115.5H439.5c4.686,0,8.5,3.813,8.5,8.5s-3.814,8.5-8.5,8.5
		h-18.097c1.027-3,1.597-5.503,1.597-8.5S422.43,117.5,421.403,115.5z M345.597,164.5H327.5c-4.686,0-8.5-3.813-8.5-8.5
		s3.814-8.5,8.5-8.5h18.097c-1.027,2-1.597,5.503-1.597,8.5S344.57,161.5,345.597,164.5z M487.5,196.5h-18.097
		c1.027-3,1.597-5.503,1.597-8.5s-0.57-6.5-1.597-8.5H487.5c4.686,0,8.5,3.813,8.5,8.5S492.186,196.5,487.5,196.5z"/>
</g>
<g>
</g>
<g>
</g>
<g>
</g>
<g>
</g>
<g>
</g>
<g>
</g>
<g>
</g>
<g>
</g>
<g>
</g>
<g>
</g>
<g>
</g>
<g>
</g>
<g>
</g>
<g>
</g>
<g>
</g>
</svg>
