<?xml version="1.0" encoding="iso-8859-1"?>
<!-- Generator: Adobe Illustrator 19.0.0, SVG Export Plug-In . SVG Version: 6.00 Build 0)  -->
<svg version="1.1" id="Layer_1" xmlns="http://www.w3.org/2000/svg" xmlns:xlink="http://www.w3.org/1999/xlink" x="0px" y="0px"
	 viewBox="0 0 512 512" style="enable-background:new 0 0 512 512;" xml:space="preserve">
<g>
	<path d="M184.5,271.5h15c0-31.154,25.346-56.5,56.5-56.5v-15C216.575,200,184.5,232.075,184.5,271.5z"/>
	<path d="M365.226,320.5c6.741-16,10.274-31.984,10.274-48.75c0-65.893-53.607-119.625-119.5-119.625S136.5,205.92,136.5,271.813
		c0,16.766,3.533,32.688,10.273,48.688H0v15h512v-15H365.226z M151.5,271.75c0-57.622,46.879-104.625,104.5-104.625
		s104.5,47.066,104.5,104.688c0,16.94-4.118,33.688-11.925,48.688H163.424C155.618,305.5,151.5,288.69,151.5,271.75z"/>
	<rect x="32" y="352.5" width="112" height="15"/>
	<rect x="320" y="384.5" width="144" height="15"/>
	<rect x="112" y="384.5" width="80" height="15"/>
	<rect x="216" y="384.5" width="16" height="15"/>
	<rect x="248" y="384.5" width="16" height="15"/>
	<rect x="280" y="384.5" width="16" height="15"/>
	<rect x="296" y="416.5" width="216" height="15"/>
	<rect y="416.5" width="80" height="15"/>
	<rect y="448.5" width="512" height="15"/>
	<path d="M263.551,48.5h-15.102l-26.583,87h68.268L263.551,48.5z M256,75.12l13.866,45.38h-27.732L256,75.12z"/>
	<path d="M419.377,118.801L408.7,108.122l-80.316,42.722l48.273,48.272L419.377,118.801z M353.321,154.568l41.894-22.283
		l-22.283,41.893L353.321,154.568z"/>
	<path d="M392,305.634l87-26.583v-15.102l-87-26.583V305.634z M407,257.634l45.38,13.866L407,285.366V257.634z"/>
	<path d="M119,237.366l-87,26.583v15.102l87,26.583V237.366z M104,285.366L58.62,271.5L104,257.634V285.366z"/>
	<path d="M183.616,150.844L103.3,108.122l-10.677,10.679l42.721,80.315L183.616,150.844z M158.679,154.568l-19.61,19.609
		l-22.283-41.893L158.679,154.568z"/>
</g>
<g>
</g>
<g>
</g>
<g>
</g>
<g>
</g>
<g>
</g>
<g>
</g>
<g>
</g>
<g>
</g>
<g>
</g>
<g>
</g>
<g>
</g>
<g>
</g>
<g>
</g>
<g>
</g>
<g>
</g>
</svg>
