<?xml version="1.0" encoding="iso-8859-1"?>
<!-- Generator: Adobe Illustrator 19.0.0, SVG Export Plug-In . SVG Version: 6.00 Build 0)  -->
<svg version="1.1" id="Layer_1" xmlns="http://www.w3.org/2000/svg" xmlns:xlink="http://www.w3.org/1999/xlink" x="0px" y="0px"
	 viewBox="0 0 511.5 511.5" style="enable-background:new 0 0 511.5 511.5;" xml:space="preserve">
<g>
	<path d="M175.906,248.537l271-50.813V89.275l-271-50.813v13.93l-73,73V62.091c14-3.374,24.25-15.806,24.25-30.591
		c0-17.369-14.006-31.5-31.375-31.5S64.094,14.131,64.094,31.5c0,14.785,10.813,27.216,23.813,30.591V511.5h15V161.607l73,73
		V248.537z M383.906,92.631l48,9.094v83.551l-48,9.094V92.631z M319.906,80.631l49,9.188v107.363l-49,9.188V80.631z M255.906,68.631
		l49,9.188v131.363l-49,9.188V68.631z M190.906,56.537l50,9.281v155.363l-50,9.281V56.537z M95.906,48
		c-9.098,0-16.5-7.402-16.5-16.5S86.809,15,95.906,15s16.5,7.402,16.5,16.5S105.004,48,95.906,48z M175.906,73.607V136.5h-61.893
		L175.906,73.607z M114.013,151.5h61.893v61.893L114.013,151.5z"/>
	<rect x="191.906" y="288.5" width="16" height="15"/>
	<path d="M351.906,288.5h-128v15h128c17.369,0,31.5-14.381,31.5-31.75s-14.131-31.625-31.5-31.625s-31.5,14.006-31.5,31.375h15
		c0-9.098,7.402-16.5,16.5-16.5s16.5,7.652,16.5,16.75S361.004,288.5,351.906,288.5z"/>
	<path d="M415.906,320.5h-176v15h176c9.098,0,16.5,7.152,16.5,16.25s-7.402,16.375-16.5,16.375s-16.5-7.527-16.5-16.625h-15
		c0,17.369,14.131,31.5,31.5,31.5s31.5-13.881,31.5-31.25S433.275,320.5,415.906,320.5z"/>
	<path d="M303.906,352.5h-128v15h128c9.098,0,16.5,7.152,16.5,16.25s-7.402,16.375-16.5,16.375s-16.5-7.527-16.5-16.625h-15
		c0,17.369,14.131,31.5,31.5,31.5s31.5-13.881,31.5-31.25S321.275,352.5,303.906,352.5z"/>
	<rect x="143.906" y="352.5" width="16" height="15"/>
</g>
<g>
</g>
<g>
</g>
<g>
</g>
<g>
</g>
<g>
</g>
<g>
</g>
<g>
</g>
<g>
</g>
<g>
</g>
<g>
</g>
<g>
</g>
<g>
</g>
<g>
</g>
<g>
</g>
<g>
</g>
</svg>
