<?xml version="1.0" encoding="iso-8859-1"?>
<!-- Generator: Adobe Illustrator 19.0.0, SVG Export Plug-In . SVG Version: 6.00 Build 0)  -->
<svg version="1.1" id="Layer_1" xmlns="http://www.w3.org/2000/svg" xmlns:xlink="http://www.w3.org/1999/xlink" x="0px" y="0px"
	 viewBox="0 0 512 512" style="enable-background:new 0 0 512 512;" xml:space="preserve">
<g>
	<path d="M360.5,256h15c0-65.893-53.607-119.5-119.5-119.5v15C313.622,151.5,360.5,198.379,360.5,256z"/>
	<rect x="216" y="249" width="16" height="15"/>
	<rect x="248" y="249" width="16" height="15"/>
	<rect x="280" y="249" width="16" height="15"/>
	<path d="M256,408.5c-84.089,0-152.5-68.411-152.5-152.5S171.911,103.5,256,103.5c27.25,0,53.989,7.271,77.326,21.028
		c22.666,13.361,41.608,32.461,54.78,55.232l12.984-7.51c-14.462-25.004-35.261-45.974-60.147-60.645
		C315.3,96.49,285.927,88.5,256,88.5c-92.36,0-167.5,75.141-167.5,167.5S163.64,423.5,256,423.5S423.5,348.359,423.5,256h-15
		C408.5,340.089,340.089,408.5,256,408.5z"/>
	<path d="M487.5,240h-15c0,13.51-10.991,24.5-24.5,24.5v15c13.509,0,24.5,10.99,24.5,24.5h15c0-13.51,10.991-24.5,24.5-24.5v-15
		C498.491,264.5,487.5,253.51,487.5,240z M480,280.884c-2.471-3.412-5.472-6.413-8.884-8.884c3.412-2.471,6.413-5.472,8.884-8.884
		c2.471,3.412,5.472,6.413,8.884,8.884C485.472,274.471,482.471,277.472,480,280.884z"/>
	<path d="M448,200.5c-13.509,0-24.5-10.99-24.5-24.5h-15c0,13.51-10.991,24.5-24.5,24.5v15c13.509,0,24.5,10.99,24.5,24.5h15
		c0-13.51,10.991-24.5,24.5-24.5V200.5z M416,216.884c-2.471-3.412-5.472-6.413-8.884-8.884c3.412-2.471,6.413-5.472,8.884-8.884
		c2.471,3.412,5.472,6.413,8.884,8.884C421.472,210.471,418.471,213.472,416,216.884z"/>
	<path d="M55.5,272h-15c0,13.51-10.991,24.5-24.5,24.5v15c13.509,0,24.5,10.99,24.5,24.5h15c0-13.51,10.991-24.5,24.5-24.5v-15
		C66.491,296.5,55.5,285.51,55.5,272z M48,312.884c-2.471-3.412-5.472-6.413-8.884-8.884c3.412-2.471,6.413-5.472,8.884-8.884
		c2.471,3.412,5.472,6.413,8.884,8.884C53.472,306.471,50.471,309.472,48,312.884z"/>
	<path d="M24.5,224h15c0-13.51,10.991-24.5,24.5-24.5v-15c-13.509,0-24.5-10.99-24.5-24.5h-15c0,13.51-10.991,24.5-24.5,24.5v15
		C13.509,199.5,24.5,210.49,24.5,224z M32,183.116c2.471,3.412,5.472,6.413,8.884,8.884c-3.412,2.471-6.413,5.472-8.884,8.884
		c-2.471-3.412-5.472-6.413-8.884-8.884C26.528,189.529,29.529,186.528,32,183.116z"/>
	<path d="M223.5,208c0-12.958-10.542-23.5-23.5-23.5s-23.5,10.542-23.5,23.5s10.542,23.5,23.5,23.5S223.5,220.958,223.5,208z
		 M191.5,208c0-4.686,3.813-8.5,8.5-8.5s8.5,3.814,8.5,8.5s-3.813,8.5-8.5,8.5S191.5,212.686,191.5,208z"/>
	<path d="M216,343.5c12.958,0,23.5-10.542,23.5-23.5s-10.542-23.5-23.5-23.5s-23.5,10.542-23.5,23.5S203.042,343.5,216,343.5z
		 M216,311.5c4.687,0,8.5,3.814,8.5,8.5s-3.813,8.5-8.5,8.5s-8.5-3.814-8.5-8.5S211.313,311.5,216,311.5z"/>
	<path d="M152,232.5c-17.369,0-31.5,14.131-31.5,31.5s14.131,31.5,31.5,31.5c17.369,0,31.5-14.131,31.5-31.5
		S169.369,232.5,152,232.5z M152,280.5c-9.098,0-16.5-7.402-16.5-16.5c0-9.098,7.402-16.5,16.5-16.5c9.098,0,16.5,7.402,16.5,16.5
		C168.5,273.098,161.098,280.5,152,280.5z"/>
</g>
<g>
</g>
<g>
</g>
<g>
</g>
<g>
</g>
<g>
</g>
<g>
</g>
<g>
</g>
<g>
</g>
<g>
</g>
<g>
</g>
<g>
</g>
<g>
</g>
<g>
</g>
<g>
</g>
<g>
</g>
</svg>
