<?xml version="1.0" encoding="iso-8859-1"?>
<!-- Generator: Adobe Illustrator 19.0.0, SVG Export Plug-In . SVG Version: 6.00 Build 0)  -->
<svg version="1.1" id="Layer_1" xmlns="http://www.w3.org/2000/svg" xmlns:xlink="http://www.w3.org/1999/xlink" x="0px" y="0px"
	 viewBox="0 0 511.5 511.5" style="enable-background:new 0 0 511.5 511.5;" xml:space="preserve">
<g>
	<rect x="215.896" y="217" width="16" height="15"/>
	<rect x="247.896" y="217" width="16" height="15"/>
	<rect x="279.896" y="217" width="16" height="15"/>
	<path d="M394.355,177.984c-35.596-34.441-81.459-54.139-131.459-55.959V104h-15v18.026c-49,1.819-95.363,21.518-130.958,55.959
		c-37.307,36.097-58.727,84.495-60.542,136.28c-0.147,4.216,2.493,7.965,6.477,9.329c3.987,1.364,8.359-0.02,10.829-3.443
		c11.021-15.276,24.845-23.531,38.852-23.271c14.439,0.278,28.445,9.53,39.424,26.055c1.765,2.654,4.727,4.238,7.915,4.238
		c3.188,0,6.148-1.584,7.914-4.241c11.166-16.804,25.403-26.059,40.089-26.058c14.686,0,28.674,9.255,39.839,26.061
		c0.126,0.19,0.161,0.363,0.161,0.542V480c0,9.099-7.152,16.5-16.25,16.5s-16.25-7.401-16.25-16.5h-15
		c0,17.369,13.881,31.5,31.25,31.5s31.25-14.131,31.25-31.5V323.475c1-0.179,0.534-0.351,0.66-0.542
		c11.165-16.806,25.527-26.061,40.214-26.061c14.686-0.001,28.985,9.254,40.152,26.061c1.766,2.654,4.754,4.238,7.942,4.238
		c3.188,0,6.161-1.584,7.929-4.241c10.978-16.521,24.9-25.773,39.34-26.052c13.99-0.232,27.763,7.995,38.763,23.272v0.002
		c3,3.424,6.894,4.808,10.882,3.441c3.983-1.365,6.475-5.114,6.326-9.328C453.291,262.48,431.663,214.082,394.355,177.984z
		 M152.893,300.39c-11.788-11.759-25.586-18.229-40.035-18.508c-14.316-0.261-28.146,5.548-40.066,16.66
		c5.131-41.698,24.257-80.2,54.826-109.777c25.404-24.579,56.731-41.035,90.648-48.046c-13.897,9.494-26.451,24.349-36.877,44.002
		C165.068,215.482,155.15,256.002,152.893,300.39z M303.644,281.873c-14.603,0-28.748,6.294-40.748,18.008V248h-15v51.882
		c-10.985-11.698-25.604-17.989-40.188-18.007c-14.345,0.018-28,6.103-39.797,17.439c2.311-41.483,11.353-79.114,26.447-107.564
		c14.701-27.708,33.538-44.319,53.538-47.626V200h15v-55.876c21,3.307,39.306,19.918,54.007,47.626
		c15.094,28.449,24.354,66.08,26.666,107.564C331.753,287.961,318.013,281.872,303.644,281.873z M398.934,281.882
		c-14.449,0.279-28.247,6.751-40.035,18.509c-2.257-44.388-12.175-84.908-28.496-115.67c-10.427-19.653-22.98-34.508-36.877-44.002
		c33.917,7.011,65.244,23.466,90.648,48.046c30.567,29.575,49.693,68.08,54.825,109.777
		C427.081,287.431,413.269,281.611,398.934,281.882z"/>
	<path d="M207.647,281.873c0.02,0,0.041,0.002,0.061,0.002c0.021,0,0.042-0.002,0.063-0.002
		C207.772,281.873,207.645,281.873,207.647,281.873z"/>
	<rect x="87.896" width="15" height="184"/>
	<rect x="127.896" width="15" height="136"/>
	<rect x="167.896" y="96" width="15" height="16"/>
	<rect x="167.896" width="15" height="80"/>
	<rect x="207.896" width="15" height="104"/>
	<rect x="247.896" width="15" height="88"/>
	<rect x="287.896" width="15" height="104"/>
	<rect x="327.896" width="15" height="112"/>
	<rect x="367.896" y="120" width="15" height="16"/>
	<rect x="367.896" width="15" height="104"/>
	<rect x="407.896" width="15" height="184"/>
</g>
<g>
</g>
<g>
</g>
<g>
</g>
<g>
</g>
<g>
</g>
<g>
</g>
<g>
</g>
<g>
</g>
<g>
</g>
<g>
</g>
<g>
</g>
<g>
</g>
<g>
</g>
<g>
</g>
<g>
</g>
</svg>
