<?xml version="1.0" encoding="iso-8859-1"?>
<!-- Generator: Adobe Illustrator 19.0.0, SVG Export Plug-In . SVG Version: 6.00 Build 0)  -->
<svg version="1.1" id="Layer_1" xmlns="http://www.w3.org/2000/svg" xmlns:xlink="http://www.w3.org/1999/xlink" x="0px" y="0px"
	 viewBox="0 0 511 511" style="enable-background:new 0 0 511 511;" xml:space="preserve">
<g>
	<rect x="279.5" y="280.5" width="16" height="15"/>
	<rect x="311.5" y="280.5" width="16" height="15"/>
	<rect x="343.5" y="280.5" width="16" height="15"/>
	<path d="M15,199.75c0-28.693,21.505-52.567,49.241-56.143c0.511,8.763,1.855,17.378,4.029,25.825l14.526-3.77
		C80.277,155.877,79,145.724,79,135.515c0-66.444,54.056-120.508,120.5-120.508c34.551,0,67.491,14.865,90.374,40.79l11.246-9.929
		C275.391,16.719,238.352,0,199.5,0C127.176,0,67.907,56.957,64.187,128.371C28.184,132.046,0,162.793,0,199.75
		c0,39.425,32.075,71.75,71.5,71.75h40v-15h-40C40.346,256.5,15,230.904,15,199.75z"/>
	<path d="M199.5,63V48c-48.248,0-87.5,39.252-87.5,87.5h15C127,95.523,159.523,63,199.5,63z"/>
	<path d="M460.699,224.251C462.216,216.12,463,207.834,463,199.5C463,124.785,402.215,64,327.5,64
		c-72.324,0-131.593,56.957-135.313,128.372C156.184,196.045,128,226.793,128,263.75c0,39.425,32.075,71.75,71.5,71.75h256
		c30.603,0,55.5-25.147,55.5-55.75C511,250.901,488.872,226.882,460.699,224.251z M455.5,320.5h-256
		c-31.154,0-56.5-25.596-56.5-56.75c0-28.693,21.505-52.567,49.24-56.143c0.511,8.763,1.855,17.378,4.029,25.825l14.526-3.77
		c-2.519-9.785-3.796-19.938-3.796-30.146c0-66.444,54.056-120.508,120.5-120.508S448,133.06,448,199.503
		c0,27.702-9.138,53.741-26.426,75.308l11.703,9.381c10.767-13.431,18.816-28.81,23.804-45.152
		C478.682,239.875,496,257.948,496,279.75C496,302.081,477.832,320.5,455.5,320.5z"/>
	<path d="M240,199.5h15c0-39.977,32.523-72.5,72.5-72.5v-15C279.252,112,240,151.252,240,199.5z"/>
	<path d="M279,407.5c0-9.881-12.88-35.737-16.828-43.426l-6.672-12.995l-6.672,12.995C244.88,371.763,232,397.618,232,407.5
		c0,12.958,10.542,23.5,23.5,23.5C268.458,431,279,420.458,279,407.5z M255.5,416c-4.687,0-8.5-3.813-8.5-8.5
		c0.015-2.931,3.769-12.487,8.501-22.814c4.732,10.324,8.485,19.88,8.499,22.814C264,412.187,260.186,416,255.5,416z"/>
	<path d="M191,407.5c0-9.881-12.88-35.737-16.828-43.426l-6.672-12.995l-6.672,12.995C156.88,371.763,144,397.618,144,407.5
		c0,12.958,10.542,23.5,23.5,23.5S191,420.458,191,407.5z M167.5,416c-4.687,0-8.5-3.813-8.5-8.5
		c0.015-2.931,3.769-12.487,8.501-22.814c4.731,10.324,8.484,19.88,8.499,22.814C176,412.187,172.187,416,167.5,416z"/>
	<path d="M367,407.5c0-9.881-12.88-35.737-16.828-43.426l-6.672-12.995l-6.672,12.995C332.88,371.763,320,397.618,320,407.5
		c0,12.958,10.542,23.5,23.5,23.5S367,420.458,367,407.5z M343.5,416c-4.686,0-8.5-3.813-8.5-8.5
		c0.015-2.931,3.769-12.487,8.501-22.814c4.731,10.324,8.484,19.88,8.499,22.814C352,412.187,348.186,416,343.5,416z"/>
	<path d="M295.5,431.079l-6.672,12.995C284.88,451.763,272,477.618,272,487.5c0,12.958,10.542,23.5,23.5,23.5s23.5-10.542,23.5-23.5
		c0-9.881-12.88-35.737-16.828-43.426L295.5,431.079z M295.5,496c-4.686,0-8.5-3.813-8.5-8.5c0.015-2.931,3.769-12.487,8.501-22.814
		c4.731,10.324,8.484,19.88,8.499,22.814C304,492.187,300.186,496,295.5,496z"/>
	<path d="M207.5,431.079l-6.672,12.995C196.88,451.763,184,477.618,184,487.5c0,12.958,10.542,23.5,23.5,23.5s23.5-10.542,23.5-23.5
		c0-9.881-12.88-35.737-16.828-43.426L207.5,431.079z M207.5,496c-4.687,0-8.5-3.813-8.5-8.5c0.015-2.931,3.769-12.487,8.501-22.814
		c4.731,10.324,8.484,19.88,8.499,22.814C216,492.187,212.187,496,207.5,496z"/>
	<path d="M383.5,431.079l-6.672,12.995C372.88,451.763,360,477.618,360,487.5c0,12.958,10.542,23.5,23.5,23.5s23.5-10.542,23.5-23.5
		c0-9.881-12.88-35.737-16.828-43.426L383.5,431.079z M383.5,496c-4.686,0-8.5-3.813-8.5-8.5c0.015-2.931,3.769-12.487,8.501-22.814
		c4.731,10.324,8.484,19.88,8.499,22.814C392,492.187,388.186,496,383.5,496z"/>
</g>
<g>
</g>
<g>
</g>
<g>
</g>
<g>
</g>
<g>
</g>
<g>
</g>
<g>
</g>
<g>
</g>
<g>
</g>
<g>
</g>
<g>
</g>
<g>
</g>
<g>
</g>
<g>
</g>
<g>
</g>
</svg>
