<?xml version="1.0" encoding="iso-8859-1"?>
<!-- Generator: Adobe Illustrator 19.0.0, SVG Export Plug-In . SVG Version: 6.00 Build 0)  -->
<svg version="1.1" id="Layer_1" xmlns="http://www.w3.org/2000/svg" xmlns:xlink="http://www.w3.org/1999/xlink" x="0px" y="0px"
	 viewBox="0 0 511.5 511.5" style="enable-background:new 0 0 511.5 511.5;" xml:space="preserve">
<g>
	<path d="M330.446,332.803L344,346.606v26.787l-26.945-27.195l-10.732,10.607l5.677,5.802V496.5h-65v-104h-79v104h-65V362.606
		l104.75-104.5l50.823,50.698l10.419-10.607L215,244.394v-26.787l27.445,27.195l10.731-10.607l-45.489-45.301L143,253.394V224.5H80
		v91.894l-24,24v69.213l32-32V511.5h239V377.607l32,32v-69.213l-18.073-18.198L330.446,332.803z M95,239.5h33v28.894l-33,33V239.5z
		 M71,373.394v-26.787l129-129v26.787L71,373.394z M232,496.5h-49v-89h49V496.5z"/>
	<rect x="296" y="120.5" width="16" height="15"/>
	<rect x="328" y="120.5" width="16" height="15"/>
	<rect x="360" y="120.5" width="16" height="15"/>
	<path d="M344,40c-26.191,0-47.5,21.309-47.5,47.5h15c0-17.921,14.58-32.5,32.5-32.5V40z"/>
	<path d="M427.96,112.258c2.336-7.95,3.54-16.258,3.54-24.758C431.5,39.252,392.248,0,344,0c-40.645,0-74.905,27.857-84.693,65.481
		C234.803,71.239,216.5,93.515,216.5,119.75c0,30.602,24.897,55.75,55.5,55.75h16v-15h-16c-22.332,0-40.5-18.418-40.5-40.75
		c0-16.911,10.422-31.551,25.177-37.605c-0.113,1.813-0.177,3.577-0.177,5.418c0,5.886,0.589,11.739,1.75,17.461l14.7-3
		c-0.962-4.741-1.45-9.63-1.45-14.516c0-39.976,32.523-72.504,72.5-72.504s72.5,32.521,72.5,72.498
		c0,15.838-5.013,30.88-14.496,43.502l11.992,9.259c3.106-4.134,5.8-8.763,8.099-12.763H424c9.098,0,16.5,7.402,16.5,16.5
		s-7.402,16.5-16.5,16.5h-32v15h32c17.369,0,31.5-14.381,31.5-31.75C455.5,127.723,443.465,114.212,427.96,112.258z"/>
	<path d="M380.135,160.5h-72.771l-47.5,95h56l-40,80h23.406l117.929-127h-61.064L380.135,160.5z M382.801,223.5l-74.025,79.72
		l31.36-62.72h-56l32.5-65h39.229l-24,48H382.801z"/>
	<path d="M176.5,335.5c0,17.369,14.131,31.5,31.5,31.5s31.5-14.131,31.5-31.5S225.369,304,208,304S176.5,318.131,176.5,335.5z
		 M224.5,335.5c0,9.098-7.402,16.5-16.5,16.5s-16.5-7.402-16.5-16.5S198.902,319,208,319S224.5,326.402,224.5,335.5z"/>
</g>
<g>
</g>
<g>
</g>
<g>
</g>
<g>
</g>
<g>
</g>
<g>
</g>
<g>
</g>
<g>
</g>
<g>
</g>
<g>
</g>
<g>
</g>
<g>
</g>
<g>
</g>
<g>
</g>
<g>
</g>
</svg>
