<?xml version="1.0" encoding="iso-8859-1"?>
<!-- Generator: Adobe Illustrator 19.0.0, SVG Export Plug-In . SVG Version: 6.00 Build 0)  -->
<svg version="1.1" id="Layer_1" xmlns="http://www.w3.org/2000/svg" xmlns:xlink="http://www.w3.org/1999/xlink" x="0px" y="0px"
	 viewBox="0 0 511.469 511.469" style="enable-background:new 0 0 511.469 511.469;" xml:space="preserve">
<g>
	<path d="M378.681,284.772l10.607-10.357l-11.196-10.946h21.893v-15h-21.893l11.196-11.446l-10.607-10.732l-18.697,18.634
		L346.591,231.5l18.697-18.712l-10.857-10.615l-11.446,11.188v-21.893h-15v21.893l-10.946-11.196l-10.482,10.607l18.759,18.697
		l-13.361,13.393l-18.681-18.697l-10.6,10.857l11.204,11.446h-21.893v15h21.893l-11.196,10.946l10.607,10.482l18.697-18.759
		l13.393,13.361l-18.697,18.681l10.357,10.6l10.946-11.204v21.893h15v-21.893l11.446,11.196l10.732-10.607l-18.634-18.697
		l13.424-13.393L378.681,284.772z M335.984,268.862l-13.394-13.394l13.394-13.394l13.394,13.394L335.984,268.862z"/>
	<path d="M343.984,373.362l-34.946-35.197l-10.732,10.607l13.679,13.803v133.893h-65v-104h-79v104h-65V362.575l104.75-104.5
		l42.822,42.697l10.419-10.607l-45.991-45.803v-26.787l35.447,35.197l10.732-10.607l-53.491-53.303l-64.688,64.5v-28.894h-63v91.894
		l-24,24v69.213l32-32v133.894h239V377.576l32,32v-66.106h-15V373.362z M94.984,239.469h33v28.894l-33,33V239.469z M70.984,373.362
		v-26.787l129-129v26.787L70.984,373.362z M231.984,496.469h-49v-89h49V496.469z"/>
	<path d="M176.484,335.469c0,17.369,14.131,31.5,31.5,31.5s31.5-14.131,31.5-31.5c0-17.369-14.131-31.5-31.5-31.5
		S176.484,318.1,176.484,335.469z M224.484,335.469c0,9.098-7.402,16.5-16.5,16.5s-16.5-7.402-16.5-16.5
		c0-9.098,7.402-16.5,16.5-16.5S224.484,326.371,224.484,335.469z"/>
	<rect x="295.984" y="120.469" width="16" height="15"/>
	<rect x="327.984" y="120.469" width="16" height="15"/>
	<rect x="359.984" y="120.469" width="16" height="15"/>
	<path d="M343.984,54.969v-15c-26.191,0-47.5,21.309-47.5,47.5h15C311.484,69.548,326.063,54.969,343.984,54.969z"/>
	<path d="M271.984,175.469h152c17.369,0,31.5-14.381,31.5-31.75c0-16.027-12.035-29.413-27.54-31.367
		c2.336-7.95,3.54-16.321,3.54-24.82c0-48.248-39.252-87.531-87.5-87.531c-40.646,0-74.905,27.842-84.693,65.466
		c-24.504,5.757-42.807,28.026-42.807,54.26C216.484,150.329,241.381,175.469,271.984,175.469z M256.661,81.988
		c-0.113,1.813-0.177,3.639-0.177,5.48c0,5.887,0.589,11.773,1.751,17.492l14.699-2.984c-0.962-4.74-1.45-9.621-1.45-14.508
		c0-39.977,32.523-72.5,72.5-72.5s72.5,32.523,72.5,72.5c0,15.838-5.013,30.881-14.496,43.503l11.992,9.26
		c3.106-4.134,5.8-8.763,8.099-12.763h1.905c9.098,0,16.5,7.402,16.5,16.5s-7.402,16.5-16.5,16.5h-152
		c-22.331,0-40.5-18.418-40.5-40.75C231.484,102.808,241.906,88.043,256.661,81.988z"/>
	<path d="M411.984,299.969c-12.958,0-23.5,10.542-23.5,23.5c0,12.958,10.542,23.5,23.5,23.5s23.5-10.542,23.5-23.5
		C435.484,310.511,424.942,299.969,411.984,299.969z M411.984,331.969c-4.686,0-8.5-3.813-8.5-8.5c0-4.686,3.814-8.5,8.5-8.5
		s8.5,3.814,8.5,8.5C420.484,328.155,416.671,331.969,411.984,331.969z"/>
	<path d="M431.984,191.969c-12.958,0-23.5,10.542-23.5,23.5c0,12.958,10.542,23.5,23.5,23.5s23.5-10.542,23.5-23.5
		C455.484,202.511,444.942,191.969,431.984,191.969z M431.984,223.969c-4.686,0-8.5-3.814-8.5-8.5c0-4.687,3.814-8.5,8.5-8.5
		s8.5,3.813,8.5,8.5C440.484,220.155,436.671,223.969,431.984,223.969z"/>
	<path d="M279.984,342.969c12.958,0,23.5-10.542,23.5-23.5c0-12.958-10.542-23.5-23.5-23.5s-23.5,10.542-23.5,23.5
		C256.484,332.427,267.026,342.969,279.984,342.969z M279.984,310.969c4.686,0,8.5,3.814,8.5,8.5c0,4.687-3.814,8.5-8.5,8.5
		s-8.5-3.813-8.5-8.5C271.484,314.782,275.298,310.969,279.984,310.969z"/>
</g>
<g>
</g>
<g>
</g>
<g>
</g>
<g>
</g>
<g>
</g>
<g>
</g>
<g>
</g>
<g>
</g>
<g>
</g>
<g>
</g>
<g>
</g>
<g>
</g>
<g>
</g>
<g>
</g>
<g>
</g>
</svg>
