<?xml version="1.0" encoding="iso-8859-1"?>
<!-- Generator: Adobe Illustrator 19.0.0, SVG Export Plug-In . SVG Version: 6.00 Build 0)  -->
<svg version="1.1" id="Layer_1" xmlns="http://www.w3.org/2000/svg" xmlns:xlink="http://www.w3.org/1999/xlink" x="0px" y="0px"
	 viewBox="0 0 512 512" style="enable-background:new 0 0 512 512;" xml:space="preserve">
<g>
	<path d="M240,135c2.506,0,5.043,0.078,7.54,0.231l0.922-14.971C245.659,120.088,242.813,120,240,120
		c-74.715,0-135.5,60.785-135.5,135.5S165.285,391,240,391c2.813,0,5.659-0.088,8.462-0.261l-0.922-14.971
		c-2.497,0.153-5.034,0.231-7.54,0.231c-66.444,0-120.5-54.056-120.5-120.5S173.556,135,240,135z"/>
	<path d="M247.551,16.5h-15.102l-26.583,87h68.268L247.551,16.5z M240,43.12l13.866,45.38h-27.732L240,43.12z"/>
	<path d="M232.449,495.5h15.102l26.583-87h-68.268L232.449,495.5z M240,468.88l-13.866-45.38h27.732L240,468.88z"/>
	<path d="M65.309,419.513l10.679,10.679l80.315-42.722l-48.272-48.271L65.309,419.513z M131.364,383.745l-41.893,22.283
		l22.283-41.893L131.364,383.745z"/>
	<path d="M87,221.366L0,247.949v15.102l87,26.583V221.366z M72,269.366L26.62,255.5L72,241.634V269.366z"/>
	<path d="M156.302,123.53L75.987,80.809L65.309,91.487l42.722,80.315L156.302,123.53z M131.364,127.255l-19.609,19.609
		l-22.283-41.893L131.364,127.255z"/>
	<rect x="288" y="248.5" width="16" height="15"/>
	<rect x="320" y="248.5" width="16" height="15"/>
	<rect x="352" y="248.5" width="16" height="15"/>
	<path d="M303.5,207.5c0-12.958-10.542-23.5-23.5-23.5s-23.5,10.542-23.5,23.5S267.042,231,280,231S303.5,220.458,303.5,207.5z
		 M271.5,207.5c0-4.686,3.814-8.5,8.5-8.5s8.5,3.814,8.5,8.5s-3.814,8.5-8.5,8.5S271.5,212.186,271.5,207.5z"/>
	<path d="M304,335c12.958,0,23.5-10.542,23.5-23.5S316.958,288,304,288s-23.5,10.542-23.5,23.5S291.042,335,304,335z M304,303
		c4.686,0,8.5,3.814,8.5,8.5s-3.814,8.5-8.5,8.5s-8.5-3.814-8.5-8.5S299.314,303,304,303z"/>
	<path d="M224.5,263.5c0,12.958,10.542,23.5,23.5,23.5c12.958,0,23.5-10.542,23.5-23.5c0-12.958-10.542-23.5-23.5-23.5
		C235.042,240,224.5,250.542,224.5,263.5z M256.5,263.5c0,4.686-3.814,8.5-8.5,8.5s-8.5-3.814-8.5-8.5s3.814-8.5,8.5-8.5
		S256.5,258.814,256.5,263.5z"/>
	<path d="M436.39,202.784c8.036,16.49,12.11,34.226,12.11,52.716c0,66.444-54.056,120.5-120.5,120.5s-120.5-54.056-120.5-120.5
		S261.556,135,328,135c21.188,0,42.021,5.573,60.247,16.118l7.512-12.984C375.252,126.271,351.822,120,328,120
		c-74.715,0-135.5,60.785-135.5,135.5S253.285,391,328,391s135.5-60.785,135.5-135.5c0-20.786-4.585-40.733-13.626-59.286
		L436.39,202.784z"/>
	<path d="M408.5,255.5h15c0-52.659-42.841-95.5-95.5-95.5v15C372.388,175,408.5,211.112,408.5,255.5z"/>
	<path d="M392,175c13.51,0,24.5,10.99,24.5,24.5h15c0-13.51,10.99-24.5,24.5-24.5v-15c-13.51,0-24.5-10.99-24.5-24.5h-15
		c0,13.51-10.99,24.5-24.5,24.5V175z M424,158.616c2.471,3.412,5.472,6.413,8.884,8.884c-3.412,2.471-6.413,5.472-8.884,8.884
		c-2.471-3.412-5.472-6.413-8.884-8.884C418.528,165.029,421.529,162.028,424,158.616z"/>
	<path d="M487.5,87.5h-15c0,13.51-10.99,24.5-24.5,24.5v15c13.51,0,24.5,10.99,24.5,24.5h15c0-13.51,10.99-24.5,24.5-24.5v-15
		C498.49,112,487.5,101.01,487.5,87.5z M480,128.384c-2.471-3.412-5.472-6.413-8.884-8.884c3.412-2.471,6.413-5.472,8.884-8.884
		c2.471,3.412,5.472,6.413,8.884,8.884C485.472,121.971,482.471,124.972,480,128.384z"/>
</g>
<g>
</g>
<g>
</g>
<g>
</g>
<g>
</g>
<g>
</g>
<g>
</g>
<g>
</g>
<g>
</g>
<g>
</g>
<g>
</g>
<g>
</g>
<g>
</g>
<g>
</g>
<g>
</g>
<g>
</g>
</svg>
