<?xml version="1.0" encoding="iso-8859-1"?>
<!-- Generator: Adobe Illustrator 19.0.0, SVG Export Plug-In . SVG Version: 6.00 Build 0)  -->
<svg version="1.1" id="Layer_1" xmlns="http://www.w3.org/2000/svg" xmlns:xlink="http://www.w3.org/1999/xlink" x="0px" y="0px"
	 viewBox="0 0 510.75 510.75" style="enable-background:new 0 0 510.75 510.75;" xml:space="preserve">
<g>
	<rect x="183.625" y="416" width="16" height="15"/>
	<rect x="215.625" y="416" width="16" height="15"/>
	<rect x="247.625" y="416" width="16" height="15"/>
	<path d="M295.625,384h-209V111h273v240h15V32h-32V0h-47v32h-17V0h-47v32h-17V0h-47v32h-17V0h-47v32h-32v367h224V384z M310.625,15
		h17v41h-17V15z M246.625,15h17v41h-17V15z M182.625,15h17v41h-17V15z M118.625,15h17v41h-17V15z M86.625,47h17v24h47V47h17v24h47
		V47h17v24h47V47h17v24h47V47h17v49h-273V47z"/>
	<path d="M326.625,351V144h-207v207H326.625z M278.625,159h33v33h-33V159z M278.625,207h33v33h-33V207z M278.625,255h33v33h-33V255z
		 M278.625,303h33v33h-33V303z M230.625,159h33v33h-33V159z M230.625,207h33v33h-33V207z M230.625,255h33v33h-33V255z M230.625,303
		h33v33h-33V303z M182.625,159h33v33h-33V159z M182.625,207h33v33h-33V207z M182.625,255h33v33h-33V255z M182.625,303h33v33h-33V303
		z M134.625,159h33v33h-33V159z M134.625,207h33v33h-33V207z M134.625,255h33v33h-33V255z M134.625,303h33v33h-33V303z"/>
	<rect x="71.625" y="416" width="96" height="15"/>
	<path d="M367.625,367.5c-39.425,0-71.5,32.325-71.5,71.75c0,2.878,0.191,5.75,0.523,8.75H71.625v15h228.487
		c9.744,27,36.32,47.75,67.513,47.75c39.425,0,71.5-32.2,71.5-71.625S407.05,367.5,367.625,367.5z M367.625,495.5
		c-31.154,0-56.5-25.346-56.5-56.5s25.346-56.5,56.5-56.5s56.5,25.346,56.5,56.5S398.779,495.5,367.625,495.5z"/>
	<polygon points="374.625,407 359.625,407 359.625,451.014 387.215,469.24 395.41,456.76 374.625,442.986 	"/>
</g>
<g>
</g>
<g>
</g>
<g>
</g>
<g>
</g>
<g>
</g>
<g>
</g>
<g>
</g>
<g>
</g>
<g>
</g>
<g>
</g>
<g>
</g>
<g>
</g>
<g>
</g>
<g>
</g>
<g>
</g>
</svg>
