<?xml version="1.0" encoding="iso-8859-1"?>
<!-- Generator: Adobe Illustrator 19.0.0, SVG Export Plug-In . SVG Version: 6.00 Build 0)  -->
<svg version="1.1" id="Layer_1" xmlns="http://www.w3.org/2000/svg" xmlns:xlink="http://www.w3.org/1999/xlink" x="0px" y="0px"
	 viewBox="0 0 510.531 510.531" style="enable-background:new 0 0 510.531 510.531;" xml:space="preserve">
<g>
	<rect x="191.016" y="424" width="16" height="15"/>
	<rect x="223.016" y="424" width="16" height="15"/>
	<rect x="255.016" y="424" width="16" height="15"/>
	<path d="M231.016,495.5c-75.267,0-136.5-61.233-136.5-136.5c0-37.096,14.657-71.616,39.896-96.74
		c2.837,2.868,5.604,5.592,8.604,8.179V391h15v-24h9v24h15v-24h9v24h15v-90.744c9,1.478,16.47,2.244,24.75,2.244
		c36.263,0,71.068-14.569,96.451-40.212c6.455,6.439,12.368,13.532,17.491,21.237l12.523-8.305
		c-14.902-22.414-35.234-40.267-59.169-52.082c12.749-15.205,20.447-34.539,20.447-55.888c0-17.55-5.116-34.25-14.641-48.25h39.149
		v-15h-49V0h-127v104h-48v15h39.161c-9.528,14-14.661,30.751-14.661,48.25c0,21.349,7.69,40.809,20.439,56.014
		c-51.573,25.439-84.439,77.752-84.439,135.799c0,83.537,67.962,151.469,151.5,151.469c50.856,0,98.051-25.332,126.246-67.736
		l-12.491-8.313C319.363,472.694,276.838,495.5,231.016,495.5z M191.016,352h-33v-17h33V352z M191.016,320h-33v-38.551
		c11,6.506,22,11.607,33,15.152V320z M182.016,15h97v57h-97V15z M182.016,87h97v17h-97V87z M158.516,167.313
		c0-18.064,6.596-35.313,18.622-48.313h107.75c12.037,13,18.628,30.128,18.628,48.25c0,39.977-32.523,72.375-72.5,72.375
		C191.039,239.625,158.516,207.289,158.516,167.313z M175.266,234.39c15.149,12.554,34.583,20.11,55.749,20.11
		c21.167,0,40.601-7.556,55.751-20.111c10.571,4.734,20.293,10.746,29.242,17.89c-22.525,22.467-53.253,35.221-85.243,35.221
		c-26.356,0-51.75-8.66-72.75-24.271V263h0.197c-4.328-3.28-8.45-6.865-12.332-10.738
		C154.753,245.193,164.595,239.167,175.266,234.39z"/>
	<path d="M431.016,352h-21.893l11.196-11.446l-10.606-10.732l-18.697,18.635l-13.393-13.425l18.697-18.712l-10.856-10.615
		l-11.447,11.189V295h-15v21.893l-10.947-11.197l-10.481,10.607L356.346,335l-13.362,13.394l-18.681-18.697l-10.599,10.857
		L324.909,352h-21.893v15h21.893l-11.196,10.946l10.606,10.482l18.697-18.76l13.393,13.362l-18.697,18.681l10.356,10.6
		l10.947-11.205V423h15v-21.893l11.447,11.197l10.731-10.607L377.56,383l13.424-13.394l18.713,18.697l10.614-10.357L409.123,367
		h21.893V352z M367.016,372.394L353.622,359l13.394-13.394L380.409,359L367.016,372.394z"/>
</g>
<g>
</g>
<g>
</g>
<g>
</g>
<g>
</g>
<g>
</g>
<g>
</g>
<g>
</g>
<g>
</g>
<g>
</g>
<g>
</g>
<g>
</g>
<g>
</g>
<g>
</g>
<g>
</g>
<g>
</g>
</svg>
