<?xml version="1.0" encoding="iso-8859-1"?>
<!-- Generator: Adobe Illustrator 19.0.0, SVG Export Plug-In . SVG Version: 6.00 Build 0)  -->
<svg version="1.1" id="Layer_1" xmlns="http://www.w3.org/2000/svg" xmlns:xlink="http://www.w3.org/1999/xlink" x="0px" y="0px"
	 viewBox="0 0 512 512" style="enable-background:new 0 0 512 512;" xml:space="preserve">
<g>
	<path d="M452.117,312.5l-55.318-87.179l-55.201-15.898L293.904,90.38L225.77,56.5h-14.53l-64.769,137.384l-40.03,16.137
		L59.201,312.5H0v15h512v-15H452.117z M75.722,312.5l41.836-90.895l39.97-16.113L217.39,78.224l37.74,50.582L195.436,239.5h62.839
		l19.829,73H75.722z M293.656,312.5l-23.931-88h-49.161l52.307-97.024l-37.038-49.674l46.263,23.131l48.307,120.769l56.799,16.477
		l47.137,74.321H293.656z"/>
	<rect x="32" y="344.5" width="112" height="15"/>
	<rect x="320" y="376.5" width="144" height="15"/>
	<rect x="112" y="376.5" width="80" height="15"/>
	<rect x="216" y="376.5" width="16" height="15"/>
	<rect x="248" y="376.5" width="16" height="15"/>
	<rect x="280" y="376.5" width="16" height="15"/>
	<rect x="296" y="408.5" width="216" height="15"/>
	<rect y="408.5" width="80" height="15"/>
	<rect y="440.5" width="512" height="15"/>
</g>
<g>
</g>
<g>
</g>
<g>
</g>
<g>
</g>
<g>
</g>
<g>
</g>
<g>
</g>
<g>
</g>
<g>
</g>
<g>
</g>
<g>
</g>
<g>
</g>
<g>
</g>
<g>
</g>
<g>
</g>
</svg>
