<?xml version="1.0" encoding="iso-8859-1"?>
<!-- Generator: Adobe Illustrator 19.0.0, SVG Export Plug-In . SVG Version: 6.00 Build 0)  -->
<svg version="1.1" id="Layer_1" xmlns="http://www.w3.org/2000/svg" xmlns:xlink="http://www.w3.org/1999/xlink" x="0px" y="0px"
	 viewBox="0 0 511.5 511.5" style="enable-background:new 0 0 511.5 511.5;" xml:space="preserve">
<g>
	<path d="M184,199.25v-15c-39.425,0-71.5,32.075-71.5,71.5h15C127.5,224.596,152.846,199.25,184,199.25z"/>
	<path d="M79.5,255.75c0-57.622,46.879-104.5,104.5-104.5c24.552,0,48.409,8.683,67.177,24.449l9.648-11.485
		C239.359,146.181,212.076,136.25,184,136.25c-65.893,0-119.5,53.607-119.5,119.5c0,36.838,16.61,71.061,45.571,93.893l9.287-11.779
		C94.027,317.894,79.5,287.964,79.5,255.75z"/>
	<path d="M461.199,328.501c1.517-8.131,2.301-16.417,2.301-24.751c0-74.715-60.785-135.5-135.5-135.5
		c-72.324,0-131.593,56.957-135.313,128.371C156.684,300.296,128.5,331.043,128.5,368c0,39.425,32.075,71.75,71.5,71.75h256
		c30.603,0,55.5-25.147,55.5-55.75C511.5,355.151,489.372,331.132,461.199,328.501z M456,424.75H200
		c-31.154,0-56.5-25.596-56.5-56.75c0-28.693,21.505-52.567,49.24-56.143c0.511,8.762,1.855,17.376,4.028,25.824l14.527-3.77
		c-2.519-9.787-3.796-19.94-3.796-30.147c0-66.444,54.056-120.508,120.5-120.508s120.5,54.052,120.5,120.496
		c0,27.702-9.138,53.741-26.426,75.308l11.703,9.381c10.767-13.431,18.816-28.81,23.804-45.152
		c21.601,0.835,38.919,18.908,38.919,40.71C496.5,406.332,478.332,424.75,456,424.75z"/>
	<path d="M240.5,303.75h15c0-39.977,32.523-72.5,72.5-72.5v-15C279.752,216.25,240.5,255.502,240.5,303.75z"/>
	<rect x="280" y="384.75" width="16" height="15"/>
	<rect x="312" y="384.75" width="16" height="15"/>
	<rect x="344" y="384.75" width="16" height="15"/>
	<rect y="248.75" width="48" height="15"/>
	<rect x="176" y="71.75" width="15" height="48"/>
	<rect x="292.5" y="111.466" transform="matrix(0.7071 0.7071 -0.7071 0.7071 186.6715 -171.1949)" width="15" height="56.569"/>
	<rect x="60.5" y="343.466" transform="matrix(-0.7071 -0.7071 0.7071 -0.7071 -146.769 682.7103)" width="15" height="56.569"/>
	<rect x="39.716" y="132.25" transform="matrix(0.7071 0.7071 -0.7071 0.7071 118.7349 -7.1514)" width="56.569" height="15"/>
</g>
<g>
</g>
<g>
</g>
<g>
</g>
<g>
</g>
<g>
</g>
<g>
</g>
<g>
</g>
<g>
</g>
<g>
</g>
<g>
</g>
<g>
</g>
<g>
</g>
<g>
</g>
<g>
</g>
<g>
</g>
</svg>
