<?xml version="1.0" encoding="iso-8859-1"?>
<!-- Generator: Adobe Illustrator 19.0.0, SVG Export Plug-In . SVG Version: 6.00 Build 0)  -->
<svg version="1.1" id="Layer_1" xmlns="http://www.w3.org/2000/svg" xmlns:xlink="http://www.w3.org/1999/xlink" x="0px" y="0px"
	 viewBox="0 0 511 511" style="enable-background:new 0 0 511 511;" xml:space="preserve">
<g>
	<rect x="216" y="464" width="16" height="15"/>
	<rect x="248" y="464" width="16" height="15"/>
	<rect x="280" y="464" width="16" height="15"/>
	<path d="M144,0v511h223V0H144z M352,496H159V15h193V496z"/>
	<path d="M232,357.71c-14,8.384-23.75,24.092-23.75,41.29c0,26.191,21.434,47.5,47.625,47.5s47.313-21.309,47.313-47.5
		c0-17.2-9.188-32.91-24.188-41.292V64h-47v16h-48v15h48v17h-24v15h24v17h-48v15h48v17h-24v15h24v17h-48v15h48v17h-24v15h24v17h-48
		v15h48v17h-24v15h24v17h-48v15h48V357.71z M247,79h17v225h-17V79z M242.753,369.201l4.247-1.966V319h17v48.235l4.748,1.965
		c11.847,5.174,19.752,16.871,19.752,29.8c0,17.921-14.579,32.5-32.5,32.5s-32.5-14.579-32.5-32.5
		C223.5,386.074,230.905,374.378,242.753,369.201z"/>
	<path d="M311,79h17V64h-17v-9h17V40h-20c-6.341,0-12,4.659-12,11v44h15V79z"/>
</g>
<g>
</g>
<g>
</g>
<g>
</g>
<g>
</g>
<g>
</g>
<g>
</g>
<g>
</g>
<g>
</g>
<g>
</g>
<g>
</g>
<g>
</g>
<g>
</g>
<g>
</g>
<g>
</g>
<g>
</g>
</svg>
