<?xml version="1.0" encoding="iso-8859-1"?>
<!-- Generator: Adobe Illustrator 19.0.0, SVG Export Plug-In . SVG Version: 6.00 Build 0)  -->
<svg version="1.1" id="Layer_1" xmlns="http://www.w3.org/2000/svg" xmlns:xlink="http://www.w3.org/1999/xlink" x="0px" y="0px"
	 viewBox="0 0 511 511" style="enable-background:new 0 0 511 511;" xml:space="preserve">
<g>
	<rect x="216" y="432" width="16" height="15"/>
	<rect x="248" y="432" width="16" height="15"/>
	<rect x="280" y="432" width="16" height="15"/>
	<path d="M392,208c-13.509,0-25-11.49-25-25V0h-55v87c0,22.332-17.669,41-40,41h-32c-22.332,0-41-18.668-41-41V0h-55v183
		c0,13.51-10.491,25-24,25h-8v303h287V208H392z M199,124.89c11,10.826,25.036,18.11,41,18.11h32c15.964,0,30-7.284,40-18.11V135
		c0,22.332-17.669,41-40,41h-32c-22.332,0-41-18.668-41-41V124.89z M384,496H127v-17h257V496z M384,464H127v-73h257V464z M384,376
		H127v-17h257V376z M384,344H127v-17h257V344z M384,312H127v-17h257V312z M384,280H127v-58.214c19-3.515,32-19.57,32-38.786V15h25
		v120c0,30.602,25.397,56,56,56h32c30.603,0,55-25.398,55-56V15h25v168c0,19.216,14,35.271,32,38.786V280z"/>
</g>
<g>
</g>
<g>
</g>
<g>
</g>
<g>
</g>
<g>
</g>
<g>
</g>
<g>
</g>
<g>
</g>
<g>
</g>
<g>
</g>
<g>
</g>
<g>
</g>
<g>
</g>
<g>
</g>
<g>
</g>
</svg>
