<?xml version="1.0" encoding="iso-8859-1"?>
<!-- Generator: Adobe Illustrator 19.0.0, SVG Export Plug-In . SVG Version: 6.00 Build 0)  -->
<svg version="1.1" id="Layer_1" xmlns="http://www.w3.org/2000/svg" xmlns:xlink="http://www.w3.org/1999/xlink" x="0px" y="0px"
	 viewBox="0 0 511 511" style="enable-background:new 0 0 511 511;" xml:space="preserve">
<g>
	<path d="M511,48H0v335h242.754l-39,65H176v15h160v-15h-27.754l-39-65H511V48z M290.754,448h-69.508L256,390.077L290.754,448z
		 M496,368H15V63h481V368z"/>
	<path d="M479,80H32v271h447V80z M464,336H47V95h417V336z"/>
	<rect x="192" y="111" width="15" height="24"/>
	<rect x="120" y="184" width="24" height="15"/>
	<rect x="139.917" y="135.417" transform="matrix(0.7071 0.7071 -0.7071 0.7071 145.556 -65.562)" width="24" height="15.001"/>
	<rect x="240.583" y="130.917" transform="matrix(0.7071 0.7071 -0.7071 0.7071 173.7325 -133.5654)" width="15.001" height="24"/>
	<rect x="144.416" y="227.083" transform="matrix(-0.7071 -0.7071 0.7071 -0.7071 90.2678 515.5587)" width="15.001" height="24"/>
	<rect x="248" y="264" width="16" height="15"/>
	<rect x="280" y="264" width="16" height="15"/>
	<rect x="312" y="264" width="16" height="15"/>
	<path d="M296,198.5v-15c-26.191,0-47.5,21.309-47.5,47.5h15C263.5,213.079,278.08,198.5,296,198.5z"/>
	<path d="M182.383,226.339c-8.631,9.786-13.883,22.868-13.883,36.911c0,30.603,24.897,55.75,55.5,55.75h152
		c17.369,0,31.5-14.381,31.5-31.75c0-16.027-12.035-29.538-27.54-31.492c2.336-7.95,3.54-16.258,3.54-24.758
		c0-48.248-39.252-87.5-87.5-87.5c-24.506,0-46.687,10.131-62.587,26.419C226.327,158.688,213.846,151.5,200,151.5
		c-21.78,0-39.5,17.72-39.5,39.5C160.5,206.452,169.423,219.852,182.383,226.339z M296,158.5c39.977,0,72.5,32.523,72.5,72.5
		c0,15.838-5.013,30.881-14.496,43.503l11.992,9.26c3.106-4.134,5.8-8.763,8.099-12.763H376c9.098,0,16.5,7.402,16.5,16.5
		S385.098,304,376,304H224c-22.332,0-40.5-18.418-40.5-40.75c0-13.296,6.442-25.24,16.368-32.628c0.044,0,0.132-0.122,0.132-0.122
		v-0.097c3-1.966,5.574-3.61,8.677-4.883c-0.113,1.813-0.177,3.639-0.177,5.48c0,5.886,0.589,11.77,1.75,17.492l14.7-2.984
		c-0.962-4.741-1.45-9.622-1.45-14.508C223.5,191.023,256.023,158.5,296,158.5z M200,166.5c10.429,0,19.61,6.568,23.063,16.221
		c-5.275,7.943-9.292,16.792-11.755,26.261c-5.485,1.289-10.657,3.389-15.384,6.173C184.348,213.207,175.5,203.121,175.5,191
		C175.5,177.49,186.491,166.5,200,166.5z"/>
</g>
<g>
</g>
<g>
</g>
<g>
</g>
<g>
</g>
<g>
</g>
<g>
</g>
<g>
</g>
<g>
</g>
<g>
</g>
<g>
</g>
<g>
</g>
<g>
</g>
<g>
</g>
<g>
</g>
<g>
</g>
</svg>
