<?xml version="1.0" encoding="iso-8859-1"?>
<!-- Generator: Adobe Illustrator 19.0.0, SVG Export Plug-In . SVG Version: 6.00 Build 0)  -->
<svg version="1.1" id="Layer_1" xmlns="http://www.w3.org/2000/svg" xmlns:xlink="http://www.w3.org/1999/xlink" x="0px" y="0px"
	 viewBox="0 0 511 511" style="enable-background:new 0 0 511 511;" xml:space="preserve">
<g>
	<rect x="216" y="400" width="16" height="15"/>
	<rect x="248" y="400" width="16" height="15"/>
	<rect x="280" y="400" width="16" height="15"/>
	<path d="M232,293.71c-14,8.384-23.75,24.092-23.75,41.29c0,26.191,21.434,47.5,47.625,47.5s47.313-21.309,47.313-47.5
		c0-17.2-9.188-32.91-24.188-41.292V128h-47v16h-48v15h48v17h-24v15h24v17h-48v15h48v17h-24v15h24v17h-48v15h48V293.71z M247,143h17
		v97h-17V143z M242.753,305.201l4.247-1.966V255h17v48.235l4.748,1.965c11.847,5.174,19.752,16.871,19.752,29.8
		c0,17.921-14.579,32.5-32.5,32.5s-32.5-14.579-32.5-32.5C223.5,322.074,230.905,310.378,242.753,305.201z"/>
	<path d="M120,0v511h271V0H120z M376,496H135v-49h241V496z M376,432H135V79h241V432z M376,64H135V15h241V64z"/>
	<rect x="216" y="464" width="80" height="15"/>
	<rect x="208" y="32" width="16" height="15"/>
	<rect x="240" y="32" width="64" height="15"/>
</g>
<g>
</g>
<g>
</g>
<g>
</g>
<g>
</g>
<g>
</g>
<g>
</g>
<g>
</g>
<g>
</g>
<g>
</g>
<g>
</g>
<g>
</g>
<g>
</g>
<g>
</g>
<g>
</g>
<g>
</g>
</svg>
