<?xml version="1.0" encoding="iso-8859-1"?>
<!-- Generator: Adobe Illustrator 19.0.0, SVG Export Plug-In . SVG Version: 6.00 Build 0)  -->
<svg version="1.1" id="Layer_1" xmlns="http://www.w3.org/2000/svg" xmlns:xlink="http://www.w3.org/1999/xlink" x="0px" y="0px"
	 viewBox="0 0 511.5 511.5" style="enable-background:new 0 0 511.5 511.5;" xml:space="preserve">
<g>
	<path d="M191.5,315.032h-160c-9.098,0-16.5-7.652-16.5-16.75c0-9.098,7.402-16.625,16.5-16.625S48,288.934,48,298.032h15
		c0-17.369-14.131-31.5-31.5-31.5S0,280.913,0,298.282c0,17.369,14.131,31.75,31.5,31.75h160V315.032z"/>
	<path d="M63.5,394.532c-9.098,0-16.5-7.152-16.5-16.25c0-9.098,7.402-16.25,16.5-16.25h80v-15h-80
		c-17.369,0-31.5,13.881-31.5,31.25c0,17.369,14.131,31.375,31.5,31.375S95,395.401,95,378.032H80
		C80,387.129,72.598,394.532,63.5,394.532z"/>
	<path d="M455.5,315.032h-96v15h96c17.369,0,31.5-14.381,31.5-31.75c0-17.369-14.131-31.625-31.5-31.625S424,280.663,424,298.032h15
		c0-9.098,7.402-16.5,16.5-16.5s16.5,7.652,16.5,16.75C472,307.379,464.598,315.032,455.5,315.032z"/>
	<path d="M32,218.282c0,17.369,14.131,31.375,31.5,31.375S95,235.401,95,218.032H80c0,9.098-7.402,16.5-16.5,16.5
		S47,227.379,47,218.282s7.402-16.25,16.5-16.25h248v-15h-248C46.131,187.032,32,200.913,32,218.282z"/>
	<rect x="175.5" y="155.032" width="16" height="15"/>
	<path d="M31.5,170.032h128v-15h-128c-9.098,0-16.5-7.652-16.5-16.75s7.402-16.625,16.5-16.625S48,128.934,48,138.032h15
		c0-17.369-14.131-31.5-31.5-31.5S0,120.913,0,138.282S14.131,170.032,31.5,170.032z"/>
	<path d="M479.5,347.032h-192v15h192c9.098,0,16.5,7.152,16.5,16.25c0,9.098-7.402,16.375-16.5,16.375s-16.5-7.527-16.5-16.625h-15
		c0,17.369,14.131,31.5,31.5,31.5s31.5-13.881,31.5-31.25C511,360.913,496.869,347.032,479.5,347.032z"/>
	<rect x="255.5" y="347.032" width="16" height="15"/>
	<rect x="335.5" y="187.032" width="80" height="15"/>
	<rect x="303.5" y="155.032" width="208" height="15"/>
	<rect x="95.5" y="267.032" width="112" height="15"/>
	<rect x="383.5" y="235.032" width="88" height="15"/>
	<rect x="175.5" y="235.032" width="96" height="15"/>
	<rect x="223.5" y="267.032" width="16" height="15"/>
	<rect x="207.5" y="315.032" width="16" height="15"/>
	<path d="M272,282.032c0,8.005,2.37,15.643,6.77,22.123l-20.574,20.574l10.607,10.607l20.574-20.574
		c6.48,4.4,14.118,6.77,22.123,6.77c10.551,0,20.47-4.109,27.93-11.569c13.367-13.365,25.164-64.245,27.393-74.309l2.545-11.489
		l-11.489,2.545c-10.063,2.229-60.943,14.025-74.308,27.392C276.109,261.562,272,271.481,272,282.032z M340.53,275.032h-10.923
		l15.971-15.971C343.858,265.043,342.161,270.032,340.53,275.032z M318.5,253.005c5-1.631,9.987-3.328,15.968-5.048L318.5,263.924
		V253.005z M334.59,290.032c-2.383,5-4.09,8.194-6.09,9.573v-0.249c-4,4.627-10.618,7.176-17.162,7.176
		c-3.959,0-7.691-0.688-11.112-2.45l14.381-14.05H334.59z M293.927,264.708c1.378-1.378,4.573-3.38,9.573-5.763v19.98l-14.05,14.3
		c-1.762-3.421-2.7-7.233-2.7-11.192C286.75,275.488,289.299,269.335,293.927,264.708z"/>
	<path d="M155.57,366.101c-7.461,7.461-11.57,17.38-11.57,27.931c0,8.005,2.37,15.643,6.77,22.123l-20.574,20.574l10.607,10.607
		l20.574-20.574c6.48,4.4,14.118,6.77,22.123,6.77c10.551,0,20.47-4.109,27.93-11.569c13.367-13.365,25.164-64.245,27.393-74.309
		l2.545-11.489l-11.489,2.545C219.814,340.938,168.935,352.735,155.57,366.101z M190.5,365.005c5-1.631,9.987-3.328,15.968-5.048
		L190.5,375.924V365.005z M159,394.032c0-6.544,2.299-12.696,6.927-17.324c1.378-1.378,4.573-3.38,9.573-5.763v19.98l-14.05,14.3
		C159.689,401.803,159,397.991,159,394.032z M200.5,411.605v-0.249c-4,4.627-10.618,7.176-17.162,7.176
		c-3.959,0-7.69-0.688-11.112-2.45l14.381-14.05h19.982C204.206,407.032,202.5,410.226,200.5,411.605z M212.53,387.032h-10.923
		l15.971-15.971C215.858,377.043,214.161,382.032,212.53,387.032z"/>
	<path d="M203.569,149.961c7.461,7.461,17.38,11.57,27.931,11.57c8.005,0,15.643-2.37,22.123-6.77l20.574,20.574l10.607-10.607
		l-20.574-20.574c4.4-6.48,6.77-14.118,6.77-22.123c0-10.551-4.109-20.47-11.569-27.93c-13.365-13.367-64.245-25.164-74.309-27.393
		l-11.489-2.545l2.545,11.489C178.406,85.717,190.203,136.597,203.569,149.961z M238.5,98.942c6,2.383,8.694,4.386,10.074,5.766
		c4.627,4.627,7.426,10.779,7.426,17.323c0,3.958-1.189,7.771-2.95,11.192l-14.55-14.3V98.942z M242.693,144.082
		c-3.421,1.762-7.072,2.45-11.031,2.45c-6.544,0-13.162-2.549-17.162-7.176v0.249c-2-1.378-3.705-4.573-6.088-9.573h19.98
		L242.693,144.082z M223.5,93.002v10.922l-15.971-15.971C213.511,89.673,219.5,91.371,223.5,93.002z M213.393,115.032h-10.92
		c-1.631-5-3.328-9.987-5.048-15.968L213.393,115.032z"/>
</g>
<g>
</g>
<g>
</g>
<g>
</g>
<g>
</g>
<g>
</g>
<g>
</g>
<g>
</g>
<g>
</g>
<g>
</g>
<g>
</g>
<g>
</g>
<g>
</g>
<g>
</g>
<g>
</g>
<g>
</g>
</svg>
