<?xml version="1.0" encoding="iso-8859-1"?>
<!-- Generator: Adobe Illustrator 19.0.0, SVG Export Plug-In . SVG Version: 6.00 Build 0)  -->
<svg version="1.1" id="Layer_1" xmlns="http://www.w3.org/2000/svg" xmlns:xlink="http://www.w3.org/1999/xlink" x="0px" y="0px"
	 viewBox="0 0 511 511" style="enable-background:new 0 0 511 511;" xml:space="preserve">
<g>
	<rect x="224" y="384" width="16" height="15"/>
	<rect x="256" y="384" width="16" height="15"/>
	<rect x="288" y="384" width="16" height="15"/>
	<path d="M451.106,264H399V104h-48V88H192v87h15v-24h129v113h-40v15h148.894L496,330.106V360H207v-25h-15v88h319v-99.106
		L451.106,264z M336,136H207v-33h129V136z M384,264h-33v-17h33V264z M384,232h-33v-17h33V232z M384,200h-33v-17h33V200z M384,168
		h-33v-17h33V168z M384,136h-33v-17h33V136z M496,408H207v-33h289V408z"/>
	<rect x="144" y="176" width="16" height="15"/>
	<path d="M32,191h96v-15H32c-9.098,0-16.5-7.652-16.5-16.75s7.402-16.625,16.5-16.625c9.098,0,16.5,7.277,16.5,16.375h15
		c0-17.369-14.131-31.5-31.5-31.5c-17.369,0-31.5,14.381-31.5,31.75S14.631,191,32,191z"/>
	<path d="M64,223h80v-15H64c-17.369,0-31.5,13.881-31.5,31.25s14.131,31.375,31.5,31.375c17.369,0,31.5-14.256,31.5-31.625h-15
		c0,9.098-7.402,16.5-16.5,16.5c-9.098,0-16.5-7.152-16.5-16.25S54.902,223,64,223z"/>
	<path d="M192,319h15v-21.893l11.447,11.197l10.731-10.607L210.544,279l13.424-13.394l18.713,18.697l10.614-10.357L242.107,263H264
		v-15h-21.893l11.196-11.446l-10.606-10.732L224,244.456l-13.393-13.425l18.697-18.712l-10.856-10.615L207,212.893V191h-15v21.893
		l-10.947-11.197l-10.481,10.607L189.331,231l-13.362,13.394l-18.681-18.697l-10.599,10.857L157.893,248H136v15h21.893
		l-11.196,10.946l10.606,10.482L176,265.669l13.393,13.362l-18.697,18.681l10.356,10.6L192,297.107V319z M186.606,255L200,241.606
		L213.394,255L200,268.394L186.606,255z"/>
	<rect x="32" y="288" width="104" height="15"/>
	<rect y="288" width="16" height="15"/>
</g>
<g>
</g>
<g>
</g>
<g>
</g>
<g>
</g>
<g>
</g>
<g>
</g>
<g>
</g>
<g>
</g>
<g>
</g>
<g>
</g>
<g>
</g>
<g>
</g>
<g>
</g>
<g>
</g>
<g>
</g>
</svg>
