<?xml version="1.0" encoding="iso-8859-1"?>
<!-- Generator: Adobe Illustrator 19.0.0, SVG Export Plug-In . SVG Version: 6.00 Build 0)  -->
<svg version="1.1" id="Layer_1" xmlns="http://www.w3.org/2000/svg" xmlns:xlink="http://www.w3.org/1999/xlink" x="0px" y="0px"
	 viewBox="0 0 511 511" style="enable-background:new 0 0 511 511;" xml:space="preserve">
<g>
	<rect x="216" y="248" width="16" height="15"/>
	<rect x="248" y="248" width="16" height="15"/>
	<rect x="280" y="248" width="16" height="15"/>
	<path d="M256,103.5c-83.538,0-151.5,67.963-151.5,151.5S172.462,406.5,256,406.5c83.537,0,151.5-67.963,151.5-151.5
		S339.537,103.5,256,103.5z M256,391.5c-75.266,0-136.5-61.233-136.5-136.5S180.734,118.5,256,118.5
		c75.267,0,136.5,61.233,136.5,136.5S331.267,391.5,256,391.5z"/>
	<path d="M256,151.5c-57.07,0-103.5,46.43-103.5,103.5h15c0-48.799,39.701-88.5,88.5-88.5V151.5z"/>
	<path d="M263.551,0h-15.102l-26.583,87h68.268L263.551,0z M256,26.62L269.866,72h-27.732L256,26.62z"/>
	<path d="M248.449,511h15.102l26.583-87h-68.268L248.449,511z M256,484.38L242.134,439h27.732L256,484.38z"/>
	<path d="M442.005,79.674l-10.679-10.679l-80.315,42.722l48.272,48.271L442.005,79.674z M375.949,115.441l41.893-22.283
		l-22.283,41.893L375.949,115.441z"/>
	<path d="M69.995,430.327l10.679,10.677l80.315-42.721l-48.272-48.272L69.995,430.327z M136.05,394.559l-41.893,22.283
		l22.283-41.893L136.05,394.559z"/>
	<path d="M424,220.866v68.268l87-26.583v-15.102L424,220.866z M439,268.866v-27.732L484.38,255L439,268.866z"/>
	<path d="M87,220.866L0,247.449v15.102l87,26.583V220.866z M72,268.866L26.62,255L72,241.134V268.866z"/>
	<path d="M351.012,398.283l80.315,42.722l10.679-10.679l-42.722-80.315L351.012,398.283z M375.949,394.559l19.609-19.609
		l22.283,41.893L375.949,394.559z"/>
	<path d="M160.989,111.717L80.674,68.996L69.995,79.673l42.722,80.315L160.989,111.717z M136.05,115.441l-19.609,19.609
		L94.158,93.158L136.05,115.441z"/>
</g>
<g>
</g>
<g>
</g>
<g>
</g>
<g>
</g>
<g>
</g>
<g>
</g>
<g>
</g>
<g>
</g>
<g>
</g>
<g>
</g>
<g>
</g>
<g>
</g>
<g>
</g>
<g>
</g>
<g>
</g>
</svg>
