<?xml version="1.0" encoding="iso-8859-1"?>
<!-- Generator: Adobe Illustrator 19.0.0, SVG Export Plug-In . SVG Version: 6.00 Build 0)  -->
<svg version="1.1" id="Layer_1" xmlns="http://www.w3.org/2000/svg" xmlns:xlink="http://www.w3.org/1999/xlink" x="0px" y="0px"
	 viewBox="0 0 511.375 511.375" style="enable-background:new 0 0 511.375 511.375;" xml:space="preserve">
<g>
	<rect x="216.188" y="272.375" width="16" height="15"/>
	<rect x="248.188" y="272.375" width="16" height="15"/>
	<rect x="280.188" y="272.375" width="16" height="15"/>
	<path d="M391.188,304.375v-137c0-57.07-45.93-103-103-103h-1.051c5.346-7,8.551-15.5,8.551-24.75c0-21.78-17.72-39.625-39.5-39.625
		s-39.5,17.907-39.5,39.688c0,9.25,3.205,17.688,8.551,24.688h-1.051c-57.07,0-104,45.93-104,103v137h-24v55
		c0,16.281,10,30.29,24,36.328v115.672h15V398.862c1,0.002,0.832,0.513,1,0.513h240v112h15V395.703c15-6.038,24-20.047,24-36.328
		v-55H391.188z M376.188,167.375v137h-49v-169c0-22.407-10.369-42.431-26.552-55.55C343.318,86.11,376.188,122.974,376.188,167.375z
		 M256.188,14.875c13.51,0,24.5,10.99,24.5,24.5s-10.99,24.5-24.5,24.5s-24.5-10.99-24.5-24.5S242.678,14.875,256.188,14.875z
		 M248.188,79.388v175.987h15V79.388c28,3.682,49,27.377,49,55.987v169h-113v-169C199.188,106.765,221.188,83.069,248.188,79.388z
		 M135.188,167.375c0-44.401,32.869-81.265,75.552-87.55c-16.183,13.12-26.552,33.143-26.552,55.55v169h-49V167.375z
		 M152.188,384.375h-16c-13.51,0-25-11.49-25-25v-40h41V384.375z M216.188,384.375h-49v-65h49V384.375z M280.188,384.375h-49v-65h49
		V384.375z M344.188,384.375h-49v-65h49V384.375z M400.188,359.375c0,13.51-10.49,25-24,25h-17v-65h41V359.375z"/>
</g>
<g>
</g>
<g>
</g>
<g>
</g>
<g>
</g>
<g>
</g>
<g>
</g>
<g>
</g>
<g>
</g>
<g>
</g>
<g>
</g>
<g>
</g>
<g>
</g>
<g>
</g>
<g>
</g>
<g>
</g>
</svg>
