<?xml version="1.0" encoding="iso-8859-1"?>
<!-- Generator: Adobe Illustrator 19.0.0, SVG Export Plug-In . SVG Version: 6.00 Build 0)  -->
<svg version="1.1" id="Layer_1" xmlns="http://www.w3.org/2000/svg" xmlns:xlink="http://www.w3.org/1999/xlink" x="0px" y="0px"
	 viewBox="0 0 511 511" style="enable-background:new 0 0 511 511;" xml:space="preserve">
<g>
	<path d="M327.5,127.813c-48.248,0-87.5,39.252-87.5,87.5h15c0-39.977,32.523-72.5,72.5-72.5V127.813z"/>
	<rect x="279.5" y="256.313" width="16" height="15"/>
	<rect x="311.5" y="256.313" width="16" height="15"/>
	<rect x="343.5" y="256.313" width="16" height="15"/>
	<path d="M460.699,240.064c1.517-8.131,2.301-16.417,2.301-24.751c0-74.715-60.785-135.25-135.5-135.25
		c-72.198,0-131.383,56.25-135.289,128.25H63.5c-17.369,0-31.5,13.881-31.5,31.25s14.131,31.375,31.5,31.375S95,256.682,95,239.313
		H80c0,9.098-7.402,16.5-16.5,16.5S47,248.661,47,239.563s7.402-16.25,16.5-16.25h92.26c-16.871,13-27.76,33.542-27.76,56.5
		s10.889,42.5,27.76,56.5H31.5c-9.099,0-16.5-7.652-16.5-16.75s7.401-16.625,16.5-16.625S48,310.214,48,319.313h15
		c0-17.369-14.131-31.5-31.5-31.5S0,302.193,0,319.563s14.131,31.75,31.5,31.75h208v-15h-40c-31.154,0-56.5-25.596-56.5-56.75
		c0-28.693,21.505-52.567,49.24-56.143c0.511,8.762,1.855,17.376,4.028,25.824l14.527-3.77c-2.519-9.787-3.796-19.94-3.796-30.146
		c0-66.444,54.056-120.508,120.5-120.508S448,148.873,448,215.316c0,27.702-9.138,53.741-26.426,75.308l11.703,9.381
		c10.767-13.431,18.816-28.81,23.804-45.152c21.601,0.835,38.919,18.908,38.919,40.71c0,22.332-18.168,40.75-40.5,40.75h-176
		c-9.099,0-16.5-7.652-16.5-16.75s7.401-16.625,16.5-16.625s16.5,7.277,16.5,16.375h15c0-17.369-14.131-31.5-31.5-31.5
		s-31.5,14.381-31.5,31.75s14.131,31.75,31.5,31.75h176c30.603,0,55.5-25.147,55.5-55.75
		C511,266.714,488.872,242.695,460.699,240.064z"/>
	<rect x="159.5" y="176.313" width="16" height="15"/>
	<path d="M31.5,191.313h112v-15h-112c-9.098,0-16.5-7.652-16.5-16.75s7.402-16.625,16.5-16.625S48,150.214,48,159.313h15
		c0-17.369-14.131-31.5-31.5-31.5S0,142.193,0,159.563S14.131,191.313,31.5,191.313z"/>
	<path d="M48,399.563c0,17.369,14.131,31.375,31.5,31.375s31.5-14.256,31.5-31.625H96c0,9.098-7.402,16.5-16.5,16.5
		S63,408.661,63,399.563s7.402-16.25,16.5-16.25h144v-15h-144C62.131,368.313,48,382.193,48,399.563z"/>
	<rect x="239.5" y="368.313" width="16" height="15"/>
</g>
<g>
</g>
<g>
</g>
<g>
</g>
<g>
</g>
<g>
</g>
<g>
</g>
<g>
</g>
<g>
</g>
<g>
</g>
<g>
</g>
<g>
</g>
<g>
</g>
<g>
</g>
<g>
</g>
<g>
</g>
</svg>
