<?xml version="1.0" encoding="iso-8859-1"?>
<!-- Generator: Adobe Illustrator 19.0.0, SVG Export Plug-In . SVG Version: 6.00 Build 0)  -->
<svg version="1.1" id="Layer_1" xmlns="http://www.w3.org/2000/svg" xmlns:xlink="http://www.w3.org/1999/xlink" x="0px" y="0px"
	 viewBox="0 0 511 511" style="enable-background:new 0 0 511 511;" xml:space="preserve">
<g>
	<path d="M456,220.5v15h8v72c0,31.154-24.846,57-56,57h-64c-31.154,0-57-25.846-57-57v-72h73v-15H0v47h32v40
		c0,39.425,32.575,72,72,72h64c39.425,0,71-32.575,71-72v-40h33v40c0,39.425,32.575,72,72,72h64c39.425,0,71-32.575,71-72v-40h32
		v-47H456z M32,252.5H15v-17h17V252.5z M224,307.5c0,31.154-24.846,57-56,57h-64c-31.154,0-57-25.846-57-57v-72h177V307.5z
		 M272,252.5h-33v-17h33V252.5z M496,252.5h-17v-17h17V252.5z"/>
	<rect x="88.499" y="238.245" transform="matrix(0.7071 0.7071 -0.7071 0.7071 228.5825 15.153)" width="15.001" height="90.51"/>
	
		<rect x="116.499" y="286.529" transform="matrix(-0.7071 -0.7071 0.7071 -0.7071 -2.9257 605.7881)" width="15.001" height="33.941"/>
	
		<rect x="290.745" y="275.999" transform="matrix(-0.7071 0.7071 -0.7071 -0.7071 774.0527 246.3769)" width="90.51" height="15.001"/>
	
		<rect x="356.499" y="286.529" transform="matrix(-0.7071 -0.7071 0.7071 -0.7071 406.78 775.4938)" width="15.001" height="33.941"/>
	<path d="M400.5,259.5h15c0-13.51,10.99-24.5,24.5-24.5v-15c-13.51,0-24.5-10.99-24.5-24.5h-15c0,13.51-10.99,24.5-24.5,24.5v15
		C389.51,235,400.5,245.99,400.5,259.5z M408,218.616c2.471,3.412,5.472,6.412,8.884,8.884c-3.412,2.472-6.413,5.472-8.884,8.884
		c-2.471-3.412-5.472-6.412-8.884-8.884C402.528,225.028,405.529,222.028,408,218.616z"/>
	<path d="M456.5,195.5h15c0-13.51,10.99-24.5,24.5-24.5v-15c-13.51,0-24.5-10.99-24.5-24.5h-15c0,13.51-10.99,24.5-24.5,24.5v15
		C445.51,171,456.5,181.99,456.5,195.5z M464,154.616c2.471,3.412,5.472,6.412,8.884,8.884c-3.412,2.472-6.413,5.472-8.884,8.884
		c-2.471-3.412-5.472-6.412-8.884-8.884C458.528,161.028,461.529,158.028,464,154.616z"/>
</g>
<g>
</g>
<g>
</g>
<g>
</g>
<g>
</g>
<g>
</g>
<g>
</g>
<g>
</g>
<g>
</g>
<g>
</g>
<g>
</g>
<g>
</g>
<g>
</g>
<g>
</g>
<g>
</g>
<g>
</g>
</svg>
