<?xml version="1.0" encoding="iso-8859-1"?>
<!-- Generator: Adobe Illustrator 19.0.0, SVG Export Plug-In . SVG Version: 6.00 Build 0)  -->
<svg version="1.1" id="Layer_1" xmlns="http://www.w3.org/2000/svg" xmlns:xlink="http://www.w3.org/1999/xlink" x="0px" y="0px"
	 viewBox="0 0 511 511" style="enable-background:new 0 0 511 511;" xml:space="preserve">
<g>
	<rect x="215.5" y="272.063" width="16" height="15"/>
	<rect x="247.5" y="272.063" width="16" height="15"/>
	<rect x="279.5" y="272.063" width="16" height="15"/>
	<path d="M435.5,216.063h-5.299c0.528-6,0.799-11.203,0.799-16.75c0-92.36-75.14-167.375-167.5-167.375
		c-84.384,0-154.382,62.125-165.844,144.125H95.5c-52.659,0-95.5,42.841-95.5,95.5s42.841,95.5,95.5,95.5h8v-15h-8
		c-44.388,0-80.5-36.112-80.5-80.5s36.112-80.5,80.5-80.5h0.714c-0.141,2-0.214,5.4-0.214,8.25c0,11.273,1.127,22.416,3.351,33.368
		l14.7-3.047c-2.024-9.971-3.051-20.267-3.051-30.54c0-84.089,68.411-152.516,152.5-152.516S416,114.981,416,199.07
		c0,33.313-10.545,64.952-30.496,91.506l11.992,9.258c15.516-20.651,25.846-44.772,30.562-68.772h7.442
		c33.36,0,60.5,27.14,60.5,60.5s-27.14,60.5-60.5,60.5h-12v15h12c41.631,0,75.5-33.869,75.5-75.5S477.131,216.063,435.5,216.063z"/>
	<path d="M263.5,87.563c-61.481,0-111.5,50.019-111.5,111.5h15c0-53.21,43.29-96.5,96.5-96.5V87.563z"/>
	<path d="M371.635,304.063h-72.771l-47.5,95h56l-40,80h23.406l117.929-127h-61.064L371.635,304.063z M374.301,367.063l-74.025,79.72
		l31.36-62.72h-56l32.5-65h39.229l-24,48H374.301z"/>
	<path d="M203.635,352.063l24-48h-72.771l-47.5,95h56l-40,80h23.406l117.929-127H203.635z M187.635,384.063h-56l32.5-65h39.229
		l-24,48h50.936l-74.025,79.72L187.635,384.063z"/>
</g>
<g>
</g>
<g>
</g>
<g>
</g>
<g>
</g>
<g>
</g>
<g>
</g>
<g>
</g>
<g>
</g>
<g>
</g>
<g>
</g>
<g>
</g>
<g>
</g>
<g>
</g>
<g>
</g>
<g>
</g>
</svg>
