<?xml version="1.0" encoding="iso-8859-1"?>
<!-- Generator: Adobe Illustrator 19.0.0, SVG Export Plug-In . SVG Version: 6.00 Build 0)  -->
<svg version="1.1" id="Layer_1" xmlns="http://www.w3.org/2000/svg" xmlns:xlink="http://www.w3.org/1999/xlink" x="0px" y="0px"
	 viewBox="0 0 511.499 511.499" style="enable-background:new 0 0 511.499 511.499;" xml:space="preserve">
<g>
	<rect x="279.75" y="280.499" width="16" height="15"/>
	<rect x="311.75" y="280.499" width="16" height="15"/>
	<rect x="343.75" y="280.499" width="16" height="15"/>
	<path d="M15.25,199.749c0-28.693,21.505-52.567,49.24-56.143c0.511,8.763,1.855,17.378,4.029,25.825l14.526-3.771
		c-2.519-9.785-3.796-19.938-3.796-30.146c0-66.444,54.056-120.508,120.5-120.508c34.551,0,67.491,14.865,90.374,40.79l11.246-9.929
		C275.64,16.719,238.601,0,199.749,0C127.426,0,68.156,56.957,64.437,128.371C28.434,132.045,0.25,162.792,0.25,199.749
		c0,39.425,32.075,71.75,71.5,71.75h40v-15h-40C40.595,256.499,15.25,230.903,15.25,199.749z"/>
	<path d="M199.749,62.999v-15c-48.248,0-87.5,39.252-87.5,87.5h15C127.249,95.522,159.773,62.999,199.749,62.999z"/>
	<path d="M460.949,224.25c1.517-8.131,2.301-16.417,2.301-24.751c0-74.715-60.785-135.5-135.5-135.5
		c-72.324,0-131.593,56.957-135.313,128.371c-36.003,3.674-64.187,34.422-64.187,71.378c0,39.425,32.075,71.75,71.5,71.75h256
		c30.602,0,55.5-25.147,55.5-55.75C511.25,250.9,489.122,226.881,460.949,224.25z M455.75,320.499h-256
		c-31.154,0-56.5-25.596-56.5-56.75c0-28.693,21.505-52.567,49.241-56.143c0.511,8.763,1.855,17.378,4.029,25.825l14.526-3.771
		c-2.519-9.785-3.796-19.938-3.796-30.146c0-66.444,54.056-120.508,120.5-120.508s120.5,54.052,120.5,120.496
		c0,27.702-9.138,53.741-26.426,75.308l11.703,9.381c10.767-13.431,18.816-28.81,23.804-45.152
		c21.601,0.835,38.919,18.908,38.919,40.71C496.25,302.081,478.082,320.499,455.75,320.499z"/>
	<path d="M240.249,199.499h15c0-39.977,32.523-72.5,72.5-72.5v-15C279.501,111.999,240.249,151.251,240.249,199.499z"/>
	<rect x="87.749" y="287.499" width="15" height="160"/>
	<rect x="127.749" y="335.499" width="15" height="144"/>
	<rect x="167.749" y="495.499" width="15" height="16"/>
	<rect x="167.749" y="351.499" width="15" height="128"/>
	<rect x="207.749" y="351.499" width="15" height="160"/>
	<rect x="247.749" y="351.499" width="15" height="112"/>
	<rect x="287.75" y="351.499" width="15" height="160"/>
	<rect x="327.75" y="351.499" width="15" height="144"/>
	<rect x="367.75" y="463.499" width="15" height="16"/>
	<rect x="367.75" y="351.499" width="15" height="96"/>
	<rect x="407.75" y="351.499" width="15" height="160"/>
</g>
<g>
</g>
<g>
</g>
<g>
</g>
<g>
</g>
<g>
</g>
<g>
</g>
<g>
</g>
<g>
</g>
<g>
</g>
<g>
</g>
<g>
</g>
<g>
</g>
<g>
</g>
<g>
</g>
<g>
</g>
</svg>
