<?xml version="1.0" encoding="iso-8859-1"?>
<!-- Generator: Adobe Illustrator 19.0.0, SVG Export Plug-In . SVG Version: 6.00 Build 0)  -->
<svg version="1.1" id="Layer_1" xmlns="http://www.w3.org/2000/svg" xmlns:xlink="http://www.w3.org/1999/xlink" x="0px" y="0px"
	 viewBox="0 0 511 511" style="enable-background:new 0 0 511 511;" xml:space="preserve">
<g>
	<path style="fill:#B8ECFF;" d="M503.5,347.063c0-37.555-30.445-68-68-68c-4.808,0-9.498,0.506-14.024,1.455
		c1.326-8.291,2.024-16.791,2.024-25.455c0-88.366-71.635-160-160-160c-83.113,0-151.417,63.373-159.244,144.433
		c-2.88-0.285-5.801-0.433-8.756-0.433c-48.601,0-88,39.399-88,88c0,48.601,39.399,88,88,88h344v-0.127
		C475.192,412.864,503.5,383.274,503.5,347.063z"/>
	<g>
		<g>
			<rect x="215.5" y="367.563" style="fill:#FFFFFF;" width="16" height="15"/>
		</g>
		<g>
			<rect x="247.5" y="367.563" style="fill:#FFFFFF;" width="16" height="15"/>
		</g>
		<g>
			<rect x="279.5" y="367.563" style="fill:#FFFFFF;" width="16" height="15"/>
		</g>
	</g>
	<path style="fill:#57BFE6;" d="M399.5,255.063c0,8.664-0.698,17.164-2.024,25.455c4.526-0.949,9.216-1.455,14.024-1.455
		c3.426,0,6.792,0.26,10.082,0.749c1.253-8.067,1.918-16.33,1.918-24.749c0-88.366-71.635-160-160-160
		c-4.035,0-8.035,0.154-11.995,0.447C334.263,101.649,399.5,170.736,399.5,255.063z"/>
	<path style="fill:#57BFE6;" d="M435.5,279.063c-4.091,0-8.089,0.387-11.98,1.081c31.819,5.678,55.98,33.468,55.98,66.919
		c0,36.212-28.308,65.802-64,67.873v0.127h24v-0.127c35.692-2.072,64-31.662,64-67.873C503.5,309.507,473.055,279.063,435.5,279.063
		z"/>
	<g>
		<path d="M435.5,272.063h-5.299c0.528-6,0.799-11.203,0.799-16.75c0-92.36-75.14-167.375-167.5-167.375
			c-84.384,0-154.382,62.125-165.844,144.125H95.5c-52.659,0-95.5,42.841-95.5,95.5s42.841,95.5,95.5,95.5h340
			c41.631,0,75.5-33.869,75.5-75.5S477.131,272.063,435.5,272.063z M435.5,408.063h-340c-44.388,0-80.5-36.112-80.5-80.5
			s36.112-80.5,80.5-80.5h0.714c-0.141,2-0.214,5.4-0.214,8.25c0,11.272,1.127,22.416,3.351,33.368l14.7-3.047
			c-2.024-9.971-3.051-20.267-3.051-30.54c0-84.089,68.411-152.516,152.5-152.516S416,170.981,416,255.07
			c0,33.313-10.545,64.952-30.496,91.506l11.992,9.258c15.516-20.651,25.846-44.772,30.562-68.772h7.442
			c33.36,0,60.5,27.14,60.5,60.5S468.86,408.063,435.5,408.063z"/>
		<path d="M152,255.063h15c0-53.21,43.29-96.5,96.5-96.5v-15C202.019,143.563,152,193.581,152,255.063z"/>
	</g>
</g>
<g>
</g>
<g>
</g>
<g>
</g>
<g>
</g>
<g>
</g>
<g>
</g>
<g>
</g>
<g>
</g>
<g>
</g>
<g>
</g>
<g>
</g>
<g>
</g>
<g>
</g>
<g>
</g>
<g>
</g>
</svg>
