<?xml version="1.0" encoding="iso-8859-1"?>
<!-- Generator: Adobe Illustrator 19.0.0, SVG Export Plug-In . SVG Version: 6.00 Build 0)  -->
<svg version="1.1" id="Layer_1" xmlns="http://www.w3.org/2000/svg" xmlns:xlink="http://www.w3.org/1999/xlink" x="0px" y="0px"
	 viewBox="0 0 511.5 511.5" style="enable-background:new 0 0 511.5 511.5;" xml:space="preserve">
<g>
	<path style="fill:#DAEDF7;" d="M300.156,184v166.656c28.255,12.345,48,40.538,48,73.344c0,44.183-35.817,80-80,80s-80-35.817-80-80
		c0-32.805,19.745-60.998,48-73.343V184H300.156z"/>
	<path style="fill:#8BB4D9;" d="M300.156,350.656V184h-16v166.656c28.255,12.345,48,40.538,48,73.344
		c0,41.482-31.574,75.586-72,79.601c2.632,0.261,5.3,0.399,8,0.399c44.183,0,80-35.817,80-80
		C348.156,391.195,328.411,363.001,300.156,350.656z"/>
	<circle style="fill:#FF9AC9;" cx="268.156" cy="424" r="24"/>
	<g>
		<g>
			<rect x="260.656" y="264" style="fill:#FFFFFF;" width="15" height="16"/>
		</g>
		<g>
			<rect x="260.656" y="296" style="fill:#FFFFFF;" width="15" height="16"/>
		</g>
		<g>
			<rect x="260.656" y="328" style="fill:#FFFFFF;" width="15" height="16"/>
		</g>
	</g>
	<g>
		<circle style="fill:#FEEF7F;" cx="268.156" cy="80" r="32"/>
		<g>
			<path d="M275.156,393.409V360h-15v33.409c-13,3.374-23.75,15.806-23.75,30.591c0,17.369,14.256,31.5,31.625,31.5
				s31.313-14.131,31.313-31.5C299.344,409.215,289.156,396.784,275.156,393.409z M268.156,440.5c-9.098,0-16.5-7.402-16.5-16.5
				s7.402-16.5,16.5-16.5c9.098,0,16.5,7.402,16.5,16.5S277.254,440.5,268.156,440.5z"/>
			<path d="M307.156,345.902V177h-79v168.902c-29,14.835-47.75,44.967-47.75,78.098c0,48.248,39.377,87.5,87.625,87.5
				s87.313-39.252,87.313-87.5C355.344,390.869,337.156,360.737,307.156,345.902z M268.156,496.5c-39.977,0-72.5-32.523-72.5-72.5
				c0-28.833,16.826-54.924,43.253-66.471l4.247-1.965V192h49v163.564l4.747,1.965c26.427,11.546,43.628,37.638,43.628,66.471
				C340.531,463.977,308.133,496.5,268.156,496.5z"/>
			<rect x="260.156" y="208" width="15" height="40"/>
			<rect x="156.156" y="193" width="56" height="15"/>
			<rect x="180.156" y="225" width="32" height="15"/>
			<rect x="156.156" y="257" width="56" height="15"/>
			<rect x="156.156" y="321" width="56" height="15"/>
			<rect x="180.156" y="289" width="32" height="15"/>
			<path d="M268.156,119.5c21.78,0,39.5-17.72,39.5-39.5s-17.72-39.5-39.5-39.5s-39.5,17.72-39.5,39.5S246.376,119.5,268.156,119.5z
				 M268.156,55.5c13.509,0,24.5,10.991,24.5,24.5s-10.991,24.5-24.5,24.5s-24.5-10.991-24.5-24.5S254.647,55.5,268.156,55.5z"/>
			<rect x="260.156" width="15" height="24"/>
			<rect x="260.156" y="136" width="15" height="24"/>
			<rect x="324.156" y="73" width="24" height="15"/>
			<rect x="188.156" y="73" width="24" height="15"/>
			<rect x="304.24" y="120.583" transform="matrix(-0.7071 -0.7071 0.7071 -0.7071 449.286 442.2669)" width="23.999" height="15"/>
			<rect x="208.073" y="24.417" transform="matrix(0.7071 0.7071 -0.7071 0.7071 87.0264 -146.2669)" width="23.999" height="15"/>
			<rect x="308.74" y="19.917" transform="matrix(0.7071 0.7071 -0.7071 0.7071 115.193 -214.2669)" width="15" height="23.999"/>
			
				<rect x="212.573" y="116.084" transform="matrix(-0.7071 -0.7071 0.7071 -0.7071 285.1196 374.2669)" width="15" height="23.999"/>
		</g>
	</g>
</g>
<g>
</g>
<g>
</g>
<g>
</g>
<g>
</g>
<g>
</g>
<g>
</g>
<g>
</g>
<g>
</g>
<g>
</g>
<g>
</g>
<g>
</g>
<g>
</g>
<g>
</g>
<g>
</g>
<g>
</g>
</svg>
