<?xml version="1.0" encoding="iso-8859-1"?>
<!-- Generator: Adobe Illustrator 19.0.0, SVG Export Plug-In . SVG Version: 6.00 Build 0)  -->
<svg version="1.1" id="Layer_1" xmlns="http://www.w3.org/2000/svg" xmlns:xlink="http://www.w3.org/1999/xlink" x="0px" y="0px"
	 viewBox="0 0 511 511" style="enable-background:new 0 0 511 511;" xml:space="preserve">
<g>
	<path style="fill:#DAEDF7;" d="M291.75,183.5v166.656c28.255,12.345,48,40.538,48,73.344c0,44.183-35.817,80-80,80
		c-44.183,0-80-35.817-80-80c0-32.805,19.745-60.998,48-73.343V183.5H291.75z"/>
	<path style="fill:#8BB4D9;" d="M291.75,350.156V183.5h-16v166.656c28.255,12.345,48,40.538,48,73.344
		c0,41.482-31.574,75.586-72,79.601c2.632,0.261,5.3,0.399,8,0.399c44.183,0,80-35.817,80-80
		C339.75,390.695,320.005,362.501,291.75,350.156z"/>
	<circle style="fill:#B8ECFF;" cx="259.75" cy="423.5" r="24"/>
	<g>
		<g>
			<rect x="252.25" y="231.5" style="fill:#FFFFFF;" width="15" height="16"/>
		</g>
		<g>
			<rect x="252.25" y="263.5" style="fill:#FFFFFF;" width="15" height="16"/>
		</g>
		<g>
			<rect x="252.25" y="295.5" style="fill:#FFFFFF;" width="15" height="16"/>
		</g>
	</g>
	
		<rect x="242.779" y="70.529" transform="matrix(0.7071 0.7071 -0.7071 0.7071 137.9509 -158.0428)" style="fill:#B8ECFF;" width="33.941" height="33.941"/>
	<circle style="fill:#B8ECFF;" cx="339.75" cy="23.5" r="16"/>
	<circle style="fill:#B8ECFF;" cx="171.75" cy="55.5" r="16"/>
	<circle style="fill:#B8ECFF;" cx="331.75" cy="151.5" r="16"/>
	<g>
		<path d="M266.75,392.909V359.5h-15v33.409c-13,3.374-23.75,15.806-23.75,30.591c0,17.369,14.256,31.5,31.625,31.5
			c17.369,0,31.312-14.131,31.312-31.5C290.937,408.715,280.75,396.284,266.75,392.909z M259.75,440c-9.098,0-16.5-7.402-16.5-16.5
			s7.402-16.5,16.5-16.5c9.098,0,16.5,7.402,16.5,16.5S268.848,440,259.75,440z"/>
		<path d="M298.75,345.402V176.5h-79v168.902c-29,14.835-47.75,44.967-47.75,78.098c0,48.248,39.377,87.5,87.625,87.5
			s87.312-39.252,87.312-87.5C346.937,390.369,328.75,360.237,298.75,345.402z M259.75,496c-39.977,0-72.5-32.523-72.5-72.5
			c0-28.833,16.826-54.924,43.253-66.471l4.247-1.965V191.5h49v163.564l4.747,1.965c26.427,11.546,43.628,37.638,43.628,66.471
			C332.125,463.477,299.727,496,259.75,496z"/>
		<rect x="147.75" y="192.5" width="56" height="15"/>
		<rect x="171.75" y="224.5" width="32" height="15"/>
		<rect x="147.75" y="256.5" width="56" height="15"/>
		<rect x="147.75" y="320.5" width="56" height="15"/>
		<rect x="171.75" y="288.5" width="32" height="15"/>
		<path d="M206.447,106.447l10.606,10.481l18.697-18.759l13.394,13.362l-18.697,18.681l10.356,10.599l10.947-11.205V151.5h15
			v-21.894l11.447,11.197l10.731-10.606L270.294,111.5l13.425-13.394l18.712,18.697l10.614-10.356L301.856,95.5h21.894v-15h-21.894
			l11.197-11.447l-10.606-10.731L283.75,76.956l-13.394-13.425l18.697-18.712l-10.856-10.614L266.75,45.394V23.5h-15v21.894
			l-10.947-11.197l-10.481,10.606L249.081,63.5l-13.362,13.394l-18.681-18.697l-10.599,10.856L217.644,80.5H195.75v15h21.894
			L206.447,106.447z M259.75,74.106L273.144,87.5l-13.394,13.394L246.356,87.5L259.75,74.106z"/>
		<path d="M339.75,0c-12.958,0-23.5,10.542-23.5,23.5S326.792,47,339.75,47s23.5-10.542,23.5-23.5S352.708,0,339.75,0z M339.75,32
			c-4.687,0-8.5-3.813-8.5-8.5s3.813-8.5,8.5-8.5s8.5,3.813,8.5,8.5S344.437,32,339.75,32z"/>
		<path d="M171.75,79c12.958,0,23.5-10.542,23.5-23.5S184.708,32,171.75,32s-23.5,10.542-23.5,23.5S158.792,79,171.75,79z
			 M171.75,47c4.687,0,8.5,3.813,8.5,8.5s-3.813,8.5-8.5,8.5s-8.5-3.813-8.5-8.5S167.063,47,171.75,47z"/>
		<path d="M331.75,128c-12.958,0-23.5,10.542-23.5,23.5s10.542,23.5,23.5,23.5s23.5-10.542,23.5-23.5S344.708,128,331.75,128z
			 M331.75,160c-4.687,0-8.5-3.813-8.5-8.5s3.813-8.5,8.5-8.5s8.5,3.813,8.5,8.5S336.437,160,331.75,160z"/>
	</g>
</g>
<g>
</g>
<g>
</g>
<g>
</g>
<g>
</g>
<g>
</g>
<g>
</g>
<g>
</g>
<g>
</g>
<g>
</g>
<g>
</g>
<g>
</g>
<g>
</g>
<g>
</g>
<g>
</g>
<g>
</g>
</svg>
