<?xml version="1.0" encoding="iso-8859-1"?>
<!-- Generator: Adobe Illustrator 19.0.0, SVG Export Plug-In . SVG Version: 6.00 Build 0)  -->
<svg version="1.1" id="Layer_1" xmlns="http://www.w3.org/2000/svg" xmlns:xlink="http://www.w3.org/1999/xlink" x="0px" y="0px"
	 viewBox="0 0 510.277 510.277" style="enable-background:new 0 0 510.277 510.277;" xml:space="preserve">
<g>
	<path style="fill:#DAEDF7;" d="M295.389,182.777v166.656c28.255,12.345,48,40.538,48,73.344c0,44.183-35.817,80-80,80
		s-80-35.817-80-80c0-32.805,19.745-60.998,48-73.343V182.777H295.389z"/>
	<path style="fill:#8BB4D9;" d="M295.389,349.434V182.777h-16v166.656c28.255,12.345,48,40.538,48,73.344
		c0,41.482-31.574,75.586-72,79.601c2.632,0.261,5.3,0.399,8,0.399c44.183,0,80-35.817,80-80
		C343.389,389.972,323.644,361.778,295.389,349.434z"/>
	<circle style="fill:#87E6DE;" cx="263.389" cy="422.777" r="24"/>
	<g>
		<g>
			<rect x="255.889" y="262.777" style="fill:#FFFFFF;" width="15" height="16"/>
		</g>
		<g>
			<rect x="255.889" y="294.777" style="fill:#FFFFFF;" width="15" height="16"/>
		</g>
		<g>
			<rect x="255.889" y="326.777" style="fill:#FFFFFF;" width="15" height="16"/>
		</g>
	</g>
	<path style="fill:#87E6DE;" d="M263.389,14.777c0,0,32,54.327,32,72s-14.327,32-32,32s-32-14.327-32-32
		S263.389,14.777,263.389,14.777z"/>
	<path style="fill:#1CB7BD;" d="M279.389,86.777c0-11.906-14.522-40.444-24-57.804c4.591-8.409,8-14.196,8-14.196s32,54.327,32,72
		s-14.327,32-32,32c-2.762,0-5.443-0.35-8-1.008C269.19,114.217,279.389,101.688,279.389,86.777z"/>
	<path style="fill:#B8ECFF;" d="M351.389,142.777c0,8.837-7.163,16-16,16c-8.837,0-16-7.163-16-16c0-8.837,16-40,16-40
		S351.389,133.941,351.389,142.777z"/>
	<g>
		<path style="fill:#B8ECFF;" d="M207.389,142.777c0,8.837-7.163,16-16,16c-8.837,0-16-7.163-16-16c0-8.837,16-40,16-40
			S207.389,133.941,207.389,142.777z"/>
		<g>
			<path d="M270.389,392.187v-33.409h-15v33.409c-13,3.374-23.75,15.806-23.75,30.591c0,17.369,14.256,31.5,31.625,31.5
				s31.313-14.131,31.313-31.5C294.576,407.993,284.389,395.561,270.389,392.187z M263.389,439.277c-9.098,0-16.5-7.402-16.5-16.5
				c0-9.098,7.402-16.5,16.5-16.5c9.098,0,16.5,7.402,16.5,16.5C279.889,431.875,272.486,439.277,263.389,439.277z"/>
			<path d="M302.389,344.679V175.777h-79V344.68c-29,14.835-47.75,44.967-47.75,78.098c0,48.248,39.377,87.5,87.625,87.5
				c48.248,0,87.313-39.252,87.313-87.5C350.576,389.646,332.389,359.514,302.389,344.679z M263.389,495.277
				c-39.977,0-72.5-32.523-72.5-72.5c0-28.833,16.826-54.924,43.253-66.471l4.247-1.965V190.777h49v163.564l4.747,1.965
				c26.427,11.546,43.628,37.638,43.628,66.471C335.764,462.754,303.365,495.277,263.389,495.277z"/>
			<rect x="255.389" y="206.777" width="15" height="40"/>
			<rect x="151.389" y="191.777" width="56" height="15"/>
			<rect x="175.389" y="223.777" width="32" height="15"/>
			<rect x="151.389" y="255.777" width="56" height="15"/>
			<rect x="151.389" y="319.777" width="56" height="15"/>
			<rect x="175.389" y="287.777" width="32" height="15"/>
			<path d="M255.389,125.554v25.223h15v-25.223c19-3.515,32.25-19.561,32.25-38.777c0-18.768-27.395-66.44-32.913-75.807L263.326,0
				l-6.431,10.971c-5.518,9.366-33.272,57.039-33.272,75.807C223.623,105.993,237.389,122.039,255.389,125.554z M270.389,43.784
				c4,6.205,5.891,11.8,8.122,16.765l-8.122,8.122V43.784z M270.389,89.884l14.488-14.238c1.9,5.449,2.637,9.202,2.637,11.131
				c0,10.894-7.125,20.146-17.125,23.321V89.884z M255.389,43.789v24.882l-8.121-8.12C249.499,55.587,252.389,49.992,255.389,43.789
				z M241.277,75.647l14.112,14.237v20.214c-9-3.176-16.75-12.428-16.75-23.321C238.639,84.85,239.376,81.097,241.277,75.647z"/>
			<path d="M342.061,99.352l-6.672-12.995l-6.672,12.995c-3.948,7.689-16.828,33.544-16.828,43.426c0,12.958,10.542,23.5,23.5,23.5
				c12.958,0,23.5-10.542,23.5-23.5C358.889,132.896,346.009,107.04,342.061,99.352z M335.389,151.277c-4.686,0-8.5-3.813-8.5-8.499
				c0.015-2.931,3.769-12.487,8.501-22.814c4.731,10.324,8.484,19.88,8.499,22.814C343.889,147.464,340.075,151.277,335.389,151.277
				z"/>
			<path d="M191.389,166.277c12.958,0,23.5-10.542,23.5-23.5c0-9.881-12.88-35.737-16.828-43.426l-6.672-12.995l-6.672,12.995
				c-3.948,7.689-16.828,33.544-16.828,43.426C167.889,155.735,178.431,166.277,191.389,166.277z M191.389,119.963
				c4.731,10.324,8.484,19.88,8.5,22.814c0,4.687-3.813,8.5-8.5,8.5c-4.687,0-8.5-3.813-8.5-8.499
				C182.904,139.847,186.657,130.29,191.389,119.963z"/>
		</g>
	</g>
</g>
<g>
</g>
<g>
</g>
<g>
</g>
<g>
</g>
<g>
</g>
<g>
</g>
<g>
</g>
<g>
</g>
<g>
</g>
<g>
</g>
<g>
</g>
<g>
</g>
<g>
</g>
<g>
</g>
<g>
</g>
</svg>
