<?xml version="1.0" encoding="iso-8859-1"?>
<!-- Generator: Adobe Illustrator 19.0.0, SVG Export Plug-In . SVG Version: 6.00 Build 0)  -->
<svg version="1.1" id="Layer_1" xmlns="http://www.w3.org/2000/svg" xmlns:xlink="http://www.w3.org/1999/xlink" x="0px" y="0px"
	 viewBox="0 0 511 511" style="enable-background:new 0 0 511 511;" xml:space="preserve">
<g>
	<polygon style="fill:#FEEF7F;" points="212.968,303 292.968,183 196.968,183 132.968,343 188.968,343 156.968,407 228.968,407 
		180.968,503 188.968,503 308.968,359 244.968,359 284.968,303 	"/>
	<g>
		<path style="fill:#EA9A10;" d="M284.968,303h-24l-40,56c0,0,12.75,0,24,0L284.968,303z"/>
		<polygon style="fill:#EA9A10;" points="212.968,303 292.968,183 268.968,183 188.968,303 		"/>
		<path style="fill:#EA9A10;" d="M284.968,359l-80,96l-24,48h8l120-144C308.968,359,296.218,359,284.968,359z"/>
	</g>
	<g>
		<polygon style="fill:#FEEF7F;" points="324.968,111 348.968,63 292.968,63 252.968,143 308.968,143 268.968,223 276.968,223 
			380.968,111 		"/>
		<path style="fill:#EA9A10;" d="M324.968,111l24-48h-24l-24,48C300.968,111,313.213,111,324.968,111z"/>
		<path style="fill:#EA9A10;" d="M356.968,111l-69.333,74.667L268.968,223h8l104-112C380.968,111,368.723,111,356.968,111z"/>
	</g>
	<g>
		<polygon style="fill:#FEEF7F;" points="196.968,55 220.968,7 164.968,7 124.968,87 180.968,87 140.968,167 148.968,167 
			252.968,55 		"/>
		<path style="fill:#EA9A10;" d="M196.968,55l24-48h-24l-24,48C172.968,55,185.213,55,196.968,55z"/>
		<path style="fill:#EA9A10;" d="M228.968,55l-69.333,74.667L140.968,167h8l104-112C252.968,55,240.723,55,228.968,55z"/>
		<g>
			<polygon points="299.542,296 226.982,296 259.208,247.41 246.728,239.215 198.955,311 270.394,311 230.394,367 292.956,367 
				204.576,473.056 241.103,400 169.103,400 201.103,336 144.046,336 202.046,191 260.968,191 260.968,176 191.89,176 121.89,351 
				176.833,351 144.833,415 216.833,415 168.833,511 192.481,511 324.981,352 259.542,352 			"/>
			<path d="M296.833,151l-40.001,80h23.406l117.929-127h-61.064l24.001-48h-72.771l-47.5,95H296.833z M297.603,71h39.23l-24.001,48
				h50.936l-74.025,79.72l31.36-62.72h-56.001L297.603,71z"/>
			<path d="M128.833,175h23.406L270.167,48h-61.064l24.001-48h-72.771l-47.5,95h56.001L128.833,175z M137.103,80l32.5-65h39.23
				l-24.001,48h50.936l-74.025,79.72L193.104,80H137.103z"/>
		</g>
	</g>
</g>
<g>
</g>
<g>
</g>
<g>
</g>
<g>
</g>
<g>
</g>
<g>
</g>
<g>
</g>
<g>
</g>
<g>
</g>
<g>
</g>
<g>
</g>
<g>
</g>
<g>
</g>
<g>
</g>
<g>
</g>
</svg>
