<?xml version="1.0" encoding="iso-8859-1"?>
<!-- Generator: Adobe Illustrator 19.0.0, SVG Export Plug-In . SVG Version: 6.00 Build 0)  -->
<svg version="1.1" id="Layer_1" xmlns="http://www.w3.org/2000/svg" xmlns:xlink="http://www.w3.org/1999/xlink" x="0px" y="0px"
	 viewBox="0 0 511.5 511.5" style="enable-background:new 0 0 511.5 511.5;" xml:space="preserve">
<g>
	<circle style="fill:#FEEF7F;" cx="184" cy="184" r="112"/>
	<path style="fill:#EA9A10;" d="M184,296c61.856,0,112-50.144,112-112c0-33.493-14.707-63.547-38.009-84.071
		C214.292,120.297,184,164.607,184,216c-34.005,0-61.802,26.524-63.864,60.01C138.253,288.608,160.262,296,184,296z"/>
	<path style="fill:#B8ECFF;" d="M456,264c-1.376,0-2.736,0.072-4.083,0.185C454.581,253.901,456,243.117,456,232
		c0-70.692-57.308-128-128-128s-128,57.308-128,128c-35.346,0-64,28.654-64,64c0,35.346,28.654,64,64,64h256c26.51,0,48-21.49,48-48
		C504,285.49,482.51,264,456,264z"/>
	<path style="fill:#B8ECFF;" d="M448,440c0,8.837-7.163,16-16,16s-16-7.163-16-16s16-40,16-40S448,431.163,448,440z"/>
	<path style="fill:#B8ECFF;" d="M384,488c0,8.837-7.163,16-16,16s-16-7.163-16-16s16-40,16-40S384,479.163,384,488z"/>
	<path style="fill:#B8ECFF;" d="M128,440c0,8.837,7.163,16,16,16s16-7.163,16-16s-16-40-16-40S128,431.163,128,440z"/>
	<path style="fill:#B8ECFF;" d="M192,488c0,8.837,7.163,16,16,16s16-7.163,16-16s-16-40-16-40S192,479.163,192,488z"/>
	<path style="fill:#57BFE6;" d="M456,264c-1.376,0-2.736,0.072-4.083,0.185C454.581,253.901,456,243.117,456,232
		c0-70.692-57.308-128-128-128c-4.047,0-8.048,0.197-12,0.564c65.064,6.051,116,60.791,116,127.436
		c0,11.117-1.419,21.901-4.083,32.185c1.347-0.114,2.706-0.185,4.083-0.185c26.51,0,48,21.49,48,48c0,26.51-21.49,48-48,48h24
		c26.51,0,48-21.49,48-48C504,285.49,482.51,264,456,264z"/>
	<g>
		<g>
			<rect x="280" y="272.5" style="fill:#FFFFFF;" width="16" height="15"/>
		</g>
		<g>
			<rect x="312" y="272.5" style="fill:#FFFFFF;" width="16" height="15"/>
		</g>
		<g>
			<rect x="344" y="272.5" style="fill:#FFFFFF;" width="16" height="15"/>
		</g>
	</g>
	<g>
		<polygon style="fill:#FEEF7F;" points="328,360 352,312 296,312 256,392 312,392 272,472 280,472 384,360 		"/>
		<path style="fill:#EA9A10;" d="M328,360l24-48h-24l-24,48C304,360,316.245,360,328,360z"/>
		<path style="fill:#EA9A10;" d="M360,360l-69.333,74.667L272,472h8l104-112C384,360,371.755,360,360,360z"/>
	</g>
	<g>
		<path d="M127.5,184c0-31.154,25.346-56.5,56.5-56.5v-15c-39.425,0-71.5,32.075-71.5,71.5H127.5z"/>
		<path d="M79.5,184c0-57.622,46.878-104.5,104.5-104.5c24.552,0,48.409,8.683,67.176,24.449l9.649-11.485
			C239.36,74.431,212.076,64.5,184,64.5c-65.893,0-119.5,53.607-119.5,119.5c0,36.837,16.61,71.061,45.571,93.893l9.287-11.779
			C94.028,246.144,79.5,216.214,79.5,184z"/>
		<path d="M432,383.579l-6.672,12.995C421.38,404.263,408.5,430.119,408.5,440c0,12.958,10.542,23.5,23.5,23.5
			s23.5-10.542,23.5-23.5c0-9.881-12.88-35.737-16.828-43.426L432,383.579z M432,448.5c-4.686,0-8.5-3.813-8.5-8.5
			c0.015-2.931,3.769-12.487,8.501-22.814c4.731,10.324,8.484,19.88,8.499,22.814C440.5,444.687,436.686,448.5,432,448.5z"/>
		<path d="M368,431.579l-6.672,12.995C357.38,452.263,344.5,478.119,344.5,488c0,12.958,10.542,23.5,23.5,23.5
			s23.5-10.542,23.5-23.5c0-9.881-12.88-35.737-16.828-43.426L368,431.579z M368,496.5c-4.686,0-8.5-3.813-8.5-8.5
			c0.015-2.931,3.769-12.487,8.501-22.814c4.731,10.324,8.484,19.88,8.499,22.814C376.5,492.687,372.686,496.5,368,496.5z"/>
		<path d="M144,383.579l-6.672,12.995C133.38,404.263,120.5,430.119,120.5,440c0,12.958,10.542,23.5,23.5,23.5
			s23.5-10.542,23.5-23.5c0-9.881-12.88-35.737-16.828-43.426L144,383.579z M144,448.5c-4.687,0-8.5-3.813-8.5-8.5
			c0.015-2.931,3.769-12.487,8.501-22.814c4.731,10.324,8.484,19.88,8.499,22.814C152.5,444.687,148.687,448.5,144,448.5z"/>
		<path d="M208,431.579l-6.672,12.995C197.38,452.263,184.5,478.119,184.5,488c0,12.958,10.542,23.5,23.5,23.5
			s23.5-10.542,23.5-23.5c0-9.881-12.88-35.737-16.828-43.426L208,431.579z M208,496.5c-4.687,0-8.5-3.813-8.5-8.5
			c0.015-2.931,3.769-12.487,8.501-22.814c4.731,10.324,8.484,19.88,8.499,22.814C216.5,492.687,212.687,496.5,208,496.5z"/>
		<path d="M461.199,256.751c1.517-8.131,2.301-16.417,2.301-24.751c0-74.715-60.785-135.5-135.5-135.5
			c-72.324,0-131.593,56.957-135.313,128.372c-36.003,3.674-64.187,34.422-64.187,71.378c0,39.425,32.075,71.75,71.5,71.75h40v-15
			h-40c-31.154,0-56.5-25.596-56.5-56.75c0-28.693,21.505-52.567,49.24-56.143c0.511,8.763,1.855,17.378,4.029,25.825l14.526-3.771
			c-2.519-9.785-3.796-19.937-3.796-30.146c0-66.444,54.056-120.508,120.5-120.508s120.5,54.052,120.5,120.496
			c0,27.702-9.138,53.741-26.426,75.308l11.703,9.381c10.767-13.431,18.816-28.81,23.804-45.152
			c21.601,0.835,38.919,18.909,38.919,40.71c0,22.332-18.168,40.75-40.5,40.75h-40v15h40c30.603,0,55.5-25.147,55.5-55.75
			C511.5,283.401,489.372,259.382,461.199,256.751z"/>
		<path d="M328,159.5v-15c-48.248,0-87.5,39.252-87.5,87.5h15C255.5,192.023,288.023,159.5,328,159.5z"/>
		<rect y="177" width="48" height="15"/>
		<rect x="176" width="15" height="48"/>
		<rect x="292.5" y="39.716" transform="matrix(0.7071 0.7071 -0.7071 0.7071 135.939 -192.2076)" width="15" height="56.569"/>
		<rect x="60.5" y="271.716" transform="matrix(-0.7071 -0.7071 0.7071 -0.7071 -96.0488 560.2153)" width="15" height="56.569"/>
		<rect x="39.716" y="60.5" transform="matrix(0.7071 0.7071 -0.7071 0.7071 68 -28.1665)" width="56.569" height="15"/>
		<path d="M364.136,305h-72.771l-47.5,95h56.001l-40.001,80h23.406l117.929-127h-61.064L364.136,305z M366.801,368l-74.025,79.72
			l31.36-62.72h-56.001l32.5-65h39.23l-24.001,48H366.801z"/>
	</g>
</g>
<g>
</g>
<g>
</g>
<g>
</g>
<g>
</g>
<g>
</g>
<g>
</g>
<g>
</g>
<g>
</g>
<g>
</g>
<g>
</g>
<g>
</g>
<g>
</g>
<g>
</g>
<g>
</g>
<g>
</g>
</svg>
