<?xml version="1.0" encoding="iso-8859-1"?>
<!-- Generator: Adobe Illustrator 19.0.0, SVG Export Plug-In . SVG Version: 6.00 Build 0)  -->
<svg version="1.1" id="Layer_1" xmlns="http://www.w3.org/2000/svg" xmlns:xlink="http://www.w3.org/1999/xlink" x="0px" y="0px"
	 viewBox="0 0 511.5 511.5" style="enable-background:new 0 0 511.5 511.5;" xml:space="preserve">
<g>
	<path style="fill:#DAEDF7;" d="M455.75,231.5c-1.376,0-2.736,0.072-4.083,0.185c2.663-10.284,4.083-21.068,4.083-32.185
		c0-70.692-57.308-128-128-128s-128,57.308-128,128c-35.346,0-64,28.654-64,64c0,35.346,28.654,64,64,64h256c26.51,0,48-21.49,48-48
		C503.75,252.99,482.26,231.5,455.75,231.5z"/>
	<path style="fill:#8BB4D9;" d="M455.75,231.5c-1.376,0-2.736,0.072-4.083,0.185c2.663-10.284,4.083-21.068,4.083-32.185
		c0-70.692-57.308-128-128-128c-4.047,0-8.048,0.197-12,0.564c65.064,6.051,116,60.791,116,127.436
		c0,11.117-1.419,21.901-4.083,32.185c1.347-0.114,2.706-0.185,4.083-0.185c26.51,0,48,21.49,48,48c0,26.51-21.49,48-48,48h24
		c26.51,0,48-21.49,48-48C503.75,252.99,482.26,231.5,455.75,231.5z"/>
	<g>
		<g>
			<rect x="279.75" y="208" style="fill:#FFFFFF;" width="16" height="15"/>
		</g>
		<g>
			<rect x="311.75" y="208" style="fill:#FFFFFF;" width="16" height="15"/>
		</g>
		<g>
			<rect x="343.75" y="208" style="fill:#FFFFFF;" width="16" height="15"/>
		</g>
	</g>
	<path style="fill:#FEEF7F;" d="M199.76,55.501C186.387,45.454,169.764,39.5,151.75,39.5c-44.183,0-80,35.817-80,80
		c0,44.183,35.817,80,80,80c18.013,0,34.636-5.953,48.008-16l7.992,8c-20.545,24.456-53.56,40-88,40c-61.856,0-112-50.144-112-112
		c0-61.856,50.144-112,112-112c34.441,0,67.455,15.544,88,40L199.76,55.501z"/>
	
		<rect x="302.779" y="310.529" transform="matrix(0.7071 0.7071 -0.7071 0.7071 325.2301 -130.1749)" style="fill:#B8ECFF;" width="33.941" height="33.941"/>
	
		<rect x="190.779" y="430.529" transform="matrix(0.7071 0.7071 -0.7071 0.7071 377.2788 -15.8317)" style="fill:#B8ECFF;" width="33.941" height="33.941"/>
	<g>
		
			<rect x="414.779" y="430.529" transform="matrix(0.7071 0.7071 -0.7071 0.7071 442.8869 -174.2236)" style="fill:#B8ECFF;" width="33.941" height="33.941"/>
	</g>
	<g>
		<path d="M199.75,335.5h40v-15h-40c-31.154,0-56.5-25.596-56.5-56.75c0-2.367,0.148-4.871,0.438-7.196l-14.885-1.921
			c-0.367,2.939-0.553,6.162-0.553,9.148C128.25,303.207,160.325,335.5,199.75,335.5z"/>
		<path d="M213.249,161.841C229.535,112.291,275.55,79,327.75,79c66.444,0,120.5,54.056,120.5,120.5
			c0,27.702-9.138,53.743-26.426,75.31l11.703,9.382c10.767-13.431,18.816-28.809,23.804-45.151
			c21.601,0.835,38.919,18.909,38.919,40.71c0,22.332-18.168,40.75-40.5,40.75h-56v15h56c30.603,0,55.5-25.147,55.5-55.75
			c0-28.849-22.128-52.743-50.301-55.374c1.517-8.131,2.301-16.48,2.301-24.814c0-74.715-60.785-135.531-135.5-135.531
			c-58.695,0-110.436,37.421-128.751,93.142L213.249,161.841z"/>
		<path d="M213.492,196.324l4.422-5.263l-17.454-17.47l-5.207,3.913C182.63,186.987,167.587,192,151.75,192
			c-39.977,0-72.5-32.523-72.5-72.5S111.773,47,151.75,47c15.838,0,30.882,5.013,43.505,14.498l5.208,3.914l17.449-17.474
			l-4.42-5.262C191.044,15.954,156,0,119.75,0C53.857,0,0.25,53.607,0.25,119.5S53.857,239,119.75,239
			C155.999,239,191.043,223.046,213.492,196.324z M119.75,224c-57.621,0-104.5-46.878-104.5-104.5S62.129,15,119.75,15
			c26.02,0,52.126,9.824,71.313,26.292C178.958,35.181,165.605,32,151.75,32c-48.248,0-87.5,39.252-87.5,87.5s39.252,87.5,87.5,87.5
			c13.855,0,27.207-3.18,39.311-9.292C171.874,214.177,145.77,224,119.75,224z"/>
		<path d="M362.446,356.803l10.607-10.356L361.857,335.5h21.893v-15h-21.893l11.197-11.447l-10.607-10.731l-18.697,18.634
			l-13.393-13.424l18.697-18.713l-10.857-10.614l-11.446,11.189V263.5h-15v21.893l-10.946-11.196l-10.482,10.606l18.76,18.697
			l-13.362,13.393l-18.681-18.697l-10.6,10.856l11.205,11.447H255.75v15h21.893l-11.197,10.947l10.607,10.481l18.697-18.759
			l13.393,13.362l-18.697,18.681l10.357,10.599l10.946-11.204V391.5h15v-21.893l11.446,11.196l10.732-10.606L330.294,351.5
			l13.424-13.393L362.446,356.803z M319.75,340.894L306.356,327.5l13.394-13.394l13.394,13.394L319.75,340.894z"/>
		<path d="M261.054,429.053l-10.607-10.731l-18.697,18.634l-13.393-13.424l18.697-18.713l-10.857-10.614l-11.446,11.189V383.5h-15
			v21.893l-10.946-11.196l-10.482,10.606l18.759,18.697l-13.362,13.393l-18.681-18.697l-10.6,10.856l11.205,11.447H143.75v15h21.893
			l-11.197,10.947l10.607,10.481l18.697-18.759l13.393,13.362l-18.697,18.681l10.357,10.599l10.946-11.204V511.5h15v-21.893
			l11.446,11.196l10.732-10.606L218.294,471.5l13.424-13.393l18.712,18.697l10.615-10.356L249.857,455.5h21.893v-15h-21.893
			L261.054,429.053z M207.75,460.894L194.356,447.5l13.394-13.394l13.394,13.394L207.75,460.894z"/>
		<path d="M485.054,429.053l-10.607-10.731l-18.697,18.634l-13.393-13.424l18.697-18.713l-10.857-10.614l-11.446,11.189V383.5h-15
			v21.893l-10.946-11.196l-10.482,10.606l18.76,18.697l-13.362,13.393l-18.681-18.697l-10.6,10.856l11.205,11.447H367.75v15h21.893
			l-11.197,10.947l10.607,10.481l18.697-18.759l13.393,13.362l-18.697,18.681l10.357,10.599l10.946-11.204V511.5h15v-21.893
			l11.446,11.196l10.732-10.606L442.294,471.5l13.424-13.393l18.712,18.697l10.615-10.356L473.857,455.5h21.893v-15h-21.893
			L485.054,429.053z M431.75,460.894L418.356,447.5l13.394-13.394l13.394,13.394L431.75,460.894z"/>
	</g>
</g>
<g>
</g>
<g>
</g>
<g>
</g>
<g>
</g>
<g>
</g>
<g>
</g>
<g>
</g>
<g>
</g>
<g>
</g>
<g>
</g>
<g>
</g>
<g>
</g>
<g>
</g>
<g>
</g>
<g>
</g>
</svg>
