<?xml version="1.0" encoding="iso-8859-1"?>
<!-- Generator: Adobe Illustrator 19.0.0, SVG Export Plug-In . SVG Version: 6.00 Build 0)  -->
<svg version="1.1" id="Layer_1" xmlns="http://www.w3.org/2000/svg" xmlns:xlink="http://www.w3.org/1999/xlink" x="0px" y="0px"
	 viewBox="0 0 511 511" style="enable-background:new 0 0 511 511;" xml:space="preserve">
<g>
	<path style="fill:#B8ECFF;" d="M103.5,203.41c0,26.51-21.49,48-48,48s-48-21.49-48-48s48-112,48-112S103.5,176.9,103.5,203.41z"/>
	<path style="fill:#57BFE6;" d="M55.5,91.41c0,0-5.113,9.107-12,22.294c14.217,27.224,36,71.847,36,89.706
		c0,22.366-15.297,41.159-36,46.488c3.835,0.987,7.856,1.512,12,1.512c26.51,0,48-21.49,48-48S55.5,91.41,55.5,91.41z"/>
	<path style="fill:#B8ECFF;" d="M263.5,203.41c0,26.51-21.49,48-48,48s-48-21.49-48-48s48-112,48-112S263.5,176.9,263.5,203.41z"/>
	<path style="fill:#57BFE6;" d="M215.5,91.41c0,0-5.113,9.107-12,22.294c14.217,27.224,36,71.847,36,89.706
		c0,22.366-15.297,41.159-36,46.488c3.835,0.987,7.856,1.512,12,1.512c26.51,0,48-21.49,48-48S215.5,91.41,215.5,91.41z"/>
	<path style="fill:#B8ECFF;" d="M423.5,203.41c0,26.51-21.49,48-48,48s-48-21.49-48-48s48-112,48-112S423.5,176.9,423.5,203.41z"/>
	<path style="fill:#57BFE6;" d="M375.5,91.41c0,0-5.113,9.107-12,22.294c14.217,27.224,36,71.847,36,89.706
		c0,22.366-15.297,41.159-36,46.488c3.835,0.987,7.856,1.512,12,1.512c26.51,0,48-21.49,48-48S375.5,91.41,375.5,91.41z"/>
	<g>
		<rect x="31.5" y="203.91" style="fill:#FFFFFF;" width="16" height="15"/>
	</g>
	<g>
		<rect x="191.5" y="203.91" style="fill:#FFFFFF;" width="16" height="15"/>
	</g>
	<g>
		<rect x="351.5" y="203.91" style="fill:#FFFFFF;" width="16" height="15"/>
	</g>
	<g>
		<path style="fill:#B8ECFF;" d="M183.5,379.41c0,26.51-21.49,48-48,48s-48-21.49-48-48c0-26.51,48-112,48-112
			S183.5,352.9,183.5,379.41z"/>
		<path style="fill:#57BFE6;" d="M135.5,267.41c0,0-5.113,9.107-12,22.294c14.217,27.224,36,71.847,36,89.706
			c0,22.366-15.297,41.159-36,46.488c3.835,0.987,7.856,1.512,12,1.512c26.51,0,48-21.49,48-48
			C183.5,352.9,135.5,267.41,135.5,267.41z"/>
		<path style="fill:#B8ECFF;" d="M343.5,379.41c0,26.51-21.49,48-48,48s-48-21.49-48-48c0-26.51,48-112,48-112
			S343.5,352.9,343.5,379.41z"/>
		<path style="fill:#57BFE6;" d="M295.5,267.41c0,0-5.113,9.107-12,22.294c14.217,27.224,36,71.847,36,89.706
			c0,22.366-15.297,41.159-36,46.488c3.835,0.987,7.856,1.512,12,1.512c26.51,0,48-21.49,48-48
			C343.5,352.9,295.5,267.41,295.5,267.41z"/>
		<path style="fill:#B8ECFF;" d="M503.5,379.41c0,26.51-21.49,48-48,48c-26.51,0-48-21.49-48-48c0-26.51,48-112,48-112
			S503.5,352.9,503.5,379.41z"/>
		<path style="fill:#57BFE6;" d="M455.5,267.41c0,0-5.113,9.107-12,22.294c14.217,27.224,36,71.847,36,89.706
			c0,22.366-15.297,41.159-36,46.488c3.835,0.987,7.856,1.512,12,1.512c26.51,0,48-21.49,48-48
			C503.5,352.9,455.5,267.41,455.5,267.41z"/>
		<g>
			<path d="M111,203.41c0-27.672-43.949-106.747-48.96-115.672L55.5,76.09l-6.54,11.647C43.949,96.663,0,175.737,0,203.41
				c0,30.603,24.897,55.5,55.5,55.5S111,234.013,111,203.41z M55.5,243.91c-22.332,0-40.5-18.169-40.5-40.5
				c0-17.323,25.149-67.801,40.5-96.392C70.852,135.605,96,186.079,96,203.41C96,225.741,77.831,243.91,55.5,243.91z"/>
			<path d="M271,203.41c0-27.672-43.949-106.747-48.96-115.672L215.5,76.09l-6.54,11.647C203.949,96.663,160,175.737,160,203.41
				c0,30.603,24.897,55.5,55.5,55.5S271,234.013,271,203.41z M215.5,243.91c-22.332,0-40.5-18.169-40.5-40.5
				c0-17.323,25.149-67.801,40.5-96.392c15.351,28.588,40.5,79.062,40.5,96.392C256,225.741,237.831,243.91,215.5,243.91z"/>
			<path d="M431,203.41c0-27.672-43.949-106.747-48.96-115.672L375.5,76.09l-6.54,11.647C363.949,96.663,320,175.737,320,203.41
				c0,30.603,24.897,55.5,55.5,55.5S431,234.013,431,203.41z M375.5,243.91c-22.332,0-40.5-18.169-40.5-40.5
				c0-17.323,25.149-67.801,40.5-96.392c15.351,28.588,40.5,79.062,40.5,96.392C416,225.741,397.831,243.91,375.5,243.91z"/>
			<path d="M135.5,252.09l-6.54,11.647C123.949,272.663,80,351.737,80,379.41c0,30.603,24.897,55.5,55.5,55.5s55.5-24.897,55.5-55.5
				c0-27.672-43.949-106.747-48.96-115.672L135.5,252.09z M135.5,419.91c-22.332,0-40.5-18.168-40.5-40.5
				c0-17.323,25.149-67.801,40.501-96.392C150.852,311.605,176,362.079,176,379.41C176,401.741,157.831,419.91,135.5,419.91z"/>
			<path d="M295.5,252.09l-6.54,11.647C283.949,272.663,240,351.737,240,379.41c0,30.603,24.897,55.5,55.5,55.5
				s55.5-24.897,55.5-55.5c0-27.672-43.949-106.747-48.96-115.672L295.5,252.09z M295.5,419.91c-22.332,0-40.5-18.168-40.5-40.5
				c0-17.323,25.149-67.801,40.5-96.392c15.351,28.588,40.5,79.061,40.5,96.392C336,401.741,317.831,419.91,295.5,419.91z"/>
			<path d="M462.04,263.738l-6.54-11.647l-6.54,11.647C443.949,272.663,400,351.737,400,379.41c0,30.603,24.897,55.5,55.5,55.5
				s55.5-24.897,55.5-55.5C511,351.737,467.051,272.663,462.04,263.738z M455.5,419.91c-22.332,0-40.5-18.168-40.5-40.5
				c0-17.323,25.149-67.801,40.5-96.392c15.351,28.588,40.5,79.061,40.5,96.392C496,401.741,477.831,419.91,455.5,419.91z"/>
		</g>
		<g>
			<rect x="111.5" y="379.91" style="fill:#FFFFFF;" width="16" height="15"/>
		</g>
		<g>
			<rect x="271.5" y="379.91" style="fill:#FFFFFF;" width="16" height="15"/>
		</g>
		<g>
			<rect x="431.5" y="379.91" style="fill:#FFFFFF;" width="16" height="15"/>
		</g>
	</g>
</g>
<g>
</g>
<g>
</g>
<g>
</g>
<g>
</g>
<g>
</g>
<g>
</g>
<g>
</g>
<g>
</g>
<g>
</g>
<g>
</g>
<g>
</g>
<g>
</g>
<g>
</g>
<g>
</g>
<g>
</g>
</svg>
