<?xml version="1.0" encoding="iso-8859-1"?>
<!-- Generator: Adobe Illustrator 19.0.0, SVG Export Plug-In . SVG Version: 6.00 Build 0)  -->
<svg version="1.1" id="Layer_1" xmlns="http://www.w3.org/2000/svg" xmlns:xlink="http://www.w3.org/1999/xlink" x="0px" y="0px"
	 viewBox="0 0 511 511" style="enable-background:new 0 0 511 511;" xml:space="preserve">
<g>
	<path style="fill:#FF9AC9;" d="M255.5,139.5c-88.366,0-160,72-160,160h96c0-35,28.654-64,64-64s64,29,64,64h96
		C415.5,211.5,343.865,139.5,255.5,139.5z"/>
	<path style="fill:#FEEF7F;" d="M255.5,171.5c-70.692,0-128,57-128,128h64c0-35,28.654-64,64-64s64,29,64,64h64
		C383.5,228.5,326.192,171.5,255.5,171.5z"/>
	<path style="fill:#87E6DE;" d="M255.5,203.5c-53.019,0-96,43-96,96h32c0-35,28.654-64,64-64s64,29,64,64h32
		C351.5,246.5,308.519,203.5,255.5,203.5z"/>
	<path style="fill:#FFFFFF;" d="M463.5,171.5c-17.67,0-32,14.33-32,32c0-17.67-14.33-32-32-32c17.67,0,32-14.33,32-32
		C431.5,157.17,445.83,171.5,463.5,171.5z"/>
	<path style="fill:#FFFFFF;" d="M391.5,107.5c-17.67,0-32,14.33-32,32c0-17.67-14.33-32-32-32c17.67,0,32-14.33,32-32
		C359.5,93.17,373.83,107.5,391.5,107.5z"/>
	<path style="fill:#FFFFFF;" d="M143.5,195.5c-17.67,0-32,14.33-32,32c0-17.67-14.33-32-32-32c17.67,0,32-14.33,32-32
		C111.5,181.17,125.83,195.5,143.5,195.5z"/>
	<path style="fill:#B8ECFF;" d="M207.5,379.5c-2.497,0-4.905,0.382-7.168,1.09c4.591-10.087,7.168-21.284,7.168-33.09
		c0-44.183-35.817-80-80-80c-38.86,0-71.236,27.711-78.477,64.447C25.579,335.111,7.5,355.188,7.5,379.5c0,26.51,21.49,48,48,48h152
		c13.255,0,24-10.745,24-24S220.755,379.5,207.5,379.5z"/>
	<g>
		<g>
			<rect x="79.5" y="380" style="fill:#FFFFFF;" width="16" height="15"/>
		</g>
		<g>
			<rect x="111.5" y="380" style="fill:#FFFFFF;" width="16" height="15"/>
		</g>
		<g>
			<rect x="143.5" y="380" style="fill:#FFFFFF;" width="16" height="15"/>
		</g>
	</g>
	<path style="fill:#57BFE6;" d="M207.5,379.5c-2.497,0-4.905,0.382-7.168,1.09c4.591-10.087,7.168-21.284,7.168-33.09
		c0-44.183-35.817-80-80-80c-4.064,0-8.051,0.32-11.951,0.905c38.466,5.811,67.951,39.008,67.951,79.095
		c0,11.805-2.578,23.002-7.168,33.09c2.264-0.707,4.671-1.09,7.168-1.09c13.255,0,24,10.745,24,24s-10.745,24-24,24h24
		c13.255,0,24-10.745,24-24S220.755,379.5,207.5,379.5z"/>
	<path style="fill:#B8ECFF;" d="M303.5,379.5c2.497,0,4.905,0.382,7.168,1.09c-4.591-10.087-7.168-21.284-7.168-33.09
		c0-44.183,35.817-80,80-80c38.86,0,71.236,27.711,78.477,64.447c23.445,3.164,41.523,23.241,41.523,47.553c0,26.51-21.49,48-48,48
		h-152c-13.255,0-24-10.745-24-24S290.245,379.5,303.5,379.5z"/>
	<path style="fill:#57BFE6;" d="M461.977,331.947c-7.24-36.736-39.617-64.447-78.477-64.447c-4.096,0-8.119,0.311-12.049,0.905
		c33.4,5.006,60.043,30.647,66.526,63.542c23.445,3.164,41.524,23.241,41.524,47.553c0,26.509-21.49,48-48,48h24
		c26.509,0,48-21.491,48-48C503.5,355.188,485.421,335.111,461.977,331.947z"/>
	<g>
		<g>
			<rect x="351.5" y="380" style="fill:#FFFFFF;" width="16" height="15"/>
		</g>
		<g>
			<rect x="383.5" y="380" style="fill:#FFFFFF;" width="16" height="15"/>
		</g>
		<g>
			<rect x="415.5" y="380" style="fill:#FFFFFF;" width="16" height="15"/>
		</g>
	</g>
	<g>
		<path d="M424,203.5h15c0-13.509,10.991-24.5,24.5-24.5v-15c-13.509,0-24.5-10.991-24.5-24.5h-15c0,13.509-10.991,24.5-24.5,24.5
			v15C413.009,179,424,189.991,424,203.5z M431.5,162.616c2.471,3.412,5.472,6.413,8.884,8.884
			c-3.412,2.471-6.413,5.472-8.884,8.884c-2.471-3.412-5.472-6.413-8.884-8.884C426.028,169.029,429.029,166.028,431.5,162.616z"/>
		<path d="M352,139.5h15c0-13.509,10.991-24.5,24.5-24.5v-15c-13.509,0-24.5-10.991-24.5-24.5h-15c0,13.509-10.991,24.5-24.5,24.5
			v15C341.009,115,352,125.991,352,139.5z M359.5,98.616c2.471,3.412,5.472,6.413,8.884,8.884c-3.412,2.471-6.413,5.472-8.884,8.884
			c-2.471-3.412-5.472-6.413-8.884-8.884C354.028,105.029,357.029,102.028,359.5,98.616z"/>
		<path d="M104,227.5h15c0-13.509,10.991-24.5,24.5-24.5v-15c-13.509,0-24.5-10.991-24.5-24.5h-15c0,13.509-10.991,24.5-24.5,24.5
			v15C93.009,203,104,213.991,104,227.5z M111.5,186.616c2.471,3.412,5.472,6.413,8.884,8.884c-3.412,2.471-6.413,5.472-8.884,8.884
			c-2.471-3.412-5.472-6.413-8.884-8.884C106.028,193.029,109.029,190.028,111.5,186.616z"/>
		<path d="M80,347.5h15c0-17.92,14.58-32.5,32.5-32.5v-15C101.309,300,80,321.309,80,347.5z"/>
		<path d="M336,347.5h15c0-17.92,14.58-32.5,32.5-32.5v-15C357.309,300,336,321.309,336,347.5z"/>
		<path d="M468.193,325.481c-6.65-25.559-24.594-46.607-48.16-57.48c-7.007-36.756-26.29-70.304-54.773-95.032
			C334.828,146.55,295.848,132,255.5,132c-39.924,0-78.591,14.28-108.877,40.21l9.755,11.395C183.949,159.999,219.151,147,255.5,147
			c36.735,0,72.222,13.245,99.925,37.296c23.718,20.591,40.427,47.891,47.991,77.992c-5.882-1.374-11.991-2.15-18.258-2.267
			C367.915,203.197,315.413,164,255.5,164c-59.913,0-112.416,39.197-129.658,96.021c-6.268,0.117-12.376,0.893-18.259,2.268
			c1.374-5.48,3.043-10.885,5.016-16.164l-14.051-5.25c-3.284,8.788-5.814,17.887-7.574,27.124
			c-23.57,10.872-41.517,31.921-48.167,57.483C18.303,331.239,0,353.515,0,379.75c0,30.603,24.897,55.75,55.5,55.75h152
			c17.369,0,31.5-14.381,31.5-31.75c0-16.027-12.035-29.413-27.54-31.367c2.336-7.95,3.54-16.321,3.54-24.82
			c0-18.707-5.904-36.09-15.942-50.329c1.211-30.092,26.058-54.218,56.442-54.218c30.384,0,55.231,24.103,56.442,54.195
			C301.904,311.449,296,328.797,296,347.504c0,8.499,1.204,16.806,3.54,24.756c-15.506,1.955-27.54,15.464-27.54,31.491
			c0,17.369,14.131,31.749,31.5,31.749h152c30.603,0,55.5-25.147,55.5-55.75C511,353.515,492.697,331.239,468.193,325.481z
			 M255.5,179c52.113,0,97.899,33.35,114.23,82.087c-5.694,0.904-11.207,2.357-16.482,4.307C338.899,224.134,299.86,196,255.5,196
			c-44.361,0-83.4,28.134-97.748,69.393c-5.275-1.95-10.789-3.403-16.483-4.306C157.6,212.35,203.387,179,255.5,179z M200,347.502
			c0,15.837-5.013,30.878-14.496,43.5l11.992,9.261c3.106-4.134,5.8-8.763,8.099-12.763h1.905c9.098,0,16.5,7.402,16.5,16.5
			s-7.402,16.5-16.5,16.5h-152c-22.332,0-40.5-18.418-40.5-40.75c0-16.91,10.422-31.551,25.177-37.605
			c-0.113,1.813-0.177,3.577-0.177,5.418c0,5.886,0.589,11.74,1.75,17.461l14.7-3c-0.962-4.74-1.45-9.629-1.45-14.516
			c0-39.977,32.523-72.504,72.5-72.504S200,307.525,200,347.502z M255.5,228c-33.58,0-61.811,23.274-69.449,54.535
			c-4.482-4.043-9.383-7.63-14.629-10.687C183.25,235.75,217.026,211,255.5,211c38.473,0,72.249,24.75,84.079,60.847
			c-5.246,3.058-10.147,6.644-14.629,10.687C317.311,251.274,289.08,228,255.5,228z M455.5,420.5h-152
			c-9.098,0-16.5-7.402-16.5-16.5s7.402-16.5,16.5-16.5h1.905c2.298,4,4.993,8.629,8.099,12.763l11.992-9.136
			C316.013,378.505,311,363.4,311,347.563c0-39.977,32.523-72.531,72.5-72.531c39.977,0,72.5,32.508,72.5,72.484
			c0,4.886-0.488,9.76-1.45,14.5l14.7,2.98c1.161-5.721,1.75-11.608,1.75-17.494c0-1.841-0.064-3.668-0.177-5.482
			C485.578,348.075,496,362.84,496,379.75C496,402.082,477.832,420.5,455.5,420.5z"/>
	</g>
</g>
<g>
</g>
<g>
</g>
<g>
</g>
<g>
</g>
<g>
</g>
<g>
</g>
<g>
</g>
<g>
</g>
<g>
</g>
<g>
</g>
<g>
</g>
<g>
</g>
<g>
</g>
<g>
</g>
<g>
</g>
</svg>
