<?xml version="1.0" encoding="iso-8859-1"?>
<!-- Generator: Adobe Illustrator 19.0.0, SVG Export Plug-In . SVG Version: 6.00 Build 0)  -->
<svg version="1.1" id="Layer_1" xmlns="http://www.w3.org/2000/svg" xmlns:xlink="http://www.w3.org/1999/xlink" x="0px" y="0px"
	 viewBox="0 0 512 512" style="enable-background:new 0 0 512 512;" xml:space="preserve">
<g>
	<rect y="327.5" style="fill:#B8ECFF;" width="512" height="128"/>
	<rect y="327.5" style="fill:#57BFE6;" width="512" height="24"/>
	<path style="fill:#FEEF7F;" d="M368,271.5c0,20.4-5.46,39.53-14.99,56H158.99c-9.53-16.47-14.99-35.6-14.99-56
		c0-61.86,50.14-112,112-112S368,209.64,368,271.5z"/>
	<path style="fill:#EA9A10;" d="M363.35,303.5c-2.51,8.46-6,16.5-10.34,24H158.99c-4.34-7.5-7.83-15.54-10.34-24H363.35z"/>
	<g>
		<g>
			<rect x="216" y="384" style="fill:#FFFFFF;" width="16" height="15"/>
		</g>
		<g>
			<rect x="248" y="384" style="fill:#FFFFFF;" width="16" height="15"/>
		</g>
		<g>
			<rect x="280" y="384" style="fill:#FFFFFF;" width="16" height="15"/>
		</g>
	</g>
	<g>
		<polygon style="fill:#EA9A10;" points="280,127.5 232,127.5 254,55.5 258,55.5 		"/>
		<polygon style="fill:#EA9A10;" points="374.794,186.647 340.853,152.706 407.321,117.351 410.149,120.179 		"/>
		<polygon style="fill:#EA9A10;" points="400,295.5 400,247.5 472,269.5 472,273.5 		"/>
		<polygon style="fill:#EA9A10;" points="112,247.5 112,295.5 40,273.5 40,269.5 		"/>
		<polygon style="fill:#EA9A10;" points="171.147,152.706 137.206,186.647 101.851,120.179 104.679,117.351 		"/>
	</g>
	<g>
		<path d="M184.5,271.5h15c0-31.154,25.346-56.5,56.5-56.5v-15C216.575,200,184.5,232.075,184.5,271.5z"/>
		<path d="M365.226,320.5c6.741-16,10.274-31.984,10.274-48.75c0-65.893-53.607-119.625-119.5-119.625S136.5,205.92,136.5,271.813
			c0,16.766,3.533,32.688,10.273,48.688H0v15h512v-15H365.226z M348.575,320.5H163.424c-7.807-15-11.924-31.81-11.924-48.75
			c0-57.622,46.879-104.625,104.5-104.625s104.5,47.066,104.5,104.688C360.5,288.753,356.382,305.5,348.575,320.5z"/>
		<rect x="32" y="352.5" width="112" height="15"/>
		<rect x="320" y="384.5" width="144" height="15"/>
		<rect x="112" y="384.5" width="80" height="15"/>
		<rect x="296" y="416.5" width="216" height="15"/>
		<rect y="416.5" width="80" height="15"/>
		<rect y="448.5" width="512" height="15"/>
		<path d="M263.551,48.5h-15.102l-26.583,87h68.268L263.551,48.5z M256,75.12l13.866,45.38h-27.732L256,75.12z"/>
		<path d="M419.377,118.801L408.7,108.122l-80.316,42.722l48.273,48.272L419.377,118.801z M353.321,154.568l41.894-22.283
			l-22.283,41.893L353.321,154.568z"/>
		<path d="M392,305.634l87-26.583v-15.102l-87-26.583V305.634z M407,257.634l45.38,13.866L407,285.366V257.634z"/>
		<path d="M119,237.366l-87,26.583v15.102l87,26.583V237.366z M104,285.366L58.62,271.5L104,257.634V285.366z"/>
		<path d="M183.616,150.844L103.3,108.122l-10.677,10.679l42.721,80.315L183.616,150.844z M158.679,154.568l-19.61,19.609
			l-22.283-41.893L158.679,154.568z"/>
	</g>
</g>
<g>
</g>
<g>
</g>
<g>
</g>
<g>
</g>
<g>
</g>
<g>
</g>
<g>
</g>
<g>
</g>
<g>
</g>
<g>
</g>
<g>
</g>
<g>
</g>
<g>
</g>
<g>
</g>
<g>
</g>
</svg>
