<?xml version="1.0" encoding="iso-8859-1"?>
<!-- Generator: Adobe Illustrator 19.0.0, SVG Export Plug-In . SVG Version: 6.00 Build 0)  -->
<svg version="1.1" id="Layer_1" xmlns="http://www.w3.org/2000/svg" xmlns:xlink="http://www.w3.org/1999/xlink" x="0px" y="0px"
	 viewBox="0 0 511 511" style="enable-background:new 0 0 511 511;" xml:space="preserve">
<g>
	<path style="fill:#87E6DE;" d="M375.5,143h-256c-17.673,0-32-14.327-32-32V79h288V143z"/>
	<rect x="87.5" y="79" style="fill:#1CB7BD;" width="288" height="24"/>
	<path style="fill:#87E6DE;" d="M391.5,207h-224c-17.673,0-32-14.327-32-32v-32h256c17.673,0,32,14.327,32,32l0,0
		C423.5,192.673,409.173,207,391.5,207z"/>
	<path style="fill:#87E6DE;" d="M343.5,271h-128c-17.673,0-32-14.327-32-32v-32h192v32C375.5,256.673,361.173,271,343.5,271z"/>
	<rect x="183.5" y="207" style="fill:#1CB7BD;" width="192" height="24"/>
	<path style="fill:#87E6DE;" d="M279.5,335h-96c-17.673,0-32-14.327-32-32l0,0c0-17.673,14.327-32,32-32h128v32
		C311.5,320.673,297.173,335,279.5,335z"/>
	<path style="fill:#87E6DE;" d="M239.5,399h-88c-17.673,0-32-14.327-32-32l0,0c0-17.673,14.327-32,32-32h120v32
		C271.5,384.673,257.173,399,239.5,399z"/>
	<path style="fill:#87E6DE;" d="M239.5,399h-88c-17.673,0-32-14.327-32-32l0,0c0-17.673,14.327-32,32-32h120v32
		C271.5,384.673,257.173,399,239.5,399z"/>
	<path style="fill:#1CB7BD;" d="M271.5,335v24H120.51c1.44-5.62,4.38-10.65,8.36-14.63c5.79-5.79,13.79-9.37,22.63-9.37H271.5z"/>
	<path style="fill:#87E6DE;" d="M207.5,463h-56v-32c0-17.673,14.327-32,32-32h56v32C239.5,448.673,225.173,463,207.5,463z"/>
	<path style="fill:#1CB7BD;" d="M422.49,167H135.5v-24h256C406.41,143,418.94,153.2,422.49,167z"/>
	<path style="fill:#1CB7BD;" d="M311.5,271v24H152.51c1.44-5.62,4.38-10.65,8.36-14.63c5.79-5.79,13.79-9.37,22.63-9.37H311.5z"/>
	<path style="fill:#1CB7BD;" d="M239.5,399v24h-86.99c3.55-13.8,16.08-24,30.99-24H239.5z"/>
	<g>
		<g>
			<rect x="239.5" y="199.5" style="fill:#FFFFFF;" width="16" height="15"/>
		</g>
		<g>
			<rect x="271.5" y="199.5" style="fill:#FFFFFF;" width="16" height="15"/>
		</g>
		<g>
			<rect x="303.5" y="199.5" style="fill:#FFFFFF;" width="16" height="15"/>
		</g>
	</g>
	<g>
		<rect x="335.5" y="296" width="16" height="15"/>
		<path d="M479.5,247.5c-17.369,0-31.5,14.131-31.5,31.5h15c0-9.098,7.402-16.5,16.5-16.5c9.098,0,16.5,7.652,16.5,16.75
			S488.598,296,479.5,296h-112v15h112c17.369,0,31.5-14.381,31.5-31.75S496.869,247.5,479.5,247.5z"/>
		<path d="M431.5,328H310.449c5.346-7,8.051-15.75,8.051-25v-24h25c21.78,0,39-18.22,39-40v-24h9c21.78,0,39.5-17.72,39.5-39.5
			S413.28,136,391.5,136h-9V72h-335v15h32v24c0,21.78,18.22,40,40,40h8v24c0,21.78,18.22,40,40,40h8v24c0,9.25,3.705,18,9.051,25
			H183.5c-9.022,0-17.342,2.547-24,7.658V272h-96C46.131,272,32,285.881,32,303.25s14.131,31.375,31.5,31.375S95,320.369,95,303H80
			c0,9.098-7.402,16.5-16.5,16.5S47,312.348,47,303.25S54.402,287,63.5,287h84.125c-2.32,5-3.625,10.612-3.625,16.5
			c0,9.25,3.205,17.5,8.551,24.5H151.5c-21.78,0-39.5,17.72-39.5,39.5s17.72,39.5,39.5,39.5h1.051c-5.346,6-9.051,14.75-9.051,24v40
			h64c21.78,0,39-18.22,39-40v-25.223c19-3.515,32-19.561,32-38.777v-24h1h152c9.098,0,16.5,7.152,16.5,16.25
			s-7.402,16.375-16.5,16.375c-9.098,0-16.5-7.527-16.5-16.625h-15c0,17.369,14.131,31.5,31.5,31.5c17.369,0,31.5-13.881,31.5-31.25
			S448.869,328,431.5,328z M231.5,431c0,13.51-10.491,25-24,25h-49v-25c0-13.51,11.491-24,25-24h48V431z M303.5,303
			c0,13.51-10.491,25-24,25h-8h-32v15h24v24c0,13.51-10.491,25-24,25h-88c-13.509,0-24.5-10.99-24.5-24.5s10.991-24.5,24.5-24.5h56
			v-15h-24c-13.509,0-24.5-10.99-24.5-24.5s10.991-24.5,24.5-24.5h72v-15h-40c-13.509,0-25-11.49-25-25v-24h33v-15h-56
			c-13.509,0-25-11.49-25-25v-24h105v-15h-128c-13.509,0-25-11.49-25-25V87h273v49h-56v15h80c13.509,0,24.5,10.99,24.5,24.5
			S405.009,200,391.5,200h-56v15h32v24c0,13.51-10.491,25-24,25h-56v15h16V303z"/>
		<rect x="111.5" y="240" width="16" height="15"/>
		<path d="M95.5,240h-64c-9.098,0-16.5-7.652-16.5-16.75s7.402-16.625,16.5-16.625S48,213.902,48,223h15
			c0-17.369-14.131-31.5-31.5-31.5S0,205.881,0,223.25S14.131,255,31.5,255h64V240z"/>
		<rect x="47.5" y="40" width="336" height="15"/>
	</g>
</g>
<g>
</g>
<g>
</g>
<g>
</g>
<g>
</g>
<g>
</g>
<g>
</g>
<g>
</g>
<g>
</g>
<g>
</g>
<g>
</g>
<g>
</g>
<g>
</g>
<g>
</g>
<g>
</g>
<g>
</g>
</svg>
