<?xml version="1.0" encoding="iso-8859-1"?>
<!-- Generator: Adobe Illustrator 19.0.0, SVG Export Plug-In . SVG Version: 6.00 Build 0)  -->
<svg version="1.1" id="Layer_1" xmlns="http://www.w3.org/2000/svg" xmlns:xlink="http://www.w3.org/1999/xlink" x="0px" y="0px"
	 viewBox="0 0 511 511" style="enable-background:new 0 0 511 511;" xml:space="preserve">
<g>
	<path style="fill:#DAEDF7;" d="M455.5,195.109c-1.376,0-2.736,0.072-4.083,0.185c2.663-10.284,4.083-21.068,4.083-32.185
		c0-70.692-57.308-128-128-128s-128,57.308-128,128c-35.346,0-64,28.654-64,64c0,35.346,28.654,64,64,64h256c26.51,0,48-21.49,48-48
		C503.5,216.6,482.01,195.109,455.5,195.109z"/>
	<path style="fill:#8BB4D9;" d="M455.5,195.109c-1.376,0-2.736,0.072-4.083,0.185c2.663-10.284,4.083-21.068,4.083-32.185
		c0-70.692-57.308-128-128-128c-4.047,0-8.048,0.197-12,0.564c65.064,6.051,116,60.791,116,127.436
		c0,11.117-1.419,21.901-4.083,32.185c1.347-0.114,2.706-0.185,4.083-0.185c26.51,0,48,21.49,48,48c0,26.51-21.49,48-48,48h24
		c26.51,0,48-21.49,48-48C503.5,216.6,482.01,195.109,455.5,195.109z"/>
	<g>
		<g>
			<rect x="279.5" y="203.609" style="fill:#FFFFFF;" width="16" height="15"/>
		</g>
		<g>
			<rect x="311.5" y="203.609" style="fill:#FFFFFF;" width="16" height="15"/>
		</g>
		<g>
			<rect x="343.5" y="203.609" style="fill:#FFFFFF;" width="16" height="15"/>
		</g>
	</g>
	
		<rect x="302.529" y="274.139" transform="matrix(0.7071 0.7071 -0.7071 0.7071 299.4248 -140.6567)" style="fill:#B8ECFF;" width="33.941" height="33.941"/>
	
		<rect x="190.529" y="402.139" transform="matrix(0.7071 0.7071 -0.7071 0.7071 357.1304 -23.9704)" style="fill:#B8ECFF;" width="33.941" height="33.941"/>
	<g>
		
			<rect x="414.529" y="402.139" transform="matrix(0.7071 0.7071 -0.7071 0.7071 422.7385 -182.3623)" style="fill:#B8ECFF;" width="33.941" height="33.941"/>
	</g>
	<g>
		<path d="M255,163.109c0-39.977,32.523-72.5,72.5-72.5v-15c-48.248,0-87.5,39.252-87.5,87.5H255z"/>
		<path d="M239.5,299.109v-15h-40c-31.154,0-56.5-25.596-56.5-56.75c0-28.693,21.505-52.567,49.241-56.143
			c0.511,8.761,1.854,17.376,4.028,25.824l14.527-3.77c-2.519-9.787-3.796-19.94-3.796-30.146
			c0-66.444,54.056-120.508,120.5-120.508S448,96.669,448,163.113c0,27.701-9.138,53.741-26.426,75.307l11.703,9.382
			c10.767-13.432,18.816-28.81,23.804-45.152C478.682,203.484,496,221.558,496,243.36c0,22.332-18.168,40.75-40.5,40.75h-56v15h56
			c30.603,0,55.5-25.147,55.5-55.75c0-28.849-22.128-52.743-50.301-55.373c1.516-8.131,2.301-16.48,2.301-24.814
			c0-74.715-60.785-135.281-135.5-135.281c-72.198,0-131.383,56.219-135.289,128.219H63.5c-17.369,0-31.5,13.881-31.5,31.25
			s14.131,31.375,31.5,31.375S95,204.478,95,187.109H80c0,9.098-7.402,16.5-16.5,16.5S47,196.457,47,187.359s7.402-16.25,16.5-16.25
			h92.26c-16.871,13-27.76,33.542-27.76,56.5s10.889,42.5,27.76,56.5H31.5c-9.099,0-16.5-7.651-16.5-16.75s7.401-16.625,16.5-16.625
			S48,258.011,48,267.109h15c0-17.369-14.131-31.5-31.5-31.5S0,249.99,0,267.359s14.131,31.75,31.5,31.75H239.5z"/>
		<rect x="159.5" y="124.109" width="16" height="15"/>
		<path d="M31.5,139.109h112v-15h-112c-9.098,0-16.5-7.652-16.5-16.75s7.402-16.625,16.5-16.625S48,98.012,48,107.109h15
			c0-17.369-14.131-31.5-31.5-31.5S0,89.99,0,107.359S14.131,139.109,31.5,139.109z"/>
		<path d="M79.5,363.609c-9.098,0-16.5-7.152-16.5-16.25c0-9.098,7.402-16.25,16.5-16.25h128v-15h-128
			c-17.369,0-31.5,13.881-31.5,31.25c0,17.369,14.131,31.375,31.5,31.375s31.5-14.256,31.5-31.625H96
			C96,356.207,88.598,363.609,79.5,363.609z"/>
		<rect x="223.5" y="316.109" width="16" height="15"/>
		<path d="M362.196,320.413l10.607-10.357l-11.196-10.946H383.5v-15h-21.893l11.196-11.446l-10.607-10.732L343.5,280.565
			l-13.393-13.424l18.697-18.712l-10.857-10.615L326.5,249.002v-21.893h-15v21.893l-10.946-11.196l-10.482,10.607l18.759,18.697
			l-13.361,13.393l-18.681-18.697l-10.6,10.857l11.204,11.446H255.5v15h21.893l-11.196,10.946l10.607,10.482l18.697-18.759
			l13.393,13.361l-18.697,18.681l10.357,10.6l10.946-11.204v21.893h15v-21.893l11.446,11.196l10.732-10.607l-18.634-18.697
			l13.424-13.393L362.196,320.413z M319.5,304.503l-13.394-13.394l13.394-13.394l13.394,13.394L319.5,304.503z"/>
		<path d="M260.804,400.663l-10.607-10.732l-18.697,18.634l-13.393-13.424l18.697-18.712l-10.857-10.615L214.5,377.002v-21.893h-15
			v21.893l-10.946-11.196l-10.482,10.607l18.759,18.697l-13.361,13.393l-18.681-18.697l-10.6,10.857l11.204,11.446H143.5v15h21.893
			l-11.196,10.946l10.607,10.482l18.697-18.759l13.393,13.361l-18.697,18.681l10.357,10.6l10.946-11.204v21.893h15v-21.893
			l11.446,11.196l10.732-10.607l-18.634-18.697l13.424-13.393l18.712,18.697l10.615-10.357l-11.188-10.946H271.5v-15h-21.893
			L260.804,400.663z M207.5,432.503l-13.394-13.394l13.394-13.394l13.394,13.394L207.5,432.503z"/>
		<path d="M484.804,400.663l-10.607-10.732L455.5,408.565l-13.393-13.424l18.697-18.712l-10.857-10.615L438.5,377.002v-21.893h-15
			v21.893l-10.946-11.196l-10.482,10.607l18.759,18.697l-13.361,13.393l-18.681-18.697l-10.6,10.857l11.204,11.446H367.5v15h21.893
			l-11.196,10.946l10.607,10.482l18.697-18.759l13.393,13.361l-18.697,18.681l10.357,10.6l10.946-11.204v21.893h15v-21.893
			l11.446,11.196l10.732-10.607l-18.634-18.697l13.424-13.393l18.712,18.697l10.615-10.357l-11.189-10.946H495.5v-15h-21.893
			L484.804,400.663z M431.5,432.503l-13.394-13.394l13.394-13.394l13.394,13.394L431.5,432.503z"/>
	</g>
</g>
<g>
</g>
<g>
</g>
<g>
</g>
<g>
</g>
<g>
</g>
<g>
</g>
<g>
</g>
<g>
</g>
<g>
</g>
<g>
</g>
<g>
</g>
<g>
</g>
<g>
</g>
<g>
</g>
<g>
</g>
</svg>
