<?xml version="1.0" encoding="iso-8859-1"?>
<!-- Generator: Adobe Illustrator 19.0.0, SVG Export Plug-In . SVG Version: 6.00 Build 0)  -->
<svg version="1.1" id="Layer_1" xmlns="http://www.w3.org/2000/svg" xmlns:xlink="http://www.w3.org/1999/xlink" x="0px" y="0px"
	 viewBox="0 0 511.5 511.5" style="enable-background:new 0 0 511.5 511.5;" xml:space="preserve">
<g>
	<path style="fill:#87E6DE;" d="M444.142,315.764c1.167,1.618,3.704,0.758,3.634-1.236
		c-3.604-102.869-88.133-185.156-191.88-185.156c-103.747,0-188.276,82.286-191.88,185.154c-0.07,1.994,2.467,2.854,3.634,1.236
		c26.091-36.166,65.214-35.16,90.58,3.017c0.791,1.19,2.541,1.19,3.332,0c26.053-39.211,66.618-39.21,92.671,0.004
		c0.79,1.188,2.537,1.188,3.327,0c26.053-39.213,66.617-39.214,92.671-0.004c0.791,1.19,2.541,1.19,3.332,0
		C378.928,280.603,418.051,279.597,444.142,315.764z"/>
	<path style="fill:#1CB7BD;" d="M255.896,129.373c-3.992,0-7.951,0.136-11.882,0.376c91.873,5.611,166.292,75.816,178.394,165.786
		c7.784,4.393,15.172,11.133,21.734,20.229c1.167,1.618,3.704,0.758,3.634-1.236C444.172,211.659,359.643,129.373,255.896,129.373z"
		/>
	<path style="fill:#1CB7BD;" d="M351.894,319.67c-0.63,0-1.26-0.29-1.66-0.89c-26.06-39.21-66.62-39.21-92.67,0
		c-0.79,1.19-2.54,1.19-3.33,0c-26.05-39.21-66.62-39.21-92.67,0c-0.39,0.6-1.03,0.89-1.67,0.89c0.09-105.87,43.04-183.67,96-183.67
		S351.804,213.8,351.894,319.67z"/>
	
		<rect x="110.925" y="47.029" transform="matrix(0.7071 0.7071 -0.7071 0.7071 82.7146 -71.6906)" style="fill:#B8ECFF;" width="33.941" height="33.941"/>
	
		<rect x="366.925" y="47.029" transform="matrix(0.7071 0.7071 -0.7071 0.7071 157.6952 -252.71)" style="fill:#B8ECFF;" width="33.941" height="33.941"/>
	<g>
		<g>
			<rect x="215.896" y="216.5" style="fill:#FFFFFF;" width="16" height="15"/>
		</g>
		<g>
			<rect x="247.896" y="216.5" style="fill:#FFFFFF;" width="16" height="15"/>
		</g>
		<g>
			<rect x="279.896" y="216.5" style="fill:#FFFFFF;" width="16" height="15"/>
		</g>
	</g>
	<g>
		<path d="M74.592,82.946l10.607,10.482l18.697-18.759l13.393,13.361l-18.697,18.681l10.357,10.6l10.946-11.204V128h15v-21.893
			l11.446,11.196l10.732-10.607L138.44,87.999l13.424-13.393l18.712,18.697l10.615-10.357L170.003,72h21.893V57h-21.893
			l11.196-11.446l-10.607-10.732l-18.697,18.634l-13.393-13.424l18.697-18.712l-10.857-10.615l-11.446,11.188V0h-15v21.893
			l-10.946-11.196L98.467,21.304L117.226,40l-13.361,13.393L85.184,34.696l-10.6,10.857L85.788,57H63.896v15h21.893L74.592,82.946z
			 M127.896,50.606L141.289,64l-13.394,13.394L114.502,64L127.896,50.606z"/>
		<path d="M330.592,82.946l10.607,10.482l18.697-18.759l13.393,13.361l-18.697,18.681l10.357,10.6l10.946-11.204V128h15v-21.893
			l11.446,11.196l10.732-10.607L394.44,87.999l13.424-13.393l18.712,18.697l10.615-10.357L426.003,72h21.893V57h-21.893
			l11.196-11.446l-10.607-10.732l-18.697,18.634l-13.393-13.424l18.697-18.712l-10.857-10.615l-11.446,11.188V0h-15v21.893
			l-10.946-11.196l-10.482,10.607L373.226,40l-13.361,13.393l-18.681-18.697l-10.6,10.857L341.788,57h-21.893v15h21.893
			L330.592,82.946z M383.896,50.606L397.289,64l-13.394,13.394L370.502,64L383.896,50.606z"/>
		<path d="M394.355,177.984c-35.596-34.441-81.459-54.139-131.459-55.959V104h-15v18.026c-49,1.819-95.363,21.518-130.959,55.959
			C79.63,214.081,58.21,262.479,56.396,314.263c-0.149,4.217,2.491,7.967,6.477,9.331c3.99,1.366,8.36-0.02,10.828-3.443
			c11.021-15.276,24.794-23.545,38.853-23.271c14.439,0.278,28.444,9.53,39.424,26.055c1.766,2.654,4.727,4.238,7.915,4.238
			c3.189,0,6.148-1.584,7.915-4.241c11.165-16.804,25.403-26.059,40.089-26.058c14.686,0,28.674,9.255,39.838,26.059
			c0.127,0.191,0.162,0.364,0.162,0.543V480c0,9.099-7.151,16.5-16.25,16.5s-16.25-7.401-16.25-16.5h-15
			c0,17.369,13.881,31.5,31.25,31.5s31.25-14.131,31.25-31.5V323.475c1-0.179,0.534-0.351,0.66-0.542
			c11.165-16.806,25.527-26.061,40.214-26.061c14.686-0.001,28.985,9.254,40.152,26.061c1.766,2.654,4.754,4.238,7.942,4.238
			c3.188,0,6.161-1.584,7.929-4.241c10.977-16.521,24.9-25.773,39.34-26.052c14.033-0.232,27.763,7.995,38.763,23.272v0.002
			c3,3.424,6.894,4.808,10.882,3.441c3.983-1.365,6.475-5.114,6.326-9.328C453.291,262.48,431.662,214.082,394.355,177.984z
			 M152.892,300.39c-11.788-11.759-25.586-18.229-40.035-18.508c-0.325-0.006-0.647-0.01-0.973-0.01
			c-13.971,0-27.443,5.81-39.093,16.67c5.131-41.699,24.256-80.2,54.825-109.777c25.404-24.579,56.73-41.035,90.648-48.046
			c-13.897,9.494-26.451,24.349-36.877,44.002C165.067,215.482,155.149,256.002,152.892,300.39z M303.644,281.873
			c-14.603,0-28.748,6.295-40.748,18.009V248h-15v51.881c-10.985-11.698-25.604-17.989-40.187-18.007
			c-14.345,0.018-28.001,6.103-39.798,17.439c2.311-41.484,11.353-79.114,26.447-107.564c14.701-27.708,33.538-44.319,53.538-47.626
			V200h15v-55.876c21,3.307,39.306,19.918,54.007,47.626c15.094,28.449,24.354,66.08,26.666,107.564
			C331.752,287.961,318.012,281.872,303.644,281.873z M398.934,281.882c-14.449,0.279-28.247,6.751-40.035,18.509
			c-2.257-44.388-12.175-84.908-28.496-115.67c-10.427-19.653-22.98-34.508-36.877-44.002c33.918,7.011,65.244,23.466,90.648,48.046
			c30.567,29.575,49.693,68.08,54.825,109.777C427.08,287.431,413.269,281.611,398.934,281.882z"/>
		<path d="M207.648,281.873c0.02,0,0.041,0.002,0.061,0.002c0.021,0,0.042-0.002,0.063-0.002
			C207.773,281.873,207.646,281.873,207.648,281.873z"/>
	</g>
</g>
<g>
</g>
<g>
</g>
<g>
</g>
<g>
</g>
<g>
</g>
<g>
</g>
<g>
</g>
<g>
</g>
<g>
</g>
<g>
</g>
<g>
</g>
<g>
</g>
<g>
</g>
<g>
</g>
<g>
</g>
</svg>
