<?xml version="1.0" encoding="iso-8859-1"?>
<!-- Generator: Adobe Illustrator 19.0.0, SVG Export Plug-In . SVG Version: 6.00 Build 0)  -->
<svg version="1.1" id="Layer_1" xmlns="http://www.w3.org/2000/svg" xmlns:xlink="http://www.w3.org/1999/xlink" x="0px" y="0px"
	 viewBox="0 0 511.5 511.5" style="enable-background:new 0 0 511.5 511.5;" xml:space="preserve">
<g>
	<polygon style="fill:#8BB4D9;" points="136,271.5 88,319.5 88,231.5 136,231.5 	"/>
	<polygon style="fill:#FF9AC9;" points="320,503.5 96,503.5 96,359.5 208,247.5 320,359.5 	"/>
	<polygon style="fill:#E03F97;" points="208,247.5 96,359.5 96,383.5 208,271.5 320,383.5 320,359.5 	"/>
	<polyline style="fill:#FEEF7F;" points="176,503.5 176,399.5 240,399.5 240,503.5 	"/>
	<g>
		<polygon style="fill:#DAEDF7;" points="208,247.5 64,391.5 64,343.5 208,199.5 352,343.5 352,391.5 		"/>
	</g>
	<g>
		<path style="fill:#DAEDF7;" d="M424,119.5c-2.497,0-4.905,0.382-7.168,1.09C421.422,110.502,424,99.305,424,87.5
			c0-44.183-35.817-80-80-80c-38.86,0-71.236,27.711-78.477,64.447C242.079,75.111,224,95.188,224,119.5c0,26.51,21.49,48,48,48h152
			c13.255,0,24-10.745,24-24S437.255,119.5,424,119.5z"/>
		<g>
			<g>
				<rect x="296" y="120" style="fill:#FFFFFF;" width="16" height="15"/>
			</g>
			<g>
				<rect x="328" y="120" style="fill:#FFFFFF;" width="16" height="15"/>
			</g>
			<g>
				<rect x="360" y="120" style="fill:#FFFFFF;" width="16" height="15"/>
			</g>
		</g>
		<path style="fill:#8BB4D9;" d="M424,119.5c-2.497,0-4.905,0.382-7.168,1.09C421.422,110.502,424,99.305,424,87.5
			c0-44.183-35.817-80-80-80c-4.064,0-8.051,0.32-11.951,0.905C370.515,14.216,400,47.413,400,87.5
			c0,11.805-2.578,23.002-7.168,33.09c2.264-0.707,4.671-1.09,7.168-1.09c13.255,0,24,10.745,24,24s-10.745,24-24,24h24
			c13.255,0,24-10.745,24-24S437.255,119.5,424,119.5z"/>
	</g>
	<circle style="fill:#DAEDF7;" cx="208" cy="335.5" r="24"/>
	<path style="fill:#B8ECFF;" d="M416,247.5c0,8.837-7.163,16-16,16c-8.837,0-16-7.163-16-16c0-8.837,16-40,16-40
		S416,238.663,416,247.5z"/>
	<path style="fill:#B8ECFF;" d="M288,247.5c0,8.837-7.163,16-16,16c-8.837,0-16-7.163-16-16c0-8.837,16-40,16-40
		S288,238.663,288,247.5z"/>
	<path style="fill:#B8ECFF;" d="M352,247.5c0,8.837-7.163,16-16,16c-8.837,0-16-7.163-16-16c0-8.837,16-40,16-40
		S352,238.663,352,247.5z"/>
	<path style="fill:#B8ECFF;" d="M384,343.5c0,8.837-7.163,16-16,16c-8.837,0-16-7.163-16-16s16-40,16-40S384,334.663,384,343.5z"/>
	<path style="fill:#B8ECFF;" d="M320,343.5c0,8.837-7.163,16-16,16c-8.837,0-16-7.163-16-16s16-40,16-40S320,334.663,320,343.5z"/>
	<g>
		<path d="M296.5,87.5h15c0-17.921,14.58-32.5,32.5-32.5V40C317.809,40,296.5,61.309,296.5,87.5z"/>
		<path d="M427.96,112.258c2.336-7.95,3.54-16.258,3.54-24.758C431.5,39.252,392.248,0,344,0c-40.645,0-74.905,27.857-84.693,65.481
			C234.803,71.239,216.5,93.515,216.5,119.75c0,30.602,24.897,55.75,55.5,55.75h152c17.369,0,31.5-14.381,31.5-31.75
			C455.5,127.723,443.465,114.212,427.96,112.258z M424,160.5H272c-22.332,0-40.5-18.418-40.5-40.75
			c0-16.911,10.422-31.551,25.177-37.605c-0.113,1.813-0.177,3.577-0.177,5.418c0,5.886,0.589,11.739,1.75,17.461l14.7-3
			c-0.962-4.741-1.45-9.63-1.45-14.516c0-39.976,32.523-72.504,72.5-72.504c39.977,0,72.5,32.521,72.5,72.498
			c0,15.838-5.013,30.88-14.496,43.502l11.992,9.259c3.106-4.134,5.8-8.763,8.099-12.763H424c9.098,0,16.5,7.402,16.5,16.5
			S433.098,160.5,424,160.5z"/>
		<path d="M176.5,335.5c0,17.369,14.131,31.5,31.5,31.5c17.369,0,31.5-14.131,31.5-31.5S225.369,304,208,304
			C190.631,304,176.5,318.131,176.5,335.5z M224.5,335.5c0,9.098-7.402,16.5-16.5,16.5c-9.098,0-16.5-7.402-16.5-16.5
			S198.902,319,208,319C217.098,319,224.5,326.402,224.5,335.5z"/>
		<path d="M400,191.079l-6.672,12.995c-3.948,7.689-16.828,33.544-16.828,43.426c0,12.958,10.542,23.5,23.5,23.5
			s23.5-10.542,23.5-23.5c0-9.882-12.88-35.736-16.828-43.426L400,191.079z M400,256c-4.687,0-8.5-3.814-8.5-8.5
			c0.015-2.931,3.769-12.487,8.5-22.813c4.731,10.325,8.485,19.882,8.5,22.813C408.5,252.186,404.687,256,400,256z"/>
		<path d="M295.5,247.5c0-9.882-12.88-35.736-16.828-43.426L272,191.079l-6.672,12.995c-3.948,7.689-16.828,33.544-16.828,43.426
			c0,12.958,10.542,23.5,23.5,23.5S295.5,260.458,295.5,247.5z M263.5,247.5c0.015-2.931,3.769-12.487,8.5-22.813
			c4.731,10.325,8.485,19.882,8.5,22.813c0,4.686-3.813,8.5-8.5,8.5S263.5,252.186,263.5,247.5z"/>
		<path d="M359.5,247.5c0-9.882-12.88-35.736-16.828-43.426L336,191.079l-6.672,12.995c-3.948,7.689-16.828,33.544-16.828,43.426
			c0,12.958,10.542,23.5,23.5,23.5S359.5,260.458,359.5,247.5z M327.5,247.5c0.015-2.931,3.769-12.487,8.5-22.813
			c4.731,10.325,8.485,19.882,8.5,22.813c0,4.686-3.813,8.5-8.5,8.5S327.5,252.186,327.5,247.5z"/>
		<path d="M368,287.079l-6.672,12.995c-2.593,5.051-9.039,17.938-13.159,28.989l-6.866-6.866l-10.856,10.607L344,346.606v26.787
			l-19.204-19.454c1.568-3.147,2.579-6.691,2.579-10.439c0-9.882-12.818-35.736-16.766-43.426l-6.641-12.995l-6.656,12.995
			c-3.948,7.69-16.82,33.544-16.82,43.426c0,12.958,10.296,23.5,23.254,23.5c2.997,0,6.254-0.57,8.254-1.597V496.5h-65v-104h-79v104
			h-65V362.606l104.75-104.5l58.821,58.696l10.419-10.607L215,244.394v-26.787l19.447,19.197l10.731-10.607l-37.491-37.303
			L143,253.394V224.5H80v91.894l-24,24v69.213l32-32V511.5h239V377.606l32,32v-44.204c3,1.027,5.753,1.597,8.75,1.597
			c12.958,0,23.625-10.542,23.625-23.5c0-9.882-12.818-35.736-16.766-43.426L368,287.079z M95,239.5h33v28.894l-33,33V239.5z
			 M71,346.606l129-129v26.787l-129,129V346.606z M183,407.5h49v89h-49V407.5z M304,352c-4.687,0-8.5-3.814-8.5-8.5
			c0.015-2.931,3.769-12.487,8.5-22.813c4.731,10.325,8.485,19.882,8.5,22.813C312.5,348.186,308.687,352,304,352z M368,352
			c-4.687,0-8.5-3.814-8.5-8.5c0.015-2.931,3.769-12.487,8.5-22.813c4.731,10.325,8.485,19.882,8.5,22.813
			C376.5,348.186,372.687,352,368,352z"/>
	</g>
</g>
<g>
</g>
<g>
</g>
<g>
</g>
<g>
</g>
<g>
</g>
<g>
</g>
<g>
</g>
<g>
</g>
<g>
</g>
<g>
</g>
<g>
</g>
<g>
</g>
<g>
</g>
<g>
</g>
<g>
</g>
</svg>
