<?xml version="1.0" encoding="iso-8859-1"?>
<!-- Generator: Adobe Illustrator 19.0.0, SVG Export Plug-In . SVG Version: 6.00 Build 0)  -->
<svg version="1.1" id="Layer_1" xmlns="http://www.w3.org/2000/svg" xmlns:xlink="http://www.w3.org/1999/xlink" x="0px" y="0px"
	 viewBox="0 0 512 512" style="enable-background:new 0 0 512 512;" xml:space="preserve">
<g>
	<g>
		<circle style="fill:#FEEF7F;" cx="240" cy="255.5" r="128"/>
	</g>
	<polygon style="fill:#EA9A10;" points="264,95.5 216,95.5 238,23.5 242,23.5 	"/>
	<polygon style="fill:#EA9A10;" points="216,415.5 264,415.5 242,487.5 238,487.5 	"/>
	<polygon style="fill:#EA9A10;" points="109.892,351.667 143.833,385.608 77.365,420.963 74.537,418.135 	"/>
	<polygon style="fill:#EA9A10;" points="80,231.5 80,279.5 8,257.5 8,253.5 	"/>
	<polygon style="fill:#EA9A10;" points="143.833,125.392 109.892,159.333 74.537,92.865 77.365,90.037 	"/>
	<circle style="fill:#DAEDF7;" cx="328" cy="255.5" r="128"/>
	<path style="fill:#8BB4D9;" d="M328,127.5c-4.047,0-8.049,0.197-12,0.564c65.064,6.051,116,60.791,116,127.436
		s-50.936,121.385-116,127.436c3.951,0.367,7.953,0.564,12,0.564c70.692,0,128-57.308,128-128S398.692,127.5,328,127.5z"/>
	<g>
		<g>
			<rect x="288" y="248" style="fill:#FFFFFF;" width="16" height="15"/>
		</g>
		<g>
			<rect x="320" y="248" style="fill:#FFFFFF;" width="16" height="15"/>
		</g>
		<g>
			<rect x="352" y="248" style="fill:#FFFFFF;" width="16" height="15"/>
		</g>
	</g>
	<circle style="fill:#8BB4D9;" cx="280" cy="207.5" r="16"/>
	<circle style="fill:#8BB4D9;" cx="304" cy="311.5" r="16"/>
	<circle style="fill:#8BB4D9;" cx="248" cy="263.5" r="16"/>
	<path style="fill:#FFFFFF;" d="M456,167.5c-17.67,0-32,14.33-32,32c0-17.67-14.33-32-32-32c17.67,0,32-14.33,32-32
		C424,153.17,438.33,167.5,456,167.5z"/>
	<g>
		<path style="fill:#FFFFFF;" d="M512,119.5c-17.67,0-32,14.33-32,32c0-17.67-14.33-32-32-32c17.67,0,32-14.33,32-32
			C480,105.17,494.33,119.5,512,119.5z"/>
		<g>
			<path d="M240,135c2.506,0,5.043,0.078,7.54,0.231l0.922-14.971C245.659,120.088,242.813,120,240,120
				c-74.715,0-135.5,60.785-135.5,135.5S165.285,391,240,391c2.813,0,5.659-0.088,8.462-0.261l-0.922-14.971
				c-2.497,0.153-5.034,0.231-7.54,0.231c-66.444,0-120.5-54.056-120.5-120.5S173.556,135,240,135z"/>
			<path d="M247.551,16.5h-15.102l-26.583,87h68.268L247.551,16.5z M240,43.12l13.866,45.38h-27.732L240,43.12z"/>
			<path d="M232.449,495.5h15.102l26.583-87h-68.268L232.449,495.5z M240,468.88l-13.866-45.38h27.732L240,468.88z"/>
			<path d="M65.309,419.513l10.679,10.679l80.315-42.722l-48.272-48.272L65.309,419.513z M131.365,383.745l-41.894,22.283
				l22.283-41.893L131.365,383.745z"/>
			<path d="M87,221.366L0,247.949v15.102l87,26.583V221.366z M72,269.366L26.62,255.5L72,241.634V269.366z"/>
			<path d="M156.303,123.53L75.987,80.809L65.309,91.487l42.722,80.315L156.303,123.53z M131.365,127.255l-19.61,19.61
				l-22.283-41.894L131.365,127.255z"/>
			<path d="M303.5,207.5c0-12.958-10.542-23.5-23.5-23.5s-23.5,10.542-23.5,23.5S267.042,231,280,231S303.5,220.458,303.5,207.5z
				 M271.5,207.5c0-4.686,3.814-8.5,8.5-8.5s8.5,3.814,8.5,8.5s-3.814,8.5-8.5,8.5S271.5,212.186,271.5,207.5z"/>
			<path d="M304,335c12.958,0,23.5-10.542,23.5-23.5S316.958,288,304,288s-23.5,10.542-23.5,23.5S291.042,335,304,335z M304,303
				c4.686,0,8.5,3.814,8.5,8.5s-3.814,8.5-8.5,8.5s-8.5-3.814-8.5-8.5S299.314,303,304,303z"/>
			<path d="M224.5,263.5c0,12.958,10.542,23.5,23.5,23.5c12.958,0,23.5-10.542,23.5-23.5c0-12.958-10.542-23.5-23.5-23.5
				C235.042,240,224.5,250.542,224.5,263.5z M256.5,263.5c0,4.686-3.814,8.5-8.5,8.5s-8.5-3.814-8.5-8.5s3.814-8.5,8.5-8.5
				S256.5,258.814,256.5,263.5z"/>
			<path d="M436.39,202.784c8.036,16.49,12.11,34.226,12.11,52.716c0,66.444-54.056,120.5-120.5,120.5s-120.5-54.056-120.5-120.5
				S261.556,135,328,135c21.188,0,42.021,5.573,60.247,16.118l7.512-12.984C375.252,126.271,351.822,120,328,120
				c-74.715,0-135.5,60.785-135.5,135.5S253.285,391,328,391s135.5-60.785,135.5-135.5c0-20.786-4.585-40.733-13.626-59.286
				L436.39,202.784z"/>
			<path d="M328,160v15c44.388,0,80.5,36.112,80.5,80.5h15C423.5,202.841,380.659,160,328,160z"/>
			<path d="M392,175c13.51,0,24.5,10.99,24.5,24.5h15c0-13.51,10.99-24.5,24.5-24.5v-15c-13.51,0-24.5-10.99-24.5-24.5h-15
				c0,13.51-10.99,24.5-24.5,24.5V175z M424,158.616c2.471,3.412,5.472,6.413,8.884,8.884c-3.412,2.471-6.413,5.472-8.884,8.884
				c-2.471-3.412-5.472-6.413-8.884-8.884C418.528,165.029,421.529,162.028,424,158.616z"/>
			<path d="M487.5,87.5h-15c0,13.51-10.99,24.5-24.5,24.5v15c13.51,0,24.5,10.99,24.5,24.5h15c0-13.51,10.99-24.5,24.5-24.5v-15
				C498.49,112,487.5,101.01,487.5,87.5z M480,128.384c-2.471-3.412-5.472-6.413-8.884-8.884c3.412-2.471,6.413-5.472,8.884-8.884
				c2.471,3.412,5.472,6.413,8.884,8.884C485.472,121.971,482.471,124.972,480,128.384z"/>
		</g>
	</g>
</g>
<g>
</g>
<g>
</g>
<g>
</g>
<g>
</g>
<g>
</g>
<g>
</g>
<g>
</g>
<g>
</g>
<g>
</g>
<g>
</g>
<g>
</g>
<g>
</g>
<g>
</g>
<g>
</g>
<g>
</g>
</svg>
