<?xml version="1.0" encoding="iso-8859-1"?>
<!-- Generator: Adobe Illustrator 19.0.0, SVG Export Plug-In . SVG Version: 6.00 Build 0)  -->
<svg version="1.1" id="Layer_1" xmlns="http://www.w3.org/2000/svg" xmlns:xlink="http://www.w3.org/1999/xlink" x="0px" y="0px"
	 viewBox="0 0 512 512" style="enable-background:new 0 0 512 512;" xml:space="preserve">
<g>
	<rect y="367.75" style="fill:#FEEF7F;" width="512" height="48"/>
	<rect x="240" y="327.75" style="fill:#FEEF7F;" width="32" height="40"/>
	<polygon style="fill:#87E6DE;" points="304,327.75 208,327.75 256,263.75 	"/>
	<polygon style="fill:#1CB7BD;" points="256,263.75 244,279.75 280,327.75 304,327.75 	"/>
	<polygon style="fill:#87E6DE;" points="304,295.75 208,295.75 256,231.75 	"/>
	<polygon style="fill:#1CB7BD;" points="256,231.75 244,247.75 280,295.75 304,295.75 	"/>
	<polygon style="fill:#87E6DE;" points="304,263.75 208,263.75 256,199.75 	"/>
	<polygon style="fill:#1CB7BD;" points="256,199.75 244,215.75 280,263.75 304,263.75 	"/>
	<g>
		<rect x="384" y="327.75" style="fill:#FEEF7F;" width="32" height="40"/>
		<polygon style="fill:#87E6DE;" points="448,327.75 352,327.75 400,263.75 		"/>
		<polygon style="fill:#1CB7BD;" points="400,263.75 388,279.75 424,327.75 448,327.75 		"/>
		<polygon style="fill:#87E6DE;" points="448,295.75 352,295.75 400,231.75 		"/>
		<polygon style="fill:#1CB7BD;" points="400,231.75 388,247.75 424,295.75 448,295.75 		"/>
		<polygon style="fill:#87E6DE;" points="448,263.75 352,263.75 400,199.75 		"/>
		<polygon style="fill:#1CB7BD;" points="400,199.75 388,215.75 424,263.75 448,263.75 		"/>
	</g>
	<rect x="96" y="327.75" style="fill:#FEEF7F;" width="32" height="40"/>
	<polygon style="fill:#87E6DE;" points="160,327.75 64,327.75 112,263.75 	"/>
	<polygon style="fill:#1CB7BD;" points="112,263.75 100,279.75 136,327.75 160,327.75 	"/>
	<polygon style="fill:#87E6DE;" points="160,295.75 64,295.75 112,231.75 	"/>
	<polygon style="fill:#1CB7BD;" points="112,231.75 100,247.75 136,295.75 160,295.75 	"/>
	<polygon style="fill:#87E6DE;" points="160,263.75 64,263.75 112,199.75 	"/>
	<polygon style="fill:#1CB7BD;" points="112,199.75 100,215.75 136,263.75 160,263.75 	"/>
	<g>
		<path style="fill:#DAEDF7;" d="M136,191.75h40c8.84,0,16-7.16,16-16c0-4.42-1.79-8.42-4.68-11.32c-2.9-2.89-6.9-4.68-11.32-4.68
			h-40c4.42,0,8.42,1.79,11.32,4.68c2.89,2.9,4.68,6.9,4.68,11.32C152,184.59,144.84,191.75,136,191.75z"/>
		<path style="fill:#DAEDF7;" d="M104,159.75H64c-8.84,0-16-7.16-16-16c0-4.42,1.79-8.42,4.68-11.32c2.9-2.89,6.9-4.68,11.32-4.68
			h40c-4.42,0-8.42,1.79-11.32,4.68c-2.89,2.9-4.68,6.9-4.68,11.32C88,152.59,95.16,159.75,104,159.75z"/>
		<path style="fill:#DAEDF7;" d="M64,223.75H24c-8.84,0-16-7.16-16-16c0-4.42,1.79-8.42,4.68-11.32c2.9-2.89,6.9-4.68,11.32-4.68h40
			c-4.42,0-8.42,1.79-11.32,4.68c-2.89,2.9-4.68,6.9-4.68,11.32C48,216.59,55.16,223.75,64,223.75z"/>
	</g>
	<path style="fill:#DAEDF7;" d="M400,191.75h40c8.84,0,16-7.16,16-16c0-4.42-1.79-8.42-4.68-11.32c-2.9-2.89-6.9-4.68-11.32-4.68
		h-40c4.42,0,8.42,1.79,11.32,4.68c2.89,2.9,4.68,6.9,4.68,11.32C416,184.59,408.84,191.75,400,191.75z"/>
	<path style="fill:#DAEDF7;" d="M320,159.75h-40c-8.84,0-16-7.16-16-16c0-4.42,1.79-8.42,4.68-11.32c2.9-2.89,6.9-4.68,11.32-4.68
		h40c-4.42,0-8.42,1.79-11.32,4.68c-2.89,2.9-4.68,6.9-4.68,11.32C304,152.59,311.16,159.75,320,159.75z"/>
	<path style="fill:#DAEDF7;" d="M288,223.75h-40c-8.84,0-16-7.16-16-16c0-4.42,1.79-8.42,4.68-11.32c2.9-2.89,6.9-4.68,11.32-4.68
		h40c-4.42,0-8.42,1.79-11.32,4.68c-2.89,2.9-4.68,6.9-4.68,11.32C272,216.59,279.16,223.75,288,223.75z"/>
	<g>
		<g>
			<rect x="216" y="384.25" style="fill:#FFFFFF;" width="16" height="15"/>
		</g>
		<g>
			<rect x="248" y="384.25" style="fill:#FFFFFF;" width="16" height="15"/>
		</g>
		<g>
			<rect x="280" y="384.25" style="fill:#FFFFFF;" width="16" height="15"/>
		</g>
	</g>
	<g>
		<path d="M423,360.75v-25h40l-24-32h24l-24-32h24l-54-72h31c12.958,0,23.5-10.542,23.5-23.5s-10.542-23.5-23.5-23.5H320
			c-4.687,0-8.5-3.814-8.5-8.5s3.813-8.5,8.5-8.5h56c12.958,0,23.5-10.792,23.5-23.75S388.958,88.25,376,88.25v15
			c4.687,0,8.5,4.063,8.5,8.75s-3.813,8.75-8.5,8.75h-96c-12.958,0-23.5,10.542-23.5,23.5s10.542,23.5,23.5,23.5h120
			c4.687,0,8.5,3.814,8.5,8.5s-3.813,8.5-8.5,8.5H248c-12.958,0-23.5,10.292-23.5,23.25c0,5.535,1.928,10.75,5.141,14.77L193,271.75
			h24l-24,32h24l-24,32h39v25h-97v-25h40l-24-32h24l-24-32h24l-24.998-33.58l-12,9.125L145,256.75H79l18.75-25H160
			c4.687,0,8,3.314,8,8v8h15v-8c0-12.958-10.042-23-23-23H64c-4.687,0-8.5-3.814-8.5-8.5s3.813-8.5,8.5-8.5h112
			c12.958,0,23.5-10.542,23.5-23.5s-10.542-23.5-23.5-23.5h-72c-4.687,0-8.5-3.814-8.5-8.5s3.813-8.5,8.5-8.5h40
			c12.958,0,23.5-10.792,23.5-23.75S156.958,88.25,144,88.25v15c4.687,0,8.5,4.063,8.5,8.75s-3.813,8.75-8.5,8.75H64
			c-12.958,0-23.5,10.542-23.5,23.5s10.542,23.5,23.5,23.5h72c4.687,0,8.5,3.814,8.5,8.5s-3.813,8.5-8.5,8.5H24
			c-12.958,0-23.5,10.542-23.5,23.5s10.542,23.5,23.5,23.5h55l-30,40h24l-24,32h24l-24,32h39v25H0v15h512v-15H423z M421.903,167.75
			H440c4.687,0,8.5,3.814,8.5,8.5s-3.813,8.5-8.5,8.5h-18.097c1.027-3,1.597-5.503,1.597-8.5S422.93,169.75,421.903,167.75z
			 M298.097,152.75H280c-4.687,0-8.5-3.814-8.5-8.5s3.813-8.5,8.5-8.5h18.097c-1.027,2-1.597,5.503-1.597,8.5
			S297.07,149.75,298.097,152.75z M82.097,152.75H64c-4.687,0-8.5-3.814-8.5-8.5s3.813-8.5,8.5-8.5h18.097
			c-1.027,2-1.597,5.503-1.597,8.5S81.07,149.75,82.097,152.75z M157.903,167.75H176c4.687,0,8.5,3.814,8.5,8.5s-3.813,8.5-8.5,8.5
			h-18.097c1.027-3,1.597-5.503,1.597-8.5S158.93,169.75,157.903,167.75z M42.097,216.75H24c-4.687,0-8.5-3.814-8.5-8.5
			s3.813-8.5,8.5-8.5h18.097c-1.027,2-1.597,5.503-1.597,8.5S41.07,213.75,42.097,216.75z M91.75,271.75h40.5l12.75,17H79
			L91.75,271.75z M79,320.75l12.75-17h40.5l12.75,17H79z M120,360.75h-17v-25h17V360.75z M367,320.75l12.75-17h40.5l12.75,17H367z
			 M367,288.75l12.75-17h40.5l12.75,17H367z M433,256.75h-66l33-44L433,256.75z M248,199.75h18.097c-1.027,2-1.597,5.503-1.597,8.5
			s0.57,5.5,1.597,8.5H248c-4.687,0-8.5-3.814-8.5-8.5S243.313,199.75,248,199.75z M223,320.75l12.75-17h40.5l12.75,17H223z
			 M223,288.75l12.75-17h40.5l12.75,17H223z M264,360.75h-17v-25h17V360.75z M376,360.75h-97v-25h40l-24-32h24l-24-32h24l-25-33.583
			l-12,9.125l7,9.458h-66l19.281-25.707c1.832,0.46,3.747,0.707,5.719,0.707h64c4.687,0,8,3.314,8,8v8h15v-8
			c0-12.958-10.042-23-23-23h-24c-4.687,0-8.5-3.814-8.5-8.5s3.813-8.5,8.5-8.5h103l-54,72h24l-24,32h24l-24,32h39V360.75z
			 M408,360.75h-17v-25h17V360.75z"/>
		<rect y="408.75" width="512" height="15"/>
	</g>
</g>
<g>
</g>
<g>
</g>
<g>
</g>
<g>
</g>
<g>
</g>
<g>
</g>
<g>
</g>
<g>
</g>
<g>
</g>
<g>
</g>
<g>
</g>
<g>
</g>
<g>
</g>
<g>
</g>
<g>
</g>
</svg>
