<?xml version="1.0" encoding="iso-8859-1"?>
<!-- Generator: Adobe Illustrator 19.0.0, SVG Export Plug-In . SVG Version: 6.00 Build 0)  -->
<svg version="1.1" id="Layer_1" xmlns="http://www.w3.org/2000/svg" xmlns:xlink="http://www.w3.org/1999/xlink" x="0px" y="0px"
	 viewBox="0 0 510.531 510.531" style="enable-background:new 0 0 510.531 510.531;" xml:space="preserve">
<g>
	<circle style="fill:#DAEDF7;" cx="231.016" cy="359" r="144"/>
	<path style="fill:#8BB4D9;" d="M231.016,215c-4.042,0-8.042,0.175-12,0.502c73.913,6.099,132,68.011,132,143.498
		c0,75.487-58.087,137.399-132,143.499c3.958,0.326,7.958,0.501,12,0.501c79.529,0,144-64.471,144-144
		C375.016,279.471,310.545,215,231.016,215z"/>
	<g>
		<g>
			<rect x="191.016" y="423.5" style="fill:#FFFFFF;" width="16" height="15"/>
		</g>
		<g>
			<rect x="223.016" y="423.5" style="fill:#FFFFFF;" width="16" height="15"/>
		</g>
		<g>
			<rect x="255.016" y="423.5" style="fill:#FFFFFF;" width="16" height="15"/>
		</g>
	</g>
	<g>
		<polyline style="fill:#E03F97;" points="199.016,287 199.016,359 151.016,359 151.016,263 		"/>
		<polyline style="fill:#FEEF7F;" points="199.016,327 199.016,359 151.016,359 151.016,327 		"/>
	</g>
	<path style="fill:#FF9AC9;" d="M327.006,251.67c-23.45,26.57-57.76,43.33-95.99,43.33s-72.54-16.76-95.99-43.33
		c25.47-22.8,59.11-36.67,95.99-36.67S301.536,228.87,327.006,251.67z"/>
	<path style="fill:#E03F97;" d="M327.016,251.67c-3.76,4.26-7.79,8.26-12.08,11.99c-23.91-27.03-57.81-45.01-95.92-48.16
		c3.96-0.32,7.96-0.5,12-0.5C267.896,215,301.546,228.87,327.016,251.67z"/>
	<circle style="fill:#DAEDF7;" cx="231.016" cy="167" r="80"/>
	<path style="fill:#8BB4D9;" d="M231.016,87c-4.079,0-8.085,0.31-12,0.898c38.489,5.791,68,38.998,68,79.102
		s-29.511,73.311-68,79.102c3.915,0.589,7.921,0.898,12,0.898c44.183,0,80-35.817,80-80C311.016,122.817,275.198,87,231.016,87z"/>
	<rect x="175.016" y="7" style="fill:#8BB4D9;" width="112" height="104"/>
	<rect x="175.016" y="79" style="fill:#FEEF7F;" width="112" height="32"/>
	<g>
		
			<rect x="350.045" y="342.029" transform="matrix(0.7071 0.7071 -0.7071 0.7071 361.3477 -154.3706)" style="fill:#B8ECFF;" width="33.941" height="33.941"/>
	</g>
	<g>
		<path d="M231.016,495.5c-75.267,0-136.5-61.233-136.5-136.5c0-37.096,14.657-71.616,39.896-96.74
			c2.837,2.868,5.604,5.592,8.604,8.179V391h15v-24h9v24h15v-24h9v24h15v-90.744c9,1.478,16.47,2.244,24.75,2.244
			c36.263,0,71.068-14.569,96.451-40.212c6.455,6.439,12.368,13.532,17.491,21.237l12.523-8.305
			c-14.902-22.414-35.234-40.267-59.169-52.082c12.749-15.205,20.447-34.539,20.447-55.888c0-17.499-5.125-34.25-14.653-48.25
			h39.161v-15h-49V0h-127v104h-48v15h39.161c-9.528,14-14.661,30.751-14.661,48.25c0,21.349,7.69,40.809,20.439,56.014
			c-51.573,25.439-84.439,77.752-84.439,135.799c0,83.537,67.962,151.469,151.5,151.469c50.856,0,98.051-25.332,126.246-67.736
			l-12.491-8.313C319.363,472.694,276.838,495.5,231.016,495.5z M191.016,352h-33v-17h33V352z M191.016,320h-33v-38.551
			c11,6.506,22,11.607,33,15.152V320z M182.016,15h97v57h-97V15z M182.016,87h97v17h-97V87z M158.516,167.313
			c0-18.064,6.596-35.313,18.623-48.313h107.753c12.027,13,18.623,30.186,18.623,48.25c0,39.977-32.523,72.375-72.5,72.375
			C191.039,239.625,158.516,207.289,158.516,167.313z M175.266,234.39c15.149,12.554,34.583,20.11,55.749,20.11
			c21.167,0,40.601-7.556,55.751-20.111c10.571,4.734,20.293,10.746,29.242,17.89c-22.525,22.467-53.253,35.221-85.243,35.221
			c-26.356,0-51.75-8.66-72.75-24.271V263h0.197c-4.328-3.28-8.45-6.865-12.332-10.738
			C154.753,245.193,164.595,239.167,175.266,234.39z"/>
		<path d="M431.016,352h-21.893l11.196-11.446l-10.606-10.732l-18.697,18.635l-13.393-13.425l18.697-18.712l-10.856-10.615
			l-11.447,11.189V295h-15v21.893l-10.947-11.197l-10.481,10.607L356.346,335l-13.362,13.394l-18.681-18.697l-10.599,10.857
			L324.909,352h-21.893v15h21.893l-11.196,10.946l10.606,10.482l18.697-18.76l13.393,13.362l-18.697,18.681l10.356,10.6
			l10.947-11.205V423h15v-21.893l11.447,11.197l10.731-10.607L377.56,383l13.424-13.394l18.713,18.697l10.614-10.357L409.123,367
			h21.893V352z M367.016,372.394L353.622,359l13.394-13.394L380.409,359L367.016,372.394z"/>
	</g>
</g>
<g>
</g>
<g>
</g>
<g>
</g>
<g>
</g>
<g>
</g>
<g>
</g>
<g>
</g>
<g>
</g>
<g>
</g>
<g>
</g>
<g>
</g>
<g>
</g>
<g>
</g>
<g>
</g>
<g>
</g>
</svg>
