<?xml version="1.0" encoding="iso-8859-1"?>
<!-- Generator: Adobe Illustrator 19.0.0, SVG Export Plug-In . SVG Version: 6.00 Build 0)  -->
<svg version="1.1" id="Layer_1" xmlns="http://www.w3.org/2000/svg" xmlns:xlink="http://www.w3.org/1999/xlink" x="0px" y="0px"
	 viewBox="0 0 511 511" style="enable-background:new 0 0 511 511;" xml:space="preserve">
<g>
	<rect x="152" y="7" style="fill:#FEEF7F;" width="208" height="496"/>
	<g>
		<g>
			<rect x="216" y="463.5" style="fill:#FFFFFF;" width="16" height="15"/>
		</g>
		<g>
			<rect x="248" y="463.5" style="fill:#FFFFFF;" width="16" height="15"/>
		</g>
		<g>
			<rect x="280" y="463.5" style="fill:#FFFFFF;" width="16" height="15"/>
		</g>
	</g>
	<rect x="336" y="7" style="fill:#EA9A10;" width="24" height="496"/>
	<g>
		<path style="fill:#FFFFFF;" d="M272,71v291.327c14.129,6.172,24,20.269,24,36.673c0,22.091-17.909,40-40,40s-40-17.909-40-40
			c0-16.403,9.873-30.499,24-36.672L240,71H272z"/>
		<path style="fill:#B8ECFF;" d="M296,399c0,22.09-17.91,40-40,40s-40-17.91-40-40c0-16.4,9.87-30.5,24-36.67V311h32v51.33
			C286.13,368.5,296,382.6,296,399z"/>
	</g>
	<g>
		<path d="M144,0v511h223V0H144z M352,496H159V15h193V496z"/>
		<path d="M232,357.71c-14,8.384-23.75,24.092-23.75,41.29c0,26.191,21.434,47.5,47.625,47.5s47.313-21.309,47.313-47.5
			c0-17.2-9.188-32.91-24.188-41.292V64h-47v16h-48v15h48v17h-24v15h24v17h-48v15h48v17h-24v15h24v17h-48v15h48v17h-24v15h24v17h-48
			v15h48v17h-24v15h24v17h-48v15h48V357.71z M247,79h17v225h-17V79z M242.753,369.201l4.247-1.966V319h17v48.235l4.748,1.965
			c11.847,5.174,19.752,16.871,19.752,29.8c0,17.921-14.579,32.5-32.5,32.5s-32.5-14.579-32.5-32.5
			C223.5,386.074,230.905,374.378,242.753,369.201z"/>
		<path d="M311,79h17V64h-17v-9h17V40h-20c-6.341,0-12,4.659-12,11v44h15V79z"/>
	</g>
</g>
<g>
</g>
<g>
</g>
<g>
</g>
<g>
</g>
<g>
</g>
<g>
</g>
<g>
</g>
<g>
</g>
<g>
</g>
<g>
</g>
<g>
</g>
<g>
</g>
<g>
</g>
<g>
</g>
<g>
</g>
</svg>
