<?xml version="1.0" encoding="iso-8859-1"?>
<!-- Generator: Adobe Illustrator 19.0.0, SVG Export Plug-In . SVG Version: 6.00 Build 0)  -->
<svg version="1.1" id="Layer_1" xmlns="http://www.w3.org/2000/svg" xmlns:xlink="http://www.w3.org/1999/xlink" x="0px" y="0px"
	 viewBox="0 0 511 511" style="enable-background:new 0 0 511 511;" xml:space="preserve">
<g>
	<rect x="140" y="7" style="fill:#8BB4D9;" width="256" height="496"/>
	<rect x="140" y="71" style="fill:#DAEDF7;" width="256" height="368"/>
	<rect x="372" y="71" style="fill:#8BB4D9;" width="24" height="368"/>
	<g>
		<circle style="fill:#FEEF7F;" cx="188" cy="223" r="32"/>
		<g>
			<path style="fill:#B8ECFF;" d="M364,295c-2.497,0-4.905,0.382-7.168,1.09C361.422,286.002,364,274.805,364,263
				c0-44.183-35.817-80-80-80c-38.86,0-71.236,27.711-78.477,64.447C182.079,250.611,164,270.688,164,295c0,26.51,21.49,48,48,48
				h152c13.255,0,24-10.745,24-24S377.255,295,364,295z"/>
			<g>
				<g>
					<rect x="236" y="295.5" style="fill:#FFFFFF;" width="16" height="15"/>
				</g>
				<g>
					<rect x="268" y="295.5" style="fill:#FFFFFF;" width="16" height="15"/>
				</g>
				<g>
					<rect x="300" y="295.5" style="fill:#FFFFFF;" width="16" height="15"/>
				</g>
			</g>
			<path style="fill:#57BFE6;" d="M364,295c-2.497,0-4.905,0.382-7.168,1.09C361.422,286.002,364,274.805,364,263
				c0-44.183-35.817-80-80-80c-4.064,0-8.051,0.32-11.951,0.905C310.515,189.716,340,222.913,340,263
				c0,11.805-2.578,23.002-7.168,33.09c2.264-0.707,4.671-1.09,7.168-1.09c13.255,0,24,10.745,24,24s-10.745,24-24,24h24
				c13.255,0,24-10.745,24-24S377.255,295,364,295z"/>
		</g>
	</g>
	<g>
		<path d="M132,0v143h15V79h241v200h15V0H132z M388,64H147V15h241V64z"/>
		<path d="M388,432H147V303h-15v208h271V359h-15V432z M388,496H147v-49h241V496z"/>
		<path d="M148.5,223c0,15.452,8.923,28.852,21.883,35.339c-8.631,9.786-13.883,22.868-13.883,36.911
			c0,30.603,24.897,55.75,55.5,55.75h152c17.369,0,31.5-14.381,31.5-31.75c0-16.027-12.035-29.413-27.54-31.367
			c2.336-7.95,3.54-16.321,3.54-24.82c0-48.248-39.252-87.531-87.5-87.531c-24.506,0-46.687,10.115-62.587,26.403
			c-7.086-11.232-19.567-18.427-33.413-18.427C166.22,183.508,148.5,201.22,148.5,223z M284,190.5c39.977,0,72.5,32.523,72.5,72.5
			c0,15.838-5.013,30.881-14.496,43.503l11.992,9.26c3.106-4.134,5.8-8.763,8.099-12.763H364c9.098,0,16.5,7.402,16.5,16.5
			S373.098,336,364,336H212c-22.331,0-40.5-18.418-40.5-40.75c0-13.296,6.442-25.24,16.368-32.628c0.044,0,0.132-0.122,0.132-0.122
			v-0.097c3-1.966,5.574-3.61,8.677-4.883c-0.113,1.813-0.177,3.639-0.177,5.48c0,5.886,0.589,11.771,1.75,17.492l14.7-2.984
			c-0.962-4.741-1.45-9.622-1.45-14.508C211.5,223.023,244.023,190.5,284,190.5z M188,198.5c10.429,0,19.611,6.568,23.063,16.221
			c-5.275,7.943-9.292,16.792-11.755,26.261c-5.484,1.289-10.657,3.389-15.384,6.173C172.348,245.207,163.5,235.121,163.5,223
			C163.5,209.49,174.491,198.5,188,198.5z"/>
		<rect x="180" y="143" width="15" height="24"/>
		<rect x="108" y="216" width="24" height="15"/>
		
			<rect x="127.917" y="167.417" transform="matrix(-0.7071 -0.7071 0.7071 -0.7071 115.1646 397.5377)" width="24" height="15.001"/>
		<rect x="224.083" y="167.417" transform="matrix(0.7071 -0.7071 0.7071 0.7071 -54.5372 218.1723)" width="24" height="15.001"/>
		<rect x="132.416" y="259.083" transform="matrix(0.7071 0.7071 -0.7071 0.7071 232.679 -19.5333)" width="15.001" height="24"/>
		<path d="M284,230.5v-15c-26.191,0-47.5,21.309-47.5,47.5h15C251.5,245.079,266.08,230.5,284,230.5z"/>
		<rect x="228" y="464" width="80" height="15"/>
		<rect x="220" y="32" width="16" height="15"/>
		<rect x="252" y="32" width="64" height="15"/>
	</g>
</g>
<g>
</g>
<g>
</g>
<g>
</g>
<g>
</g>
<g>
</g>
<g>
</g>
<g>
</g>
<g>
</g>
<g>
</g>
<g>
</g>
<g>
</g>
<g>
</g>
<g>
</g>
<g>
</g>
<g>
</g>
</svg>
