<?xml version="1.0" encoding="iso-8859-1"?>
<!-- Generator: Adobe Illustrator 19.0.0, SVG Export Plug-In . SVG Version: 6.00 Build 0)  -->
<svg version="1.1" id="Layer_1" xmlns="http://www.w3.org/2000/svg" xmlns:xlink="http://www.w3.org/1999/xlink" x="0px" y="0px"
	 viewBox="0 0 511.5 511.5" style="enable-background:new 0 0 511.5 511.5;" xml:space="preserve">
<g>
	<g>
		<g>
			<path d="M191.5,329.532h-160c-17.369,0-31.5-14.131-31.5-31.5c0-17.369,14.131-31.5,31.5-31.5s31.5,14.131,31.5,31.5H48
				c0-9.098-7.402-16.5-16.5-16.5s-16.5,7.402-16.5,16.5c0,9.098,7.402,16.5,16.5,16.5h160V329.532z"/>
		</g>
	</g>
	<g>
		<g>
			<path d="M63.5,409.532c-17.369,0-31.5-14.131-31.5-31.5c0-17.369,14.131-31.5,31.5-31.5h80v15h-80c-9.098,0-16.5,7.402-16.5,16.5
				c0,9.098,7.402,16.5,16.5,16.5s16.5-7.402,16.5-16.5h15C95,395.401,80.869,409.532,63.5,409.532z"/>
		</g>
	</g>
	<g>
		<g>
			<path d="M455.5,329.532h-96v-15h96c9.098,0,16.5-7.402,16.5-16.5c0-9.098-7.402-16.5-16.5-16.5s-16.5,7.402-16.5,16.5h-15
				c0-17.369,14.131-31.5,31.5-31.5s31.5,14.131,31.5,31.5C487,315.401,472.869,329.532,455.5,329.532z"/>
		</g>
	</g>
	<g>
		<g>
			<path d="M63.5,249.532c-17.369,0-31.5-14.131-31.5-31.5s14.131-31.5,31.5-31.5h248v15h-248c-9.098,0-16.5,7.402-16.5,16.5
				s7.402,16.5,16.5,16.5s16.5-7.402,16.5-16.5h15C95,235.401,80.869,249.532,63.5,249.532z"/>
		</g>
	</g>
	<g>
		<g>
			<rect x="175.5" y="154.532" width="16" height="15"/>
		</g>
		<g>
			<path d="M159.5,169.532h-128c-17.369,0-31.5-14.131-31.5-31.5s14.131-31.5,31.5-31.5s31.5,14.131,31.5,31.5H48
				c0-9.098-7.402-16.5-16.5-16.5s-16.5,7.402-16.5,16.5s7.402,16.5,16.5,16.5h128V169.532z"/>
		</g>
	</g>
	<g>
		<g>
			<path d="M479.5,409.532c-17.369,0-31.5-14.131-31.5-31.5h15c0,9.098,7.402,16.5,16.5,16.5s16.5-7.402,16.5-16.5
				c0-9.098-7.402-16.5-16.5-16.5h-192v-15h192c17.369,0,31.5,14.131,31.5,31.5C511,395.401,496.869,409.532,479.5,409.532z"/>
		</g>
	</g>
	<g>
		<rect x="255.5" y="346.532" width="16" height="15"/>
	</g>
	<g>
		<rect x="335.5" y="186.532" width="80" height="15"/>
	</g>
	<g>
		<rect x="303.5" y="154.532" width="208" height="15"/>
	</g>
	<g>
		<rect x="95.5" y="266.532" width="112" height="15"/>
	</g>
	<g>
		<rect x="383.5" y="234.532" width="88" height="15"/>
	</g>
	<g>
		<rect x="175.5" y="234.532" width="96" height="15"/>
	</g>
	<g>
		<rect x="223.5" y="266.532" width="16" height="15"/>
	</g>
	<g>
		<rect x="207.5" y="314.532" width="16" height="15"/>
	</g>
	<g>
		<path style="fill:#87E6DE;" d="M334.127,304.659c-12.497,12.497-32.758,12.497-45.255,0s-12.497-32.758,0-45.255
			c12.497-12.497,70.627-25.373,70.627-25.373S346.624,292.162,334.127,304.659z"/>
		<path style="fill:#1CB7BD;" d="M340.42,238.772c-4.561,17.853-13.52,49.114-22.293,57.887c-7.713,7.713-18.383,10.659-28.36,8.851
			c12.551,11.632,32.156,11.353,44.36-0.851c12.497-12.496,25.373-70.627,25.373-70.627S351.311,235.846,340.42,238.772z"/>
		<g>
			<path d="M311.5,321.532c-10.551,0-20.47-4.109-27.931-11.57c-7.46-7.46-11.569-17.379-11.569-27.93
				c0-10.551,4.109-20.47,11.57-27.931c13.364-13.366,64.244-25.163,74.308-27.392l11.489-2.545l-2.545,11.489
				c-2.228,10.063-14.025,60.943-27.393,74.309l0.001-0.001c-0.001,0.001-0.001,0.001-0.001,0.001
				C331.97,317.422,322.051,321.532,311.5,321.532z M349.44,244.093c-33.325,8.263-51.457,16.809-55.263,20.614
				c-4.628,4.628-7.177,10.78-7.177,17.324c0,6.544,2.549,12.696,7.176,17.323c4.628,4.628,10.78,7.177,17.324,7.177
				s12.696-2.549,17.323-7.176l0.001-0.001C332.634,295.545,341.182,277.414,349.44,244.093z"/>
		</g>
		<g>
			<rect x="304" y="250.032" width="15" height="32"/>
		</g>
		<g>
			<rect x="311.5" y="274.532" width="32" height="15"/>
		</g>
		<g>
			
				<rect x="303.999" y="214.15" transform="matrix(0.7071 0.7071 -0.7071 0.7071 290.6628 -137.6586)" width="15.001" height="135.764"/>
		</g>
	</g>
	<g>
		<path style="fill:#87E6DE;" d="M206.127,416.659c-12.497,12.497-32.758,12.497-45.255,0c-12.497-12.497-12.497-32.758,0-45.255
			c12.497-12.497,70.627-25.373,70.627-25.373S218.624,404.162,206.127,416.659z"/>
		<path style="fill:#1CB7BD;" d="M212.42,350.772c-4.561,17.853-13.52,49.114-22.293,57.887c-7.713,7.713-18.382,10.659-28.36,8.851
			c12.551,11.632,32.156,11.353,44.36-0.851c12.497-12.496,25.373-70.627,25.373-70.627S223.311,347.846,212.42,350.772z"/>
		<g>
			<path d="M183.5,433.532c-10.551,0-20.47-4.109-27.931-11.57c-7.46-7.46-11.569-17.379-11.569-27.93
				c0-10.551,4.109-20.47,11.57-27.931c13.364-13.366,64.244-25.163,74.308-27.392l11.489-2.545l-2.545,11.489
				c-2.229,10.063-14.025,60.943-27.393,74.309l0.001-0.001c-0.001,0.001-0.001,0.001-0.001,0.001
				C203.97,429.422,194.051,433.532,183.5,433.532z M221.439,356.093c-33.325,8.263-51.457,16.809-55.263,20.614
				c-4.628,4.628-7.177,10.78-7.177,17.324c0,6.544,2.549,12.696,7.176,17.323c4.628,4.628,10.78,7.177,17.324,7.177
				s12.696-2.549,17.323-7.176l0.001-0.001C204.634,407.545,213.182,389.414,221.439,356.093z"/>
		</g>
		<g>
			<rect x="176" y="362.032" width="15" height="32"/>
		</g>
		<g>
			<rect x="183.5" y="386.532" width="32" height="15"/>
		</g>
		<g>
			
				<rect x="175.999" y="326.15" transform="matrix(0.7071 0.7071 -0.7071 0.7071 332.3684 -14.3449)" width="15.001" height="135.764"/>
		</g>
	</g>
	<g>
		<path style="fill:#87E6DE;" d="M208.873,144.659c12.497,12.497,32.758,12.497,45.255,0c12.497-12.497,12.497-32.758,0-45.255
			C241.631,86.908,183.5,74.032,183.5,74.032S196.376,132.162,208.873,144.659z"/>
		<path style="fill:#1CB7BD;" d="M202.58,78.772c4.561,17.853,13.52,49.114,22.293,57.887c7.713,7.713,18.382,10.659,28.36,8.851
			c-12.551,11.632-32.156,11.353-44.36-0.851C196.376,132.163,183.5,74.032,183.5,74.032S191.689,75.846,202.58,78.772z"/>
		<g>
			<path d="M231.5,161.532c-10.551,0-20.47-4.109-27.931-11.57l0.001,0.001c-0.001-0.001-0.001-0.001-0.001-0.001
				c-13.366-13.364-25.163-64.244-27.392-74.308l-2.545-11.489l11.489,2.545c10.063,2.229,60.943,14.025,74.309,27.393
				c7.46,7.46,11.569,17.379,11.569,27.93s-4.109,20.47-11.57,27.931C251.97,157.422,242.051,161.532,231.5,161.532z
				 M193.561,84.092c8.263,33.325,16.809,51.457,20.614,55.263l0.001,0.001c4.627,4.627,10.779,7.176,17.323,7.176
				s12.696-2.549,17.323-7.176c4.628-4.628,7.177-10.78,7.177-17.324c0-6.544-2.549-12.696-7.176-17.323
				C245.014,100.898,226.882,92.35,193.561,84.092z"/>
		</g>
		<g>
			<rect x="224" y="90.032" width="15" height="32"/>
		</g>
		<g>
			<rect x="199.5" y="114.532" width="32" height="15"/>
		</g>
		<g>
			
				<rect x="163.618" y="114.531" transform="matrix(0.7071 0.7071 -0.7071 0.7071 154.0943 -127.9529)" width="135.764" height="15.001"/>
		</g>
	</g>
</g>
<g>
</g>
<g>
</g>
<g>
</g>
<g>
</g>
<g>
</g>
<g>
</g>
<g>
</g>
<g>
</g>
<g>
</g>
<g>
</g>
<g>
</g>
<g>
</g>
<g>
</g>
<g>
</g>
<g>
</g>
</svg>
