<?xml version="1.0" encoding="iso-8859-1"?>
<!-- Generator: Adobe Illustrator 19.0.0, SVG Export Plug-In . SVG Version: 6.00 Build 0)  -->
<svg version="1.1" id="Layer_1" xmlns="http://www.w3.org/2000/svg" xmlns:xlink="http://www.w3.org/1999/xlink" x="0px" y="0px"
	 viewBox="0 0 511.5 511.5" style="enable-background:new 0 0 511.5 511.5;" xml:space="preserve">
<g>
	
		<rect x="182.529" y="390.779" transform="matrix(0.7071 0.7071 -0.7071 0.7071 346.755 -21.6406)" style="fill:#B8ECFF;" width="33.941" height="33.941"/>
	
		<rect x="302.529" y="254.779" transform="matrix(0.7071 0.7071 -0.7071 0.7071 285.7357 -146.3269)" style="fill:#B8ECFF;" width="33.941" height="33.941"/>
	<g>
		
			<rect x="222.529" y="86.779" transform="matrix(0.7071 0.7071 -0.7071 0.7071 143.5103 -138.9644)" style="fill:#B8ECFF;" width="33.941" height="33.941"/>
		<g>
			<path d="M239.5,312.75h-208c-9.098,0-16.5-7.651-16.5-16.75s7.402-16.625,16.5-16.625S48,286.651,48,295.75h15
				c0-17.369-14.131-31.5-31.5-31.5S0,278.631,0,296s14.131,31.75,31.5,31.75h208V312.75z"/>
			<path d="M63.5,392.25c-9.098,0-16.5-7.152-16.5-16.25s7.402-16.25,16.5-16.25h96v-15h-96C46.131,344.75,32,358.631,32,376
				s14.131,31.375,31.5,31.375S95,393.119,95,375.75H80C80,384.848,72.598,392.25,63.5,392.25z"/>
			<path d="M455.5,312.75h-96v15h96c17.369,0,31.5-14.381,31.5-31.75s-14.131-31.625-31.5-31.625c-17.369,0-31.5,14.006-31.5,31.375
				h15c0-9.098,7.402-16.5,16.5-16.5c9.098,0,16.5,7.652,16.5,16.75S464.598,312.75,455.5,312.75z"/>
			<path d="M32,216c0,17.369,14.131,31.375,31.5,31.375S95,233.119,95,215.75H80c0,9.098-7.402,16.5-16.5,16.5S47,225.098,47,216
				s7.402-16.25,16.5-16.25h248v-15h-248C46.131,184.75,32,198.631,32,216z"/>
			<rect x="183.5" y="152.75" width="16" height="15"/>
			<path d="M31.5,167.75h136v-15h-136c-9.098,0-16.5-7.652-16.5-16.75s7.402-16.625,16.5-16.625S48,126.652,48,135.75h15
				c0-17.369-14.131-31.5-31.5-31.5S0,118.631,0,136S14.131,167.75,31.5,167.75z"/>
			<path d="M479.5,344.75h-208v15h208c9.098,0,16.5,7.151,16.5,16.25s-7.402,16.375-16.5,16.375c-9.098,0-16.5-7.526-16.5-16.625
				h-15c0,17.369,14.131,31.5,31.5,31.5c17.369,0,31.5-13.881,31.5-31.25S496.869,344.75,479.5,344.75z"/>
			<rect x="239.5" y="344.75" width="16" height="15"/>
			<rect x="335.5" y="184.75" width="80" height="15"/>
			<rect x="279.5" y="152.75" width="232" height="15"/>
			<rect x="95.5" y="264.75" width="112" height="15"/>
			<rect x="383.5" y="232.75" width="88" height="15"/>
			<rect x="175.5" y="232.75" width="80" height="15"/>
			<rect x="223.5" y="264.75" width="16" height="15"/>
			<rect x="255.5" y="312.75" width="16" height="15"/>
			<path d="M252.803,389.304l-10.606-10.732L223.5,397.206l-13.393-13.425l18.697-18.712l-10.856-10.615L206.5,365.643V343.75h-15
				v21.893l-10.947-11.197l-10.481,10.607l18.759,18.696l-13.362,13.394l-18.681-18.697l-10.599,10.857l11.204,11.446H135.5v15
				h21.893l-11.196,10.946l10.606,10.482l18.697-18.76l13.393,13.362l-18.697,18.681l10.356,10.6l10.947-11.205v21.893h15v-21.893
				l11.447,11.197l10.731-10.607l-18.634-18.696l13.424-13.394l18.713,18.697l10.614-10.357l-11.189-10.946H263.5v-15h-21.893
				L252.803,389.304z M199.5,421.144l-13.394-13.394l13.394-13.394l13.394,13.394L199.5,421.144z"/>
			<path d="M311.5,207.75v21.893l-10.947-11.197l-10.481,10.607l18.759,18.696l-13.362,13.394l-18.681-18.697l-10.599,10.857
				l11.204,11.446H255.5v15h21.893l-11.196,10.946l10.606,10.482l18.697-18.76l13.393,13.362l-18.696,18.681l10.356,10.6
				l10.947-11.205v21.893h15v-21.893l11.447,11.197l10.731-10.607l-18.634-18.696l13.424-13.394l18.713,18.697l10.614-10.357
				l-11.188-10.946H383.5v-15h-21.893l11.196-11.446l-10.606-10.732L343.5,261.206l-13.393-13.425l18.697-18.712l-10.856-10.615
				L326.5,229.643V207.75H311.5z M332.894,271.75L319.5,285.144l-13.394-13.394l13.394-13.394L332.894,271.75z"/>
			<path d="M186.197,122.696l10.606,10.482l18.697-18.76l13.393,13.362l-18.697,18.681l10.356,10.6l10.947-11.205v21.893h15v-21.893
				l11.447,11.197l10.731-10.607l-18.634-18.696l13.424-13.394l18.713,18.697l10.614-10.357l-11.188-10.946H303.5v-15h-21.893
				l11.196-11.446l-10.606-10.732L263.5,93.206l-13.393-13.425l18.697-18.712l-10.856-10.615L246.5,61.643V39.75h-15v21.893
				l-10.947-11.197l-10.481,10.607l18.759,18.696l-13.362,13.394l-18.681-18.697l-10.599,10.857l11.204,11.446H175.5v15h21.893
				L186.197,122.696z M239.5,90.356l13.394,13.394L239.5,117.144l-13.394-13.394L239.5,90.356z"/>
		</g>
	</g>
</g>
<g>
</g>
<g>
</g>
<g>
</g>
<g>
</g>
<g>
</g>
<g>
</g>
<g>
</g>
<g>
</g>
<g>
</g>
<g>
</g>
<g>
</g>
<g>
</g>
<g>
</g>
<g>
</g>
<g>
</g>
</svg>
