<?xml version="1.0" encoding="iso-8859-1"?>
<!-- Generator: Adobe Illustrator 19.0.0, SVG Export Plug-In . SVG Version: 6.00 Build 0)  -->
<svg version="1.1" id="Layer_1" xmlns="http://www.w3.org/2000/svg" xmlns:xlink="http://www.w3.org/1999/xlink" x="0px" y="0px"
	 viewBox="0 0 511.375 511.375" style="enable-background:new 0 0 511.375 511.375;" xml:space="preserve">
<g>
	<path style="fill:#87E6DE;" d="M128.188,311.375v-144c0-53.019,42.981-96,96-96h64c53.019,0,96,42.981,96,96v144"/>
	<path style="fill:#1CB7BD;" d="M288.188,71.375h-24c53.019,0,96,42.98,96,96v144h24v-144
		C384.188,114.355,341.207,71.375,288.188,71.375z"/>
	<path style="fill:#1CB7BD;" d="M192.188,311.375v-176c0-35.346,28.654-64,64-64h0c35.346,0,64,28.654,64,64v176"/>
	<g>
		<g>
			<rect x="216.188" y="271.875" style="fill:#FFFFFF;" width="16" height="15"/>
		</g>
		<g>
			<rect x="248.188" y="271.875" style="fill:#FFFFFF;" width="16" height="15"/>
		</g>
		<g>
			<rect x="280.188" y="271.875" style="fill:#FFFFFF;" width="16" height="15"/>
		</g>
	</g>
	<path style="fill:#1CB7BD;" d="M376.188,391.375h-240c-17.673,0-32-14.327-32-32v-48h304v48
		C408.188,377.048,393.861,391.375,376.188,391.375z"/>
	<circle style="fill:#DAEDF7;" cx="256.188" cy="39.375" r="32"/>
	<path style="fill:#8BB4D9;" d="M261.924,7.898c6.31,5.845,10.264,14.198,10.264,23.477c0,17.673-14.327,32-32,32
		c-1.959,0-3.874-0.186-5.736-0.523c5.708,5.287,13.342,8.523,21.736,8.523c17.673,0,32-14.327,32-32
		C288.188,23.661,276.858,10.602,261.924,7.898z"/>
	<path d="M391.188,304.375v-137c0-57.07-45.93-103-103-103h-1.051c5.346-7,8.551-15.5,8.551-24.75c0-21.78-17.72-39.625-39.5-39.625
		s-39.5,17.907-39.5,39.688c0,9.25,3.205,17.688,8.551,24.688h-1.051c-57.07,0-104,45.93-104,103v137h-24v55
		c0,16.281,10,30.29,24,36.328v115.672h15V398.862c1,0.002,0.832,0.513,1,0.513h240c0.168,0,0-0.511,0-0.511v112.511h15V395.703
		c15-6.038,24-20.047,24-36.328v-55H391.188z M376.188,167.375v137h-49v-169c0-22.407-10.369-42.431-26.552-55.55
		C343.318,86.11,376.188,122.974,376.188,167.375z M216.188,319.375v65h-49v-65H216.188z M248.188,79.388v175.987h15V79.388
		c28,3.682,49,27.377,49,55.987v169h-113v-169C199.188,106.765,221.188,83.069,248.188,79.388z M231.188,319.375h49v65h-49V319.375z
		 M295.188,319.375h49v65h-49V319.375z M231.688,39.375c0-13.51,10.99-24.5,24.5-24.5s24.5,10.99,24.5,24.5s-10.99,24.5-24.5,24.5
		S231.688,52.885,231.688,39.375z M135.188,167.375c0-44.401,32.869-81.265,75.552-87.55c-16.183,13.12-26.552,33.143-26.552,55.55
		v169h-49V167.375z M111.188,359.375v-40h41v65h-16C122.678,384.375,111.188,372.885,111.188,359.375z M400.188,359.375
		c0,13.51-10.49,25-24,25h-17v-65h41V359.375z"/>
</g>
<g>
</g>
<g>
</g>
<g>
</g>
<g>
</g>
<g>
</g>
<g>
</g>
<g>
</g>
<g>
</g>
<g>
</g>
<g>
</g>
<g>
</g>
<g>
</g>
<g>
</g>
<g>
</g>
<g>
</g>
</svg>
