<?xml version="1.0" encoding="iso-8859-1"?>
<!-- Generator: Adobe Illustrator 19.0.0, SVG Export Plug-In . SVG Version: 6.00 Build 0)  -->
<svg version="1.1" id="Layer_1" xmlns="http://www.w3.org/2000/svg" xmlns:xlink="http://www.w3.org/1999/xlink" x="0px" y="0px"
	 viewBox="0 0 511 511" style="enable-background:new 0 0 511 511;" xml:space="preserve">
<g>
	<path style="fill:#8BB4D9;" d="M327.5,183.499c-1.376,0-2.736,0.072-4.083,0.185c2.663-10.284,4.083-21.068,4.083-32.185
		c0-70.692-57.308-128-128-128s-128,57.308-128,128c-35.346,0-64,28.654-64,64c0,35.346,28.654,64,64,64h256c26.51,0,48-21.49,48-48
		C375.5,204.99,354.01,183.499,327.5,183.499z"/>
	<path style="fill:#DAEDF7;" d="M455.5,247.499c-1.377,0-2.736,0.072-4.083,0.185c2.664-10.284,4.083-21.068,4.083-32.185
		c0-70.692-57.308-128-128-128s-128,57.308-128,128c-35.346,0-64,28.654-64,64c0,35.346,28.654,64,64,64h256c26.51,0,48-21.49,48-48
		C503.5,268.99,482.01,247.499,455.5,247.499z"/>
	<g>
		<g>
			<rect x="279.5" y="255.999" style="fill:#FFFFFF;" width="16" height="15"/>
		</g>
		<g>
			<rect x="311.5" y="255.999" style="fill:#FFFFFF;" width="16" height="15"/>
		</g>
		<g>
			<rect x="343.5" y="255.999" style="fill:#FFFFFF;" width="16" height="15"/>
		</g>
	</g>
	<path style="fill:#8BB4D9;" d="M455.5,247.499c-1.377,0-2.736,0.072-4.083,0.185c2.664-10.284,4.083-21.068,4.083-32.185
		c0-70.692-57.308-128-128-128c-4.048,0-8.049,0.197-12,0.564c65.064,6.051,116,60.791,116,127.436
		c0,11.117-1.419,21.901-4.083,32.185c1.347-0.114,2.706-0.185,4.083-0.185c26.51,0,48,21.49,48,48c0,26.51-21.49,48-48,48h24
		c26.51,0,48-21.49,48-48C503.5,268.99,482.01,247.499,455.5,247.499z"/>
	<path style="fill:#B8ECFF;" d="M447.5,423.5c0,8.837-7.163,16-16,16c-8.837,0-16-7.163-16-16c0-8.837,16-40,16-40
		S447.5,414.663,447.5,423.5z"/>
	<path style="fill:#B8ECFF;" d="M383.5,471.5c0,8.837-7.163,16-16,16c-8.837,0-16-7.163-16-16c0-8.837,16-40,16-40
		S383.5,462.663,383.5,471.5z"/>
	<path style="fill:#B8ECFF;" d="M127.5,423.5c0,8.837,7.163,16,16,16c8.837,0,16-7.163,16-16c0-8.837-16-40-16-40
		S127.5,414.663,127.5,423.5z"/>
	<path style="fill:#B8ECFF;" d="M191.5,471.5c0,8.837,7.163,16,16,16c8.837,0,16-7.163,16-16c0-8.837-16-40-16-40
		S191.5,462.663,191.5,471.5z"/>
	<polygon style="fill:#FEEF7F;" points="327.5,343.5 351.5,295.5 295.5,295.5 255.5,375.5 311.5,375.5 271.5,455.5 279.5,455.5 
		383.5,343.5 	"/>
	<path style="fill:#EA9A10;" d="M327.5,343.5l24-48h-24l-24,48C303.5,343.5,315.745,343.5,327.5,343.5z"/>
	<path style="fill:#EA9A10;" d="M359.5,343.5l-69.333,74.667L271.5,455.5h8l104-112C383.5,343.5,371.255,343.5,359.5,343.5z"/>
	<g>
		<path d="M15,215.749c0-28.693,21.505-52.567,49.241-56.143c0.511,8.763,1.855,17.378,4.029,25.825l14.526-3.77
			C80.277,171.876,79,161.724,79,151.515c0-66.444,54.056-120.508,120.5-120.508c34.55,0,67.49,14.865,90.374,40.79l11.246-9.929
			C275.39,32.719,238.351,16,199.5,16C127.176,16,67.907,72.957,64.187,144.371C28.184,148.046,0,178.793,0,215.75
			c0,39.425,32.075,71.75,71.5,71.75h40v-15h-40C40.346,272.5,15,246.904,15,215.749z"/>
		<path d="M199.5,78.999V64c-48.248,0-87.5,39.252-87.5,87.5h15C127,111.523,159.523,78.999,199.5,78.999z"/>
		<path d="M460.699,240.251c1.517-8.131,2.301-16.417,2.301-24.751c0-74.715-60.785-135.5-135.5-135.5
			c-72.324,0-131.593,56.957-135.313,128.372C156.184,212.045,128,242.793,128,279.75c0,39.425,32.075,71.75,71.5,71.75h40v-15h-40
			c-31.154,0-56.5-25.596-56.5-56.75c0-28.693,21.505-52.567,49.24-56.143c0.511,8.763,1.855,17.378,4.029,25.825l14.526-3.77
			c-2.519-9.785-3.796-19.938-3.796-30.146c0-66.444,54.056-120.508,120.5-120.508S448,149.06,448,215.503
			c0,27.702-9.138,53.741-26.426,75.308l11.704,9.381c10.767-13.431,18.816-28.81,23.803-45.152
			C478.682,255.875,496,273.948,496,295.75c0,22.332-18.169,40.75-40.5,40.75h-40v15h40c30.603,0,55.5-25.147,55.5-55.75
			C511,266.901,488.873,242.882,460.699,240.251z"/>
		<path d="M327.5,142.999v-15c-48.248,0-87.5,39.252-87.5,87.5h15C255,175.523,287.523,142.999,327.5,142.999z"/>
		<path d="M431.5,367.079l-6.672,12.995C420.88,387.763,408,413.618,408,423.5c0,12.958,10.542,23.5,23.5,23.5
			s23.5-10.542,23.5-23.5c0-9.881-12.88-35.737-16.828-43.426L431.5,367.079z M431.5,432c-4.687,0-8.5-3.813-8.5-8.5
			c0.015-2.931,3.769-12.487,8.5-22.815c4.731,10.324,8.484,19.88,8.5,22.814C440,428.186,436.187,432,431.5,432z"/>
		<path d="M367.5,415.079l-6.672,12.995C356.88,435.763,344,461.618,344,471.5c0,12.958,10.542,23.5,23.5,23.5
			s23.5-10.542,23.5-23.5c0-9.881-12.88-35.737-16.828-43.426L367.5,415.079z M367.5,480c-4.687,0-8.5-3.813-8.5-8.5
			c0.015-2.931,3.769-12.487,8.5-22.815c4.731,10.324,8.484,19.88,8.5,22.814C376,476.186,372.187,480,367.5,480z"/>
		<path d="M143.5,367.079l-6.672,12.995C132.88,387.763,120,413.618,120,423.5c0,12.958,10.542,23.5,23.5,23.5
			s23.5-10.542,23.5-23.5c0-9.881-12.88-35.737-16.828-43.426L143.5,367.079z M143.5,432c-4.687,0-8.5-3.813-8.5-8.5
			c0.015-2.931,3.769-12.487,8.501-22.814c4.731,10.324,8.484,19.88,8.499,22.814C152,428.186,148.187,432,143.5,432z"/>
		<path d="M207.5,415.079l-6.672,12.995C196.88,435.763,184,461.618,184,471.5c0,12.958,10.542,23.5,23.5,23.5
			s23.5-10.542,23.5-23.5c0-9.881-12.88-35.737-16.828-43.426L207.5,415.079z M207.5,480c-4.687,0-8.5-3.813-8.5-8.5
			c0.015-2.931,3.769-12.487,8.5-22.814c4.731,10.324,8.484,19.88,8.5,22.814C216,476.186,212.187,480,207.5,480z"/>
		<path d="M363.635,288.5h-72.771l-47.5,95h56l-40,80h23.406l117.929-127h-61.064L363.635,288.5z M366.301,351.5l-74.025,79.72
			l31.36-62.72h-56l32.5-65h39.229l-24,48H366.301z"/>
	</g>
</g>
<g>
</g>
<g>
</g>
<g>
</g>
<g>
</g>
<g>
</g>
<g>
</g>
<g>
</g>
<g>
</g>
<g>
</g>
<g>
</g>
<g>
</g>
<g>
</g>
<g>
</g>
<g>
</g>
<g>
</g>
</svg>
