<?xml version="1.0" encoding="iso-8859-1"?>
<!-- Generator: Adobe Illustrator 19.0.0, SVG Export Plug-In . SVG Version: 6.00 Build 0)  -->
<svg version="1.1" id="Layer_1" xmlns="http://www.w3.org/2000/svg" xmlns:xlink="http://www.w3.org/1999/xlink" x="0px" y="0px"
	 viewBox="0 0 511 511" style="enable-background:new 0 0 511 511;" xml:space="preserve">
<g>
	<path style="fill:#DAEDF7;" d="M503.5,291.063c0-37.555-30.445-68-68-68c-4.808,0-9.498,0.506-14.024,1.455
		c1.326-8.291,2.024-16.791,2.024-25.455c0-88.366-71.635-160-160-160c-83.113,0-151.417,63.373-159.244,144.433
		c-2.88-0.285-5.801-0.433-8.756-0.433c-48.601,0-88,39.399-88,88c0,48.601,39.399,88,88,88h344v-0.127
		C475.192,356.864,503.5,327.274,503.5,291.063z"/>
	<g>
		<g>
			<rect x="215.5" y="271.563" style="fill:#FFFFFF;" width="16" height="15"/>
		</g>
		<g>
			<rect x="247.5" y="271.563" style="fill:#FFFFFF;" width="16" height="15"/>
		</g>
		<g>
			<rect x="279.5" y="271.563" style="fill:#FFFFFF;" width="16" height="15"/>
		</g>
	</g>
	<path style="fill:#8BB4D9;" d="M399.5,199.063c0,8.664-0.698,17.165-2.024,25.455c4.526-0.949,9.216-1.455,14.024-1.455
		c3.426,0,6.792,0.26,10.082,0.749c1.253-8.068,1.918-16.33,1.918-24.749c0-88.366-71.635-160-160-160
		c-4.035,0-8.035,0.154-11.995,0.447C334.263,45.649,399.5,114.736,399.5,199.063z"/>
	<path style="fill:#8BB4D9;" d="M435.5,223.063c-4.091,0-8.089,0.387-11.98,1.081c31.819,5.678,55.98,33.468,55.98,66.919
		c0,36.212-28.308,65.802-64,67.873v0.127h24v-0.127c35.692-2.072,64-31.662,64-67.873C503.5,253.507,473.055,223.063,435.5,223.063
		z"/>
	<g>
		<polygon style="fill:#FEEF7F;" points="335.5,359.063 359.5,311.063 303.5,311.063 263.5,391.063 319.5,391.063 279.5,471.063 
			287.5,471.063 391.5,359.063 		"/>
		<path style="fill:#EA9A10;" d="M335.5,359.063l24-48h-24l-24,48C311.5,359.063,323.745,359.063,335.5,359.063z"/>
		<path style="fill:#EA9A10;" d="M367.5,359.063l-69.333,74.667L279.5,471.063h8l104-112
			C391.5,359.063,379.255,359.063,367.5,359.063z"/>
	</g>
	<g>
		<polygon style="fill:#FEEF7F;" points="191.5,359.063 215.5,311.063 159.5,311.063 119.5,391.063 175.5,391.063 135.5,471.063 
			143.5,471.063 247.5,359.063 		"/>
		<path style="fill:#EA9A10;" d="M191.5,359.063l24-48h-24l-24,48C167.5,359.063,179.745,359.063,191.5,359.063z"/>
		<path style="fill:#EA9A10;" d="M223.5,359.063l-69.333,74.667L135.5,471.063h8l104-112
			C247.5,359.063,235.255,359.063,223.5,359.063z"/>
		<g>
			<path d="M435.5,216.063h-5.299c0.528-6,0.799-11.203,0.799-16.75c0-92.36-75.14-167.375-167.5-167.375
				c-84.384,0-154.382,62.125-165.844,144.125H95.5c-52.659,0-95.5,42.841-95.5,95.5s42.841,95.5,95.5,95.5h8v-15h-8
				c-44.388,0-80.5-36.112-80.5-80.5s36.112-80.5,80.5-80.5h0.714c-0.141,2-0.214,5.4-0.214,8.25
				c0,11.273,1.127,22.416,3.351,33.368l14.7-3.047c-2.024-9.971-3.051-20.267-3.051-30.54c0-84.089,68.411-152.516,152.5-152.516
				S416,114.981,416,199.07c0,33.313-10.545,64.952-30.496,91.506l11.992,9.258c15.516-20.651,25.846-44.772,30.562-68.772h7.442
				c33.36,0,60.5,27.14,60.5,60.5s-27.14,60.5-60.5,60.5h-12v15h12c41.631,0,75.5-33.869,75.5-75.5S477.131,216.063,435.5,216.063z"
				/>
			<path d="M263.5,102.563v-15c-61.481,0-111.5,50.019-111.5,111.5h15C167,145.852,210.29,102.563,263.5,102.563z"/>
			<path d="M371.635,304.063h-72.771l-47.5,95h56l-40,80h23.406l117.929-127h-61.064L371.635,304.063z M374.301,367.063
				l-74.025,79.72l31.36-62.72h-56l32.5-65h39.229l-24,48H374.301z"/>
			<path d="M203.635,352.063l24-48h-72.771l-47.5,95h56l-40,80h23.406l117.929-127H203.635z M187.635,384.063h-56l32.5-65h39.229
				l-24,48h50.936l-74.025,79.72L187.635,384.063z"/>
		</g>
	</g>
</g>
<g>
</g>
<g>
</g>
<g>
</g>
<g>
</g>
<g>
</g>
<g>
</g>
<g>
</g>
<g>
</g>
<g>
</g>
<g>
</g>
<g>
</g>
<g>
</g>
<g>
</g>
<g>
</g>
<g>
</g>
</svg>
