<?xml version="1.0" encoding="iso-8859-1"?>
<!-- Generator: Adobe Illustrator 19.0.0, SVG Export Plug-In . SVG Version: 6.00 Build 0)  -->
<svg version="1.1" id="Layer_1" xmlns="http://www.w3.org/2000/svg" xmlns:xlink="http://www.w3.org/1999/xlink" x="0px" y="0px"
	 viewBox="0 0 511 511" style="enable-background:new 0 0 511 511;" xml:space="preserve">
<g>
	<path style="fill:#FEEF7F;" d="M199.51,107.501C186.137,97.454,169.514,91.5,151.5,91.5c-44.183,0-80,35.817-80,80
		c0,44.183,35.817,80,80,80c18.013,0,34.636-5.953,48.008-16l7.992,8c-20.545,24.456-53.56,40-88,40c-61.856,0-112-50.144-112-112
		c0-61.856,50.144-112,112-112c34.441,0,67.455,15.544,88,40L199.51,107.501z"/>
	<g>
		<path style="fill:#DAEDF7;" d="M455.5,379.5c-1.376,0-2.736,0.072-4.083,0.185c2.663-10.284,4.083-21.068,4.083-32.185
			c0-70.692-57.308-128-128-128s-128,57.308-128,128c-35.346,0-64,28.654-64,64c0,35.346,28.654,64,64,64h256
			c26.51,0,48-21.49,48-48C503.5,400.99,482.01,379.5,455.5,379.5z"/>
		<path style="fill:#8BB4D9;" d="M455.5,379.5c-1.376,0-2.736,0.072-4.083,0.185c2.663-10.284,4.083-21.068,4.083-32.185
			c0-70.692-57.308-128-128-128c-4.047,0-8.048,0.197-12,0.564c65.064,6.051,116,60.791,116,127.436
			c0,11.117-1.419,21.901-4.083,32.185c1.347-0.114,2.706-0.185,4.083-0.185c26.51,0,48,21.49,48,48c0,26.51-21.49,48-48,48h24
			c26.51,0,48-21.49,48-48C503.5,400.99,482.01,379.5,455.5,379.5z"/>
		<g>
			<g>
				<rect x="279.5" y="428" style="fill:#FFFFFF;" width="16" height="15"/>
			</g>
			<g>
				<rect x="311.5" y="428" style="fill:#FFFFFF;" width="16" height="15"/>
			</g>
			<g>
				<rect x="343.5" y="428" style="fill:#FFFFFF;" width="16" height="15"/>
			</g>
		</g>
	</g>
	<g>
		<path style="fill:#FFFFFF;" d="M119.5,59.5c-17.67,0-32,14.33-32,32c0-17.67-14.33-32-32-32c17.67,0,32-14.33,32-32
			C87.5,45.17,101.83,59.5,119.5,59.5z"/>
	</g>
	<g>
		<path style="fill:#FFFFFF;" d="M127.5,339.5c-17.67,0-32,14.33-32,32c0-17.67-14.33-32-32-32c17.67,0,32-14.33,32-32
			C95.5,325.17,109.83,339.5,127.5,339.5z"/>
	</g>
	<g>
		<path style="fill:#FFFFFF;" d="M247.5,171.5c-17.67,0-32,14.33-32,32c0-17.67-14.33-32-32-32c17.67,0,32-14.33,32-32
			C215.5,157.17,229.83,171.5,247.5,171.5z"/>
	</g>
	<g>
		<path d="M213.242,248.324l4.422-5.263l-17.454-17.47l-5.207,3.913C182.38,238.987,167.337,244,151.5,244
			c-39.977,0-72.5-32.523-72.5-72.5S111.523,99,151.5,99c15.838,0,30.882,5.013,43.505,14.498l5.208,3.914l17.449-17.474
			l-4.42-5.262c-18.626-22.173-46.585-37.296-76.707-41.49l-2.068,14.856c21.128,2.942,41.005,11.948,56.441,25.299
			C178.778,87.197,165.393,84,151.5,84C103.252,84,64,123.252,64,171.5s39.252,87.5,87.5,87.5c13.855,0,27.207-3.18,39.311-9.291
			C171.624,266.177,145.52,276,119.5,276C61.879,276,15,229.122,15,171.5c0-34.145,16.744-66.21,44.791-85.773l-8.582-12.303
			C19.144,95.79,0,132.455,0,171.5C0,237.393,53.607,291,119.5,291C155.749,291,190.793,275.046,213.242,248.324z"/>
		<path d="M460.699,372.251c1.517-8.131,2.301-16.417,2.301-24.751c0-74.715-60.785-135.5-135.5-135.5
			c-72.324,0-131.593,56.957-135.313,128.371C156.184,344.046,128,374.793,128,411.75c0,39.425,32.075,71.75,71.5,71.75h256
			c30.603,0,55.5-25.147,55.5-55.75C511,398.901,488.872,374.882,460.699,372.251z M455.5,468.5h-256
			c-31.154,0-56.5-25.596-56.5-56.75c0-28.693,21.505-52.567,49.24-56.143c0.511,8.762,1.855,17.376,4.028,25.824l14.527-3.77
			c-2.519-9.787-3.796-19.94-3.796-30.147c0-66.444,54.056-120.508,120.5-120.508S448,281.06,448,347.504
			c0,27.702-9.138,53.741-26.426,75.308l11.703,9.381c10.767-13.431,18.816-28.81,23.804-45.152
			C478.682,387.875,496,405.949,496,427.75C496,450.082,477.832,468.5,455.5,468.5z"/>
		<path d="M240,347.5h15c0-39.977,32.523-72.5,72.5-72.5v-15C279.252,260,240,299.252,240,347.5z"/>
		<path d="M80,91.5h15C95,77.991,105.99,67,119.5,67V52C105.99,52,95,41.009,95,27.5H80C80,41.009,69.01,52,55.5,52v15
			C69.01,67,80,77.991,80,91.5z M87.5,50.616c2.471,3.412,5.472,6.413,8.884,8.884c-3.412,2.471-6.413,5.472-8.884,8.884
			c-2.471-3.412-5.472-6.413-8.884-8.884C82.028,57.029,85.029,54.028,87.5,50.616z"/>
		<path d="M103,307.5H88c0,13.509-10.99,24.5-24.5,24.5v15c13.51,0,24.5,10.991,24.5,24.5h15c0-13.509,10.99-24.5,24.5-24.5v-15
			C113.99,332,103,321.009,103,307.5z M95.5,348.384c-2.471-3.412-5.472-6.413-8.884-8.884c3.412-2.471,6.413-5.472,8.884-8.884
			c2.471,3.412,5.472,6.413,8.884,8.884C100.972,341.971,97.971,344.972,95.5,348.384z"/>
		<path d="M183.5,164v15c13.51,0,24.5,10.991,24.5,24.5h15c0-13.509,10.99-24.5,24.5-24.5v-15c-13.51,0-24.5-10.991-24.5-24.5h-15
			C208,153.009,197.01,164,183.5,164z M215.5,162.616c2.471,3.412,5.472,6.413,8.884,8.884c-3.412,2.471-6.413,5.472-8.884,8.884
			c-2.471-3.412-5.472-6.413-8.884-8.884C210.028,169.029,213.029,166.028,215.5,162.616z"/>
	</g>
</g>
<g>
</g>
<g>
</g>
<g>
</g>
<g>
</g>
<g>
</g>
<g>
</g>
<g>
</g>
<g>
</g>
<g>
</g>
<g>
</g>
<g>
</g>
<g>
</g>
<g>
</g>
<g>
</g>
<g>
</g>
</svg>
