<?xml version="1.0" encoding="iso-8859-1"?>
<!-- Generator: Adobe Illustrator 19.0.0, SVG Export Plug-In . SVG Version: 6.00 Build 0)  -->
<svg version="1.1" id="Layer_1" xmlns="http://www.w3.org/2000/svg" xmlns:xlink="http://www.w3.org/1999/xlink" x="0px" y="0px"
	 viewBox="0 0 511 511" style="enable-background:new 0 0 511 511;" xml:space="preserve">
<g>
	<g>
		<circle style="fill:#FEEF7F;" cx="256" cy="255" r="144"/>
	</g>
	<g>
		<g>
			<rect x="216" y="247.5" style="fill:#FFFFFF;" width="16" height="15"/>
		</g>
		<g>
			<rect x="248" y="247.5" style="fill:#FFFFFF;" width="16" height="15"/>
		</g>
		<g>
			<rect x="280" y="247.5" style="fill:#FFFFFF;" width="16" height="15"/>
		</g>
	</g>
	<path style="fill:#EA9A10;" d="M256,111c-4.042,0-8.042,0.175-12,0.502c73.913,6.099,132,68.011,132,143.499
		s-58.087,137.399-132,143.499c3.958,0.326,7.958,0.501,12,0.501c79.529,0,144-64.471,144-144S335.529,111,256,111z"/>
	<polygon style="fill:#EA9A10;" points="280,79 232,79 254,7 258,7 	"/>
	<polygon style="fill:#EA9A10;" points="232,431 280,431 258,503 254,503 	"/>
	<polygon style="fill:#EA9A10;" points="397.421,147.52 363.48,113.579 429.948,78.223 432.777,81.052 	"/>
	<polygon style="fill:#EA9A10;" points="114.579,362.48 148.52,396.421 82.052,431.777 79.223,428.948 	"/>
	<polygon style="fill:#EA9A10;" points="432,279 432,231 504,253 504,257 	"/>
	<polygon style="fill:#EA9A10;" points="80,231 80,279 8,257 8,253 	"/>
	<polygon style="fill:#EA9A10;" points="363.48,396.421 397.421,362.48 432.777,428.948 429.948,431.777 	"/>
	<polygon style="fill:#EA9A10;" points="148.52,113.579 114.579,147.52 79.223,81.052 82.052,78.223 	"/>
	<g>
		<path d="M256,103.5c-83.538,0-151.5,67.963-151.5,151.5S172.462,406.5,256,406.5c83.537,0,151.5-67.963,151.5-151.5
			S339.537,103.5,256,103.5z M256,391.5c-75.266,0-136.5-61.233-136.5-136.5S180.734,118.5,256,118.5
			c75.267,0,136.5,61.233,136.5,136.5S331.267,391.5,256,391.5z"/>
		<path d="M152.5,255h15c0-48.799,39.701-88.5,88.5-88.5v-15C198.93,151.5,152.5,197.93,152.5,255z"/>
		<path d="M263.551,0h-15.102l-26.583,87h68.268L263.551,0z M256,26.62L269.866,72h-27.732L256,26.62z"/>
		<path d="M248.449,511h15.102l26.583-87h-68.268L248.449,511z M256,484.38L242.134,439h27.732L256,484.38z"/>
		<path d="M442.005,79.673l-10.678-10.678l-80.315,42.721l48.273,48.272L442.005,79.673z M375.949,115.44l41.893-22.282
			l-22.282,41.893L375.949,115.44z"/>
		<path d="M69.995,430.327l10.679,10.677l80.316-42.72l-48.273-48.273L69.995,430.327z M136.051,394.56l-41.893,22.283
			l22.283-41.894L136.051,394.56z"/>
		<path d="M424,220.866v68.268l87-26.583v-15.102L424,220.866z M439,268.866v-27.732L484.38,255L439,268.866z"/>
		<path d="M87,220.866L0,247.449v15.102l87,26.583V220.866z M72,268.866L26.62,255L72,241.134V268.866z"/>
		<path d="M351.012,398.284l80.315,42.721l10.678-10.678l-42.721-80.315L351.012,398.284z M375.949,394.56l19.61-19.61
			l22.282,41.893L375.949,394.56z"/>
		<path d="M160.989,111.716l-80.316-42.72L69.995,79.673l42.722,80.315L160.989,111.716z M136.051,115.44l-19.61,19.61
			L94.158,93.157L136.051,115.44z"/>
	</g>
</g>
<g>
</g>
<g>
</g>
<g>
</g>
<g>
</g>
<g>
</g>
<g>
</g>
<g>
</g>
<g>
</g>
<g>
</g>
<g>
</g>
<g>
</g>
<g>
</g>
<g>
</g>
<g>
</g>
<g>
</g>
</svg>
