<?xml version="1.0" encoding="iso-8859-1"?>
<!-- Generator: Adobe Illustrator 19.0.0, SVG Export Plug-In . SVG Version: 6.00 Build 0)  -->
<svg version="1.1" id="Layer_1" xmlns="http://www.w3.org/2000/svg" xmlns:xlink="http://www.w3.org/1999/xlink" x="0px" y="0px"
	 viewBox="0 0 511.5 511.5" style="enable-background:new 0 0 511.5 511.5;" xml:space="preserve">
<g>
	<circle style="fill:#FEEF7F;" cx="184" cy="255.75" r="112"/>
	<path style="fill:#EA9A10;" d="M184,367.75c61.856,0,112-50.144,112-112c0-33.493-14.707-63.547-38.009-84.071
		C214.292,192.047,184,236.357,184,287.75c-34.005,0-61.802,26.524-63.864,60.01C138.253,360.358,160.262,367.75,184,367.75z"/>
	<path style="fill:#B8ECFF;" d="M456,335.75c-1.376,0-2.736,0.072-4.083,0.185c2.663-10.284,4.083-21.068,4.083-32.185
		c0-70.692-57.308-128-128-128s-128,57.308-128,128c-35.346,0-64,28.654-64,64c0,35.346,28.654,64,64,64h256c26.51,0,48-21.49,48-48
		C504,357.24,482.51,335.75,456,335.75z"/>
	<path style="fill:#57BFE6;" d="M456,335.75c-1.376,0-2.736,0.072-4.083,0.185c2.663-10.284,4.083-21.068,4.083-32.185
		c0-70.692-57.308-128-128-128c-4.047,0-8.048,0.197-12,0.564c65.064,6.051,116,60.791,116,127.436
		c0,11.117-1.419,21.901-4.083,32.185c1.347-0.114,2.706-0.185,4.083-0.185c26.51,0,48,21.49,48,48c0,26.51-21.49,48-48,48h24
		c26.51,0,48-21.49,48-48C504,357.24,482.51,335.75,456,335.75z"/>
	<g>
		<g>
			<rect x="280" y="384.25" style="fill:#FFFFFF;" width="16" height="15"/>
		</g>
		<g>
			<rect x="312" y="384.25" style="fill:#FFFFFF;" width="16" height="15"/>
		</g>
		<g>
			<rect x="344" y="384.25" style="fill:#FFFFFF;" width="16" height="15"/>
		</g>
	</g>
	<g>
		<path d="M184,199.25v-15c-39.425,0-71.5,32.075-71.5,71.5h15C127.5,224.596,152.846,199.25,184,199.25z"/>
		<path d="M79.5,255.75c0-57.622,46.879-104.5,104.5-104.5c24.552,0,48.409,8.683,67.177,24.449l9.648-11.485
			C239.359,146.181,212.076,136.25,184,136.25c-65.893,0-119.5,53.607-119.5,119.5c0,36.838,16.61,71.061,45.571,93.893
			l9.287-11.779C94.027,317.894,79.5,287.964,79.5,255.75z"/>
		<path d="M461.199,328.501c1.517-8.131,2.301-16.417,2.301-24.751c0-74.715-60.785-135.5-135.5-135.5
			c-72.324,0-131.593,56.957-135.313,128.371C156.684,300.296,128.5,331.043,128.5,368c0,39.425,32.075,71.75,71.5,71.75h256
			c30.603,0,55.5-25.147,55.5-55.75C511.5,355.151,489.372,331.132,461.199,328.501z M456,424.75H200
			c-31.154,0-56.5-25.596-56.5-56.75c0-28.693,21.505-52.567,49.24-56.143c0.511,8.762,1.855,17.376,4.028,25.824l14.527-3.77
			c-2.519-9.787-3.796-19.94-3.796-30.147c0-66.444,54.056-120.508,120.5-120.508s120.5,54.052,120.5,120.496
			c0,27.702-9.138,53.741-26.426,75.308l11.703,9.381c10.767-13.431,18.816-28.81,23.804-45.152
			c21.601,0.835,38.919,18.908,38.919,40.71C496.5,406.332,478.332,424.75,456,424.75z"/>
		<path d="M240.5,303.75h15c0-39.977,32.523-72.5,72.5-72.5v-15C279.752,216.25,240.5,255.502,240.5,303.75z"/>
		<rect y="248.75" width="48" height="15"/>
		<rect x="176" y="71.75" width="15" height="48"/>
		<rect x="292.5" y="111.466" transform="matrix(0.7071 0.7071 -0.7071 0.7071 186.6715 -171.1949)" width="15" height="56.569"/>
		<rect x="60.5" y="343.466" transform="matrix(-0.7071 -0.7071 0.7071 -0.7071 -146.769 682.7103)" width="15" height="56.569"/>
		<rect x="39.716" y="132.25" transform="matrix(0.7071 0.7071 -0.7071 0.7071 118.7349 -7.1514)" width="56.569" height="15"/>
	</g>
</g>
<g>
</g>
<g>
</g>
<g>
</g>
<g>
</g>
<g>
</g>
<g>
</g>
<g>
</g>
<g>
</g>
<g>
</g>
<g>
</g>
<g>
</g>
<g>
</g>
<g>
</g>
<g>
</g>
<g>
</g>
</svg>
