<?xml version="1.0" encoding="iso-8859-1"?>
<!-- Generator: Adobe Illustrator 19.0.0, SVG Export Plug-In . SVG Version: 6.00 Build 0)  -->
<svg version="1.1" id="Layer_1" xmlns="http://www.w3.org/2000/svg" xmlns:xlink="http://www.w3.org/1999/xlink" x="0px" y="0px"
	 viewBox="0 0 511 511" style="enable-background:new 0 0 511 511;" xml:space="preserve">
<g>
	<path style="fill:#57BFE6;" d="M327.5,255.249c-1.377,0-2.736,0.072-4.083,0.185c2.664-10.284,4.083-21.068,4.083-32.185
		c0-70.692-57.308-128-128-128s-128,57.308-128,128c-35.346,0-64,28.654-64,64c0,35.346,28.654,64,64,64h256c26.51,0,48-21.49,48-48
		C375.5,276.74,354.01,255.249,327.5,255.249z"/>
	<g>
		<path style="fill:#B8ECFF;" d="M455.5,319.25c-1.377,0-2.736,0.072-4.083,0.185c2.664-10.284,4.083-21.069,4.083-32.185
			c0-70.692-57.308-128-128-128s-128,57.308-128,128c-35.346,0-64,28.654-64,64c0,35.346,28.654,64,64,64h256
			c26.51,0,48-21.49,48-48C503.5,340.74,482.01,319.25,455.5,319.25z"/>
		<g>
			<g>
				<rect x="279.5" y="367.75" style="fill:#FFFFFF;" width="16" height="15"/>
			</g>
			<g>
				<rect x="311.5" y="367.75" style="fill:#FFFFFF;" width="16" height="15"/>
			</g>
			<g>
				<rect x="343.5" y="367.75" style="fill:#FFFFFF;" width="16" height="15"/>
			</g>
		</g>
		<path style="fill:#57BFE6;" d="M455.5,319.25c-1.377,0-2.736,0.072-4.083,0.185c2.664-10.284,4.083-21.069,4.083-32.185
			c0-70.692-57.308-128-128-128c-4.048,0-8.049,0.197-12,0.564c65.064,6.051,116,60.791,116,127.436
			c0,11.117-1.419,21.901-4.083,32.185c1.347-0.114,2.706-0.185,4.083-0.185c26.51,0,48,21.49,48,48c0,26.51-21.49,48-48,48h24
			c26.51,0,48-21.49,48-48C503.5,340.74,482.01,319.25,455.5,319.25z"/>
		<g>
			<path d="M15,287.5c0-28.693,21.505-52.567,49.24-56.143c0.511,8.763,1.855,17.378,4.029,25.825l14.526-3.771
				C80.277,243.626,79,233.474,79,223.265c0-66.444,54.056-120.508,120.5-120.508c34.55,0,67.49,14.865,90.374,40.79l11.246-9.929
				c-25.729-29.149-62.768-45.868-101.62-45.868c-72.324,0-131.593,56.957-135.313,128.371C28.184,219.796,0,250.543,0,287.5
				c0,39.425,32.075,71.75,71.5,71.75h40v-15h-40C40.346,344.25,15,318.654,15,287.5z"/>
			<path d="M199.5,150.749v-15c-48.248,0-87.5,39.252-87.5,87.5h15C127,183.273,159.523,150.749,199.5,150.749z"/>
			<path d="M460.699,312.001c1.517-8.131,2.301-16.417,2.301-24.751c0-74.715-60.785-135.5-135.5-135.5
				c-72.324,0-131.593,56.957-135.313,128.372C156.184,283.795,128,314.543,128,351.5c0,39.425,32.075,71.75,71.5,71.75h256
				c30.603,0,55.5-25.147,55.5-55.75C511,338.651,488.873,314.632,460.699,312.001z M455.5,408.25h-256
				c-31.154,0-56.5-25.596-56.5-56.75c0-28.693,21.505-52.567,49.24-56.143c0.511,8.763,1.855,17.378,4.029,25.825l14.526-3.771
				c-2.519-9.785-3.796-19.938-3.796-30.146c0-66.444,54.056-120.508,120.5-120.508S448,220.81,448,287.253
				c0,27.702-9.138,53.741-26.426,75.308l11.704,9.381c10.767-13.431,18.816-28.81,23.803-45.152
				c21.6,0.835,38.919,18.908,38.919,40.71C496,389.831,477.832,408.25,455.5,408.25z"/>
			<path d="M240,287.25h15c0-39.977,32.523-72.5,72.5-72.5v-15C279.252,199.749,240,239.002,240,287.25z"/>
		</g>
	</g>
</g>
<g>
</g>
<g>
</g>
<g>
</g>
<g>
</g>
<g>
</g>
<g>
</g>
<g>
</g>
<g>
</g>
<g>
</g>
<g>
</g>
<g>
</g>
<g>
</g>
<g>
</g>
<g>
</g>
<g>
</g>
</svg>
